<?xml version="1.0" encoding="UTF-8" standalone="no"?>
<svg
   xmlns:dc="http://purl.org/dc/elements/1.1/"
   xmlns:cc="http://creativecommons.org/ns#"
   xmlns:rdf="http://www.w3.org/1999/02/22-rdf-syntax-ns#"
   xmlns:svg="http://www.w3.org/2000/svg"
   xmlns="http://www.w3.org/2000/svg"
   xmlns:sodipodi="http://sodipodi.sourceforge.net/DTD/sodipodi-0.dtd"
   xmlns:inkscape="http://www.inkscape.org/namespaces/inkscape"
   inkscape:version="1.0.1 (0767f8302a, 2020-10-17)"
   sodipodi:docname="CAM-RoboSvit-v1.svg"
   id="svg5"
   version="1.1"
   viewBox="-10 -55.059999 49.219999 49.22"
   height="49.219997mm"
   width="49.219997mm">
  <metadata
     id="metadata11">
    <rdf:RDF>
      <cc:Work
         rdf:about="">
        <dc:format>image/svg+xml</dc:format>
        <dc:type
           rdf:resource="http://purl.org/dc/dcmitype/StillImage" />
        <dc:title></dc:title>
      </cc:Work>
    </rdf:RDF>
  </metadata>
  <defs
     id="defs9" />
  <sodipodi:namedview
     inkscape:current-layer="Setup1"
     inkscape:window-maximized="1"
     inkscape:window-y="0"
     inkscape:window-x="1920"
     inkscape:cy="96.060059"
     inkscape:cx="108.40003"
     inkscape:zoom="4.2339025"
     showgrid="false"
     id="namedview7"
     inkscape:window-height="1375"
     inkscape:window-width="2560"
     inkscape:pageshadow="2"
     inkscape:pageopacity="0"
     guidetolerance="10"
     gridtolerance="10"
     objecttolerance="10"
     borderopacity="1"
     bordercolor="#666666"
     pagecolor="#ffffff"
     inkscape:document-rotation="0"
     fit-margin-top="2"
     fit-margin-left="2"
     fit-margin-right="2"
     fit-margin-bottom="2" />
  <g
     id="Setup1"
     transform="translate(-17.89,-7.9499994)">
    <path
       style="fill:#000000;fill-opacity:1;stroke:none"
       d="m 32.5,-25.5 a 3,3 0 0 0 -3,3 3,3 0 0 0 3,3 3,3 0 0 0 3,-3 3,3 0 0 0 -3,-3 z m 0,-13.401 a 16.401,16.401 0 0 1 3.41,0.359 l 2.309,-4.684 6.919,3.332 -2.222,4.726 a 16.401,16.401 0 0 1 4.252,5.332 l 5.101,-1.115 1.71,7.487 -5.08,1.209 a 16.401,16.401 0 0 1 -1.518,6.649 l 4.053,3.293 -4.789,6.005 -4.112,-3.218 a 16.4,16.4 0 0 1 -6.145,2.959 l -0.048,5.221 -7.68,0.001 -0.048,-5.222 a 16.4,16.4 0 0 1 -6.145,-2.959 l -4.112,3.218 -4.789,-6.004 4.053,-3.294 a 16.401,16.401 0 0 1 -1.518,-6.649 l -5.08,-1.208 1.709,-7.488 5.102,1.115 a 16.401,16.401 0 0 1 4.252,-5.332 l -2.222,-4.725 6.919,-3.333 2.309,4.684 a 16.401,16.401 0 0 1 3.41,-0.359 z"
       stroke-width="0.1"
       stroke="#0000ff"
       fill="none"
       id="op_2D_Profile2-4-1" />
    <path
       d="m 16.803,-9.977 a 0.24,0.24 0 0 0 -0.337,-0.038 0.24,0.24 0 0 0 -0.038,0.337 0.24,0.24 0 0 0 0.337,0.038 0.24,0.24 0 0 0 0.038,-0.337 z m 1.649,-1.622 a 0.24,0.24 0 0 0 -0.038,0.337 0.24,0.24 0 0 0 0.337,0.038 0.24,0.24 0 0 0 0.038,-0.337 0.24,0.24 0 0 0 -0.337,-0.038 z m -3.34,-14.62 a 0.24,0.24 0 0 0 0.287,-0.18 0.24,0.24 0 0 0 -0.181,-0.288 0.24,0.24 0 0 0 -0.287,0.181 0.24,0.24 0 0 0 0.181,0.287 z m -2.189,-0.746 a 0.24,0.24 0 0 0 -0.181,-0.287 0.24,0.24 0 0 0 -0.287,0.18 0.24,0.24 0 0 0 0.18,0.288 0.24,0.24 0 0 0 0.288,-0.181 z m 11.643,-11.449 a 0.24,0.24 0 0 0 0.32,0.113 0.24,0.24 0 0 0 0.113,-0.321 0.24,0.24 0 0 0 -0.321,-0.112 0.24,0.24 0 0 0 -0.112,0.32 z m -0.782,-2.176 a 0.24,0.24 0 0 0 0.113,-0.32 0.24,0.24 0 0 0 -0.321,-0.112 0.24,0.24 0 0 0 -0.112,0.32 0.24,0.24 0 0 0 0.32,0.112 z m 6.952,0.43 a 0.94,0.94 0 0 0 -0.94,-0.94 0.94,0.94 0 0 0 -0.94,0.94 0.94,0.94 0 0 0 0.94,0.94 0.94,0.94 0 0 0 0.94,-0.94 z m 4.011,0.821 a 0.94,0.94 0 0 0 1.278,-0.365 0.94,0.94 0 0 0 -0.365,-1.278 0.94,0.94 0 0 0 -1.278,0.365 0.94,0.94 0 0 0 0.365,1.278 z m 5.248,0.714 a 0.24,0.24 0 0 0 0.112,0.32 0.24,0.24 0 0 0 0.32,-0.112 0.24,0.24 0 0 0 -0.112,-0.32 0.24,0.24 0 0 0 -0.32,0.112 z m 1.214,-1.968 a 0.24,0.24 0 0 0 0.32,-0.112 0.24,0.24 0 0 0 -0.112,-0.32 0.24,0.24 0 0 0 -0.32,0.112 0.24,0.24 0 0 0 0.112,0.32 z m 8.571,13.899 a 0.24,0.24 0 0 0 -0.181,0.287 0.24,0.24 0 0 0 0.288,0.181 0.24,0.24 0 0 0 0.18,-0.287 0.24,0.24 0 0 0 -0.287,-0.181 z m 2.296,-0.278 a 0.24,0.24 0 0 0 0.287,0.181 0.24,0.24 0 0 0 0.181,-0.287 0.24,0.24 0 0 0 -0.288,-0.181 0.24,0.24 0 0 0 -0.18,0.287 z m -5.523,15.367 a 0.24,0.24 0 0 0 -0.337,0.038 0.24,0.24 0 0 0 0.038,0.337 0.24,0.24 0 0 0 0.337,-0.038 0.24,0.24 0 0 0 -0.038,-0.337 z m 1.648,1.622 a 0.24,0.24 0 0 0 0.039,0.337 0.24,0.24 0 0 0 0.337,-0.038 0.24,0.24 0 0 0 -0.038,-0.337 0.24,0.24 0 0 0 -0.338,0.038 z M 32.744,-4.72 a 0.24,0.24 0 0 0 -0.24,-0.24 0.24,0.24 0 0 0 -0.24,0.24 0.24,0.24 0 0 0 0.24,0.24 0.24,0.24 0 0 0 0.24,-0.24 z m -0.218,2.301 a 0.24,0.24 0 0 0 -0.261,0.216 0.24,0.24 0 0 0 0.216,0.262 0.24,0.24 0 0 0 0.262,-0.216 0.24,0.24 0 0 0 -0.217,-0.262 z M 32.5,0.06 A 22.56,22.56 0 0 1 9.94,-22.5 22.56,22.56 0 0 1 32.5,-45.06 22.56,22.56 0 0 1 55.06,-22.5 22.56,22.56 0 0 1 32.5,0.06 Z"
       stroke-width="0.1"
       stroke="#ff0000"
       fill="none"
       id="op_2D_Profile1-3-0" />
  </g>
</svg>
