<?xml version="1.0" encoding="UTF-8" standalone="no"?>
<svg
   width="80.300003mm"
   height="85.284737mm"
   viewBox="-10 -410 80.300004 85.284735"
   version="1.1"
   id="svg14"
   sodipodi:docname="CampLighter1.svg"
   inkscape:version="1.1.2 (b8e25be8, 2022-02-05)"
   xmlns:inkscape="http://www.inkscape.org/namespaces/inkscape"
   xmlns:sodipodi="http://sodipodi.sourceforge.net/DTD/sodipodi-0.dtd"
   xmlns="http://www.w3.org/2000/svg"
   xmlns:svg="http://www.w3.org/2000/svg">
  <defs
     id="defs18" />
  <sodipodi:namedview
     id="namedview16"
     pagecolor="#ffffff"
     bordercolor="#666666"
     borderopacity="1.0"
     inkscape:pageshadow="2"
     inkscape:pageopacity="0.0"
     inkscape:pagecheckerboard="0"
     inkscape:document-units="mm"
     showgrid="false"
     inkscape:zoom="0.69523688"
     inkscape:cx="-436.54186"
     inkscape:cy="63.287782"
     inkscape:window-width="2550"
     inkscape:window-height="1378"
     inkscape:window-x="1925"
     inkscape:window-y="29"
     inkscape:window-maximized="0"
     inkscape:current-layer="svg14"
     fit-margin-top="5"
     lock-margins="true"
     fit-margin-left="5"
     fit-margin-right="5"
     fit-margin-bottom="5" />
  <g
     id="Setup1"
     style="stroke-width:0.2;stroke-miterlimit:4;stroke-dasharray:none"
     transform="translate(-524.85,-329.86527)">
    <path
       id="op_2D_Profile3-5-0"
       fill="none"
       stroke="#ff0000"
       stroke-width="1"
       d="m 577.634,-30.492 a 0.25,0.25 0 0 0 0.348,0.061 0.25,0.25 0 0 0 0.061,-0.348 0.25,0.25 0 0 0 -0.348,-0.061 0.25,0.25 0 0 0 -0.061,0.348 z m -1.672,1.17 a 0.25,0.25 0 0 0 -0.348,-0.061 0.25,0.25 0 0 0 -0.061,0.348 0.25,0.25 0 0 0 0.348,0.061 0.25,0.25 0 0 0 0.061,-0.348 z m -7.265,-10.376 a 0.25,0.25 0 0 0 -0.348,-0.061 0.25,0.25 0 0 0 -0.061,0.348 0.25,0.25 0 0 0 0.348,0.061 0.25,0.25 0 0 0 0.061,-0.348 z m 1.671,-1.17 a 0.25,0.25 0 0 0 0.348,0.062 0.25,0.25 0 0 0 0.062,-0.349 0.25,0.25 0 0 0 -0.348,-0.061 0.25,0.25 0 0 0 -0.062,0.348 z m -7.265,-10.376 a 0.25,0.25 0 0 0 0.348,0.062 0.25,0.25 0 0 0 0.061,-0.349 0.25,0.25 0 0 0 -0.348,-0.061 0.25,0.25 0 0 0 -0.061,0.348 z m -1.671,1.17 a 0.25,0.25 0 0 0 -0.348,-0.061 0.25,0.25 0 0 0 -0.062,0.348 0.25,0.25 0 0 0 0.348,0.061 0.25,0.25 0 0 0 0.062,-0.348 z m -6.186,-9.694 a 0.25,0.25 0 0 0 -0.25,-0.25 0.25,0.25 0 0 0 -0.25,0.25 0.25,0.25 0 0 0 0.25,0.25 0.25,0.25 0 0 0 0.25,-0.25 z m 0,-2.54 a 0.25,0.25 0 0 0 -0.25,-0.25 0.25,0.25 0 0 0 -0.25,0.25 0.25,0.25 0 0 0 0.25,0.25 0.25,0.25 0 0 0 0.25,-0.25 z m -0.522,-4.254 a 1.45,1.45 0 0 0 1.699,-1.147 1.45,1.45 0 0 0 -1.147,-1.7 1.45,1.45 0 0 0 -1.699,1.148 1.45,1.45 0 0 0 1.147,1.699 z m -7.888,14.97 a 0.25,0.25 0 0 0 -0.348,0.061 0.25,0.25 0 0 0 0.061,0.349 0.25,0.25 0 0 0 0.348,-0.062 0.25,0.25 0 0 0 -0.061,-0.348 z m 1.732,1.518 a 0.25,0.25 0 0 0 0.062,0.348 0.25,0.25 0 0 0 0.348,-0.061 0.25,0.25 0 0 0 -0.062,-0.348 0.25,0.25 0 0 0 -0.348,0.061 z m -7.265,10.376 a 0.25,0.25 0 0 0 0.061,0.348 0.25,0.25 0 0 0 0.349,-0.061 0.25,0.25 0 0 0 -0.062,-0.348 0.25,0.25 0 0 0 -0.348,0.061 z m -1.671,-1.17 a 0.25,0.25 0 0 0 -0.062,-0.348 0.25,0.25 0 0 0 -0.348,0.061 0.25,0.25 0 0 0 0.062,0.349 0.25,0.25 0 0 0 0.348,-0.062 z m -7.266,10.376 a 0.25,0.25 0 0 0 -0.061,-0.348 0.25,0.25 0 0 0 -0.348,0.061 0.25,0.25 0 0 0 0.061,0.348 0.25,0.25 0 0 0 0.348,-0.061 z m 1.733,1.518 a 0.25,0.25 0 0 0 0.348,-0.061 0.25,0.25 0 0 0 -0.061,-0.348 0.25,0.25 0 0 0 -0.348,0.061 0.25,0.25 0 0 0 0.061,0.348 z M 534.25,-20 a 0.25,0.25 0 0 0 -0.25,-0.25 0.25,0.25 0 0 0 -0.25,0.25 0.25,0.25 0 0 0 0.25,0.25 0.25,0.25 0 0 0 0.25,-0.25 z m 11.5,0 a 0.25,0.25 0 0 0 0.25,0.25 0.25,0.25 0 0 0 0.25,-0.25 0.25,0.25 0 0 0 -0.25,-0.25 0.25,0.25 0 0 0 -0.25,0.25 z m 0,20.05 H 520 A 0.05,0.05 0 0 1 519.95,0 v -25 a 0.05,0.05 0 0 1 0.009,-0.029 l 35,-49.985 a 0.05,0.05 0 0 1 0.07,-0.012 0.05,0.05 0 0 1 0.012,0.012 l 35,49.985 A 0.05,0.05 0 0 1 590.05,-25 V 0 A 0.05,0.05 0 0 1 590,0.05 Z"
       style="stroke-width:0.2;stroke-miterlimit:4;stroke-dasharray:none" />
    <path
       id="op_2D_Profile4-6-1"
       fill="none"
       stroke="#00ff00"
       stroke-width="1"
       d="m 590,-24.95 h -25.95 v 4.9 m 25.95,0.1 h -25.95 v 4.9 m 25.95,0.1 h -25.95 v 4.9 m 25.95,0.1 h -25.95 v 4.9 m 25.95,0.1 h -70 m 25.95,-0.1 v -4.9 H 520 m 25.95,-0.1 v -4.9 H 520 m 25.95,-0.1 v -4.9 H 520 m 25.95,-0.1 v -4.9 H 520"
       style="stroke-width:0.2;stroke-miterlimit:4;stroke-dasharray:none" />
  </g>
</svg>
