<?xml version="1.0" encoding="UTF-8" standalone="no"?>
<!-- Created with Inkscape (http://www.inkscape.org/) -->

<svg
   xmlns:dc="http://purl.org/dc/elements/1.1/"
   xmlns:cc="http://creativecommons.org/ns#"
   xmlns:rdf="http://www.w3.org/1999/02/22-rdf-syntax-ns#"
   xmlns:svg="http://www.w3.org/2000/svg"
   xmlns="http://www.w3.org/2000/svg"
   xmlns:sodipodi="http://sodipodi.sourceforge.net/DTD/sodipodi-0.dtd"
   xmlns:inkscape="http://www.inkscape.org/namespaces/inkscape"
   width="158.75009mm"
   height="52.449409mm"
   viewBox="0 0 158.75009 52.449409"
   version="1.1"
   id="svg14973"
   inkscape:version="0.92.4 (5da689c313, 2019-01-14)"
   sodipodi:docname="14.svg">
  <defs
     id="defs14967" />
  <sodipodi:namedview
     id="base"
     pagecolor="#ffffff"
     bordercolor="#666666"
     borderopacity="1.0"
     inkscape:pageopacity="0.0"
     inkscape:pageshadow="2"
     inkscape:zoom="2.8"
     inkscape:cx="41.690891"
     inkscape:cy="80.570174"
     inkscape:document-units="mm"
     inkscape:current-layer="layer1"
     showgrid="false"
     inkscape:window-width="1920"
     inkscape:window-height="1027"
     inkscape:window-x="-8"
     inkscape:window-y="1072"
     inkscape:window-maximized="1" />
  <metadata
     id="metadata14970">
    <rdf:RDF>
      <cc:Work
         rdf:about="">
        <dc:format>image/svg+xml</dc:format>
        <dc:type
           rdf:resource="http://purl.org/dc/dcmitype/StillImage" />
        <dc:title />
      </cc:Work>
    </rdf:RDF>
  </metadata>
  <g
     inkscape:label="Vrstva 1"
     inkscape:groupmode="layer"
     id="layer1"
     transform="translate(15.41635,-184.57206)">
    <g
       transform="matrix(0.00562738,0,0,0.00562738,-49.574547,-61.400722)"
       id="g984"
       style="fill:#ff6e42;fill-opacity:0;stroke:#ff6e42;stroke-width:100;stroke-linecap:round;stroke-linejoin:round;stroke-opacity:1">
      <rect
         id="rect982"
         rx="0"
         height="800"
         width="2000"
         y="45600"
         x="20500" />
    </g>
    <g
       transform="matrix(0.00562738,0,0,0.00562738,-49.574547,-61.400722)"
       id="g990"
       style="fill:#ff6e42;fill-opacity:0;stroke:#ff6e42;stroke-width:60;stroke-linecap:round;stroke-linejoin:round;stroke-opacity:1">
      <path
         inkscape:connector-curvature="0"
         id="path986"
         d="m 22500,46000 h 500" />
      <path
         inkscape:connector-curvature="0"
         id="path988"
         d="m 20500,46000 h -500" />
    </g>
    <g
       transform="matrix(0.00562738,0,0,0.00562738,-49.574547,-61.400722)"
       id="g1010"
       style="fill:#ffffff;fill-opacity:0;stroke:#ffffff;stroke-width:60;stroke-linecap:round;stroke-linejoin:round;stroke-opacity:1">
      <text
         style="font-size:660px;text-anchor:middle;opacity:0"
         id="text992"
         lengthAdjust="spacingAndGlyphs"
         font-size="660"
         textLength="560"
         y="44270"
         x="21500">R</text>
      <path
         inkscape:connector-curvature="0"
         id="path994"
         d="m 21650,44240 -170,-240" />
      <path
         inkscape:connector-curvature="0"
         id="path996"
         d="m 21360,44240 v -500 h 190 l 50,30 30,20 20,50 v 70 l -20,50 -30,20 -50,20 h -190" />
      <text
         style="font-size:660px;text-anchor:middle;opacity:0"
         id="text998"
         lengthAdjust="spacingAndGlyphs"
         font-size="660"
         textLength="2060"
         y="45110"
         x="21500">180Ω</text>
      <path
         inkscape:connector-curvature="0"
         id="path1000"
         d="m 20880,45080 h -290" />
      <path
         inkscape:connector-curvature="0"
         id="path1002"
         d="m 20730,45080 v -500 l -40,70 -50,50 -50,20" />
      <path
         inkscape:connector-curvature="0"
         id="path1004"
         d="m 21160,44800 -50,-30 -20,-20 -20,-50 v -20 l 20,-50 20,-20 50,-30 h 100 l 40,30 30,20 20,50 v 20 l -20,50 -30,20 -40,30 h -100 l -50,20 -20,20 -20,50 v 100 l 20,40 20,30 50,20 h 100 l 40,-20 30,-30 20,-40 v -100 l -20,-50 -30,-20 -40,-20" />
      <path
         inkscape:connector-curvature="0"
         id="path1006"
         d="m 21660,44580 h 50 l 50,30 20,20 20,50 30,90 v 120 l -30,100 -20,40 -20,30 -50,20 h -50 l -50,-20 -20,-30 -20,-40 -30,-100 v -120 l 30,-90 20,-50 20,-20 50,-30" />
      <path
         inkscape:connector-curvature="0"
         id="path1008"
         d="m 22020,45080 h 120 v -90 l -50,-30 -50,-50 -20,-70 v -120 l 20,-70 50,-40 70,-30 h 100 l 70,30 50,40 20,70 v 120 l -20,70 -50,50 -50,30 v 90 h 120" />
    </g>
    <g
       transform="matrix(0.00562738,0,0,0.00562738,-49.574547,-61.400722)"
       id="g1020"
       style="fill:#ff6e42;fill-opacity:0;stroke:#ff6e42;stroke-width:100;stroke-linecap:round;stroke-linejoin:round;stroke-opacity:1">
      <circle
         id="circle1018"
         r="1000"
         cy="46000"
         cx="26000" />
    </g>
    <g
       transform="matrix(0.00562738,0,0,0.00562738,-49.574547,-61.400722)"
       id="g1042"
       style="fill:#ff6e42;fill-opacity:0;stroke:#ff6e42;stroke-width:60;stroke-linecap:round;stroke-linejoin:round;stroke-opacity:1">
      <text
         style="font-size:1330px;text-anchor:middle;opacity:0"
         id="text1022"
         lengthAdjust="spacingAndGlyphs"
         font-size="1330"
         textLength="920"
         y="46470"
         x="26000">A</text>
      <path
         inkscape:connector-curvature="0"
         id="path1024"
         d="m 25760,46130 h 470" />
      <path
         inkscape:connector-curvature="0"
         id="path1026"
         d="m 25660,46420 340,-1000 330,1000" />
      <path
         inkscape:connector-curvature="0"
         id="path1028"
         d="m 27250,47250 -500,-500"
         style="fill:none;fill-opacity:0;stroke:#ff6e42;stroke-width:60;stroke-linecap:round;stroke-linejoin:round;stroke-opacity:1" />
      <path
         inkscape:connector-curvature="0"
         id="path1030"
         d="m 25250,45250 -500,-500"
         style="fill:none;fill-opacity:0;stroke:#ff6e42;stroke-width:60;stroke-linecap:round;stroke-linejoin:round;stroke-opacity:1" />
      <path
         inkscape:connector-curvature="0"
         id="path1032"
         d="m 24750,45250 v -500 h 500"
         style="fill:none;fill-opacity:0;stroke:#ff6e42;stroke-width:60;stroke-linecap:round;stroke-linejoin:round;stroke-opacity:1" />
      <path
         inkscape:connector-curvature="0"
         id="path1034"
         d="m 24500,45900 v -200"
         style="fill:none;fill-opacity:0;stroke:#ff6e42;stroke-width:60;stroke-linecap:round;stroke-linejoin:round;stroke-opacity:1" />
      <path
         inkscape:connector-curvature="0"
         id="path1036"
         d="m 24400,45800 h 200"
         style="fill:none;fill-opacity:0;stroke:#ff6e42;stroke-width:60;stroke-linecap:round;stroke-linejoin:round;stroke-opacity:1" />
      <path
         inkscape:connector-curvature="0"
         id="path1038"
         d="m 27000,46000 h 1000" />
      <path
         inkscape:connector-curvature="0"
         id="path1040"
         d="M 25000,46000 H 24000" />
    </g>
    <g
       transform="matrix(0.00562738,0,0,0.00562738,-49.574547,-61.400722)"
       id="g1116"
       style="fill:#ff6e42;fill-opacity:0;stroke:#ff6e42;stroke-width:100;stroke-linecap:round;stroke-linejoin:round;stroke-opacity:1">
      <circle
         id="circle1114"
         r="1000"
         cy="49500"
         cx="33000" />
    </g>
    <g
       transform="matrix(0.00562738,0,0,0.00562738,-49.574547,-61.400722)"
       id="g1136"
       style="fill:#ff6e42;fill-opacity:0;stroke:#ff6e42;stroke-width:60;stroke-linecap:round;stroke-linejoin:round;stroke-opacity:1">
      <text
         style="font-size:1330px;text-anchor:middle;opacity:0"
         id="text1118"
         lengthAdjust="spacingAndGlyphs"
         font-size="1330"
         textLength="920"
         y="50030"
         x="33000">V</text>
      <path
         inkscape:connector-curvature="0"
         id="path1120"
         d="m 32660,48980 340,1000 330,-1000" />
      <path
         inkscape:connector-curvature="0"
         id="path1122"
         d="m 31750,50750 500,-500"
         style="fill:none;fill-opacity:0;stroke:#ff6e42;stroke-width:60;stroke-linecap:round;stroke-linejoin:round;stroke-opacity:1" />
      <path
         inkscape:connector-curvature="0"
         id="path1124"
         d="m 33750,48750 500,-500"
         style="fill:none;fill-opacity:0;stroke:#ff6e42;stroke-width:60;stroke-linecap:round;stroke-linejoin:round;stroke-opacity:1" />
      <path
         inkscape:connector-curvature="0"
         id="path1126"
         d="m 33750,48250 h 500 v 500"
         style="fill:none;fill-opacity:0;stroke:#ff6e42;stroke-width:60;stroke-linecap:round;stroke-linejoin:round;stroke-opacity:1" />
      <path
         inkscape:connector-curvature="0"
         id="path1128"
         d="m 33100,48000 h 200"
         style="fill:none;fill-opacity:0;stroke:#ff6e42;stroke-width:60;stroke-linecap:round;stroke-linejoin:round;stroke-opacity:1" />
      <path
         inkscape:connector-curvature="0"
         id="path1130"
         d="m 33200,47900 v 200"
         style="fill:none;fill-opacity:0;stroke:#ff6e42;stroke-width:60;stroke-linecap:round;stroke-linejoin:round;stroke-opacity:1" />
      <path
         inkscape:connector-curvature="0"
         id="path1132"
         d="m 33000,50500 v 1000" />
      <path
         inkscape:connector-curvature="0"
         id="path1134"
         d="M 33000,48500 V 47500" />
    </g>
    <g
       transform="matrix(0.00562738,0,0,0.00562738,-49.574547,-61.400722)"
       id="g3878"
       style="fill:#ff6e42;fill-opacity:1;stroke:#ff6e42;stroke-width:60;stroke-linecap:round;stroke-linejoin:round;stroke-opacity:1">
      <rect
         id="rect3874"
         rx="0"
         height="100"
         width="1800"
         y="49300"
         x="6100" />
      <rect
         id="rect3876"
         rx="0"
         height="200"
         width="1200"
         y="49530"
         x="6380" />
    </g>
    <g
       transform="matrix(0.00562738,0,0,0.00562738,-49.574547,-61.400722)"
       id="g3884"
       style="fill:#ff6e42;fill-opacity:0;stroke:#ff6e42;stroke-width:60;stroke-linecap:round;stroke-linejoin:round;stroke-opacity:1">
      <path
         inkscape:connector-curvature="0"
         id="path3880"
         d="m 7000,49700 v 300"
         style="fill:none;fill-opacity:0;stroke:#ff6e42;stroke-width:60;stroke-linecap:round;stroke-linejoin:round;stroke-opacity:1" />
      <path
         inkscape:connector-curvature="0"
         id="path3882"
         d="m 7000,49300 v -300"
         style="fill:none;fill-opacity:0;stroke:#ff6e42;stroke-width:60;stroke-linecap:round;stroke-linejoin:round;stroke-opacity:1" />
    </g>
    <g
       transform="matrix(0.00562738,0,0,0.00562738,-49.574547,-61.400722)"
       id="g3890"
       style="fill:#ff6e42;fill-opacity:0;stroke:#ff6e42;stroke-width:100;stroke-linecap:round;stroke-linejoin:round;stroke-opacity:1">
      <path
         inkscape:connector-curvature="0"
         id="path3886"
         d="m 7200,48650 h 400"
         style="fill:none;fill-opacity:0;stroke:#ff6e42;stroke-width:100;stroke-linecap:round;stroke-linejoin:round;stroke-opacity:1" />
      <path
         inkscape:connector-curvature="0"
         id="path3888"
         d="m 7400,48450 v 400"
         style="fill:none;fill-opacity:0;stroke:#ff6e42;stroke-width:100;stroke-linecap:round;stroke-linejoin:round;stroke-opacity:1" />
    </g>
    <g
       transform="matrix(0.00562738,0,0,0.00562738,-49.574547,-61.400722)"
       id="g3896"
       style="fill:#ff6e42;fill-opacity:0;stroke:#ff6e42;stroke-width:60;stroke-linecap:round;stroke-linejoin:round;stroke-opacity:1">
      <path
         inkscape:connector-curvature="0"
         id="path3892"
         d="M 7000,49000 V 48000" />
      <path
         inkscape:connector-curvature="0"
         id="path3894"
         d="m 7000,50000 v 1000" />
    </g>
    <g
       transform="matrix(0.00562738,0,0,0.00562738,-49.574547,-61.400722)"
       id="g4436"
       style="fill:#ff6e42;fill-opacity:0;stroke:#ff6e42;stroke-width:60;stroke-linecap:round;stroke-linejoin:round;stroke-opacity:1">
      <circle
         id="circle4406"
         r="200"
         cy="47000"
         cx="11200" />
      <circle
         id="circle4408"
         r="200"
         cy="48000"
         cx="12800" />
      <circle
         id="circle4410"
         r="200"
         cy="46000"
         cx="12800" />
      <path
         inkscape:connector-curvature="0"
         id="path4412"
         d="m 12000,46600 v -800"
         style="fill:none;fill-opacity:0;stroke:#ff6e42;stroke-width:60;stroke-linecap:round;stroke-linejoin:round;stroke-opacity:1" />
      <path
         inkscape:connector-curvature="0"
         id="path4414"
         d="m 11400,46900 1600,-700"
         style="fill:none;fill-opacity:0;stroke:#ff6e42;stroke-width:60;stroke-linecap:round;stroke-linejoin:round;stroke-opacity:1" />
      <path
         inkscape:connector-curvature="0"
         id="path4416"
         d="m 13000,46000 h 1000" />
      <text
         style="font-size:660px;text-anchor:middle;opacity:0"
         id="text4418"
         lengthAdjust="spacingAndGlyphs"
         font-size="660"
         textLength="540"
         y="46600"
         x="13500">1</text>
      <path
         inkscape:connector-curvature="0"
         id="path4420"
         d="m 13640,46570 h -290" />
      <path
         inkscape:connector-curvature="0"
         id="path4422"
         d="m 13500,46570 v -500 l -50,70 -50,50 -50,20" />
      <path
         inkscape:connector-curvature="0"
         id="path4424"
         d="M 11000,47000 H 10000" />
      <text
         style="font-size:660px;text-anchor:middle;opacity:0"
         id="text4426"
         lengthAdjust="spacingAndGlyphs"
         font-size="660"
         textLength="540"
         y="47600"
         x="10500">2</text>
      <path
         inkscape:connector-curvature="0"
         id="path4428"
         d="m 10350,47120 30,-20 40,-30 h 120 l 50,30 20,20 30,50 v 40 l -30,80 -280,280 h 310" />
      <path
         inkscape:connector-curvature="0"
         id="path4430"
         d="m 13000,48000 h 1000" />
      <text
         style="font-size:660px;text-anchor:middle;opacity:0"
         id="text4432"
         lengthAdjust="spacingAndGlyphs"
         font-size="660"
         textLength="540"
         y="48600"
         x="13500">3</text>
      <path
         inkscape:connector-curvature="0"
         id="path4434"
         d="m 13330,48070 h 310 l -170,190 h 70 l 50,30 20,20 30,50 v 120 l -30,40 -20,30 -50,20 h -140 l -50,-20 -20,-30" />
    </g>
    <g
       transform="matrix(0.00562738,0,0,0.00562738,-49.574547,-61.400722)"
       id="g5470"
       style="fill:#ff6e42;fill-opacity:0;stroke:#ff6e42;stroke-width:100;stroke-linecap:round;stroke-linejoin:round;stroke-opacity:1">
      <rect
         id="rect5468"
         rx="0"
         height="800"
         width="2000"
         y="45600"
         x="15500" />
    </g>
    <g
       transform="matrix(0.00562738,0,0,0.00562738,-49.574547,-61.400722)"
       id="g5476"
       style="fill:#ff6e42;fill-opacity:0;stroke:#ff6e42;stroke-width:60;stroke-linecap:round;stroke-linejoin:round;stroke-opacity:1">
      <path
         inkscape:connector-curvature="0"
         id="path5472"
         d="m 17500,46000 h 500" />
      <path
         inkscape:connector-curvature="0"
         id="path5474"
         d="m 15500,46000 h -500" />
    </g>
    <g
       transform="matrix(0.00562738,0,0,0.00562738,-49.574547,-61.400722)"
       id="g5494"
       style="fill:#ffffff;fill-opacity:0;stroke:#ffffff;stroke-width:60;stroke-linecap:round;stroke-linejoin:round;stroke-opacity:1">
      <text
         style="font-size:660px;text-anchor:middle;opacity:0"
         id="text5478"
         lengthAdjust="spacingAndGlyphs"
         font-size="660"
         textLength="560"
         y="44270"
         x="16500">R</text>
      <path
         inkscape:connector-curvature="0"
         id="path5480"
         d="m 16650,44240 -170,-240" />
      <path
         inkscape:connector-curvature="0"
         id="path5482"
         d="m 16360,44240 v -500 h 190 l 50,30 30,20 20,50 v 70 l -20,50 -30,20 -50,20 h -190" />
      <text
         style="font-size:660px;text-anchor:middle;opacity:0"
         id="text5484"
         lengthAdjust="spacingAndGlyphs"
         font-size="660"
         textLength="2060"
         y="45110"
         x="16500">560Ω</text>
      <path
         inkscape:connector-curvature="0"
         id="path5486"
         d="m 15850,44580 h -240 l -20,240 20,-20 50,-30 h 120 l 50,30 20,20 30,50 v 120 l -30,40 -20,30 -50,20 h -120 l -50,-20 -20,-30" />
      <path
         inkscape:connector-curvature="0"
         id="path5488"
         d="m 16300,44580 h -90 l -50,30 -20,20 -50,70 -20,100 v 190 l 20,40 20,30 50,20 h 100 l 40,-20 30,-30 20,-40 v -120 l -20,-50 -30,-20 -40,-30 h -100 l -50,30 -20,20 -20,50" />
      <path
         inkscape:connector-curvature="0"
         id="path5490"
         d="m 16660,44580 h 50 l 50,30 20,20 20,50 30,90 v 120 l -30,100 -20,40 -20,30 -50,20 h -50 l -50,-20 -20,-30 -20,-40 -30,-100 v -120 l 30,-90 20,-50 20,-20 50,-30" />
      <path
         inkscape:connector-curvature="0"
         id="path5492"
         d="m 17020,45080 h 120 v -90 l -50,-30 -50,-50 -20,-70 v -120 l 20,-70 50,-40 70,-30 h 100 l 70,30 50,40 20,70 v 120 l -20,70 -50,50 -50,30 v 90 h 120" />
    </g>
    <g
       transform="matrix(0.00562738,0,0,0.00562738,-49.574547,-61.400722)"
       id="g5504"
       style="fill:#ff6e42;fill-opacity:0;stroke:#ff6e42;stroke-width:100;stroke-linecap:round;stroke-linejoin:round;stroke-opacity:1">
      <path
         inkscape:connector-curvature="0"
         id="path5502"
         d="M 29500,50000 H 28500"
         style="fill:none;fill-opacity:0;stroke:#ff6e42;stroke-width:100;stroke-linecap:round;stroke-linejoin:round;stroke-opacity:1" />
    </g>
    <g
       transform="matrix(0.00562738,0,0,0.00562738,-49.574547,-61.400722)"
       id="g5508"
       style="fill:#ff6e42;fill-opacity:0;stroke:#ff6e42;stroke-width:60;stroke-linecap:round;stroke-linejoin:round;stroke-opacity:1">
      <path
         inkscape:connector-curvature="0"
         id="path5506"
         d="M 29000,50000 V 49000"
         style="fill:none;fill-opacity:0;stroke:#ff6e42;stroke-width:60;stroke-linecap:round;stroke-linejoin:round;stroke-opacity:1" />
    </g>
    <g
       transform="matrix(0.00562738,0,0,0.00562738,-49.574547,-61.400722)"
       id="g5512"
       style="fill:#ff6e42;fill-opacity:0;stroke:#ff6e42;stroke-width:100;stroke-linecap:round;stroke-linejoin:round;stroke-opacity:1">
      <path
         inkscape:connector-curvature="0"
         id="path5510"
         d="m 29500,49000 h -1000 l 500,1000 z"
         style="fill:none;fill-opacity:0;stroke:#ff6e42;stroke-width:100;stroke-linecap:round;stroke-linejoin:round;stroke-opacity:1" />
    </g>
    <g
       transform="matrix(0.00562738,0,0,0.00562738,-49.574547,-61.400722)"
       id="g5522"
       style="fill:#ff6e42;fill-opacity:0;stroke:#ff6e42;stroke-width:60;stroke-linecap:round;stroke-linejoin:round;stroke-opacity:1">
      <path
         inkscape:connector-curvature="0"
         id="path5514"
         d="m 29300,50700 600,600 v -300 300 h -300"
         style="fill:none;fill-opacity:0;stroke:#ff6e42;stroke-width:60;stroke-linecap:round;stroke-linejoin:round;stroke-opacity:1" />
      <path
         inkscape:connector-curvature="0"
         id="path5516"
         d="m 29300,50200 600,600 v -300 300 h -300"
         style="fill:none;fill-opacity:0;stroke:#ff6e42;stroke-width:60;stroke-linecap:round;stroke-linejoin:round;stroke-opacity:1" />
      <path
         inkscape:connector-curvature="0"
         id="path5518"
         d="m 29000,50000 v 1000" />
      <path
         inkscape:connector-curvature="0"
         id="path5520"
         d="M 29000,49000 V 48000" />
    </g>
    <text
       transform="matrix(0.00562738,0,0,0.00562738,-49.574547,-61.400722)"
       x="30890"
       y="50240"
       textLength="1420"
       font-size="660"
       lengthAdjust="spacingAndGlyphs"
       id="text5532"
       style="font-size:660px;text-anchor:middle;opacity:0;fill:#ffffff;fill-opacity:0;stroke:#ffffff;stroke-width:60;stroke-linecap:round;stroke-linejoin:round;stroke-opacity:1">LED</text>
    <path
       style="fill:#ffffff;fill-opacity:0;stroke:#ffffff;stroke-width:0.33764258;stroke-linecap:round;stroke-linejoin:round;stroke-opacity:1"
       d="m 122.39808,221.14986 h -1.29429 v -2.81369"
       id="path5534"
       inkscape:connector-curvature="0" />
    <path
       style="fill:#ffffff;fill-opacity:0;stroke:#ffffff;stroke-width:0.33764258;stroke-linecap:round;stroke-linejoin:round;stroke-opacity:1"
       d="m 123.35474,219.68674 h 0.95665"
       id="path5536"
       inkscape:connector-curvature="0" />
    <path
       style="fill:#ffffff;fill-opacity:0;stroke:#ffffff;stroke-width:0.33764258;stroke-linecap:round;stroke-linejoin:round;stroke-opacity:1"
       d="m 124.70531,221.14986 h -1.35057 v -2.81369 h 1.35057"
       id="path5538"
       inkscape:connector-curvature="0" />
    <path
       style="fill:#ffffff;fill-opacity:0;stroke:#ffffff;stroke-width:0.33764258;stroke-linecap:round;stroke-linejoin:round;stroke-opacity:1"
       d="m 125.88706,221.14986 v -2.81369 h 0.67528 l 0.39392,0.16882 0.28137,0.2251 0.11254,0.28137 0.16883,0.56273 v 0.39392 l -0.16883,0.50646 -0.11254,0.28137 -0.28137,0.28137 -0.39392,0.11255 h -0.67528"
       id="path5540"
       inkscape:connector-curvature="0" />
    <path
       style="fill:#ff6e41;fill-opacity:0;stroke:#ff6e41;stroke-width:0.33764258;stroke-linecap:round;stroke-linejoin:round;stroke-opacity:1"
       inkscape:connector-curvature="0"
       id="path5772"
       d="m 107.992,197.4586 h 5.62738" />
    <path
       style="fill:#ff6e41;fill-opacity:0;stroke:#ff6e41;stroke-width:0.33764258;stroke-linecap:round;stroke-linejoin:round;stroke-opacity:1"
       inkscape:connector-curvature="0"
       id="path5774"
       d="m 113.61938,203.08598 v 5.62738" />
    <path
       style="fill:#ff6e41;fill-opacity:0;stroke:#ff6e41;stroke-width:0.33764258;stroke-linecap:round;stroke-linejoin:round;stroke-opacity:1"
       inkscape:connector-curvature="0"
       id="path5776"
       d="m 136.12888,203.08598 v 2.81369" />
    <path
       style="fill:#ff6e41;fill-opacity:0;stroke:#ff6e41;stroke-width:0.33764258;stroke-linecap:round;stroke-linejoin:round;stroke-opacity:1"
       inkscape:connector-curvature="0"
       id="path5778"
       d="m 113.61938,203.08598 h 22.5095" />
    <path
       style="fill:#ff6e41;fill-opacity:0;stroke:#ff6e41;stroke-width:0.33764258;stroke-linecap:round;stroke-linejoin:round;stroke-opacity:1"
       inkscape:connector-curvature="0"
       id="path5780"
       d="m 113.61938,231.22286 v -5.62737" />
    <path
       style="fill:#ff6e41;fill-opacity:0;stroke:#ff6e41;stroke-width:0.33764258;stroke-linecap:round;stroke-linejoin:round;stroke-opacity:1"
       inkscape:connector-curvature="0"
       id="path5782"
       d="m 136.12888,231.22286 v -2.81369" />
    <path
       style="fill:#ff6e41;fill-opacity:0;stroke:#ff6e41;stroke-width:0.33764258;stroke-linecap:round;stroke-linejoin:round;stroke-opacity:1"
       inkscape:connector-curvature="0"
       id="path5784"
       d="m 113.61938,231.22286 h 22.5095" />
    <path
       style="fill:#ff6e41;fill-opacity:0;stroke:#ff6e41;stroke-width:0.33764258;stroke-linecap:round;stroke-linejoin:round;stroke-opacity:1"
       inkscape:connector-curvature="0"
       id="path5786"
       d="M -10.182911,236.85024 H 113.61938" />
    <path
       style="fill:#ff6e41;fill-opacity:0;stroke:#ff6e41;stroke-width:0.33764258;stroke-linecap:round;stroke-linejoin:round;stroke-opacity:1"
       inkscape:connector-curvature="0"
       id="path5788"
       d="m 113.61938,236.85024 v -5.62738" />
    <path
       style="fill:#ff6e41;fill-opacity:0;stroke:#ff6e41;stroke-width:0.33764258;stroke-linecap:round;stroke-linejoin:round;stroke-opacity:1"
       inkscape:connector-curvature="0"
       id="path5790"
       d="m 113.61938,197.4586 v 5.62738" />
    <path
       style="fill:#ff6e41;fill-opacity:0;stroke:#ff6e41;stroke-width:0.33764258;stroke-linecap:round;stroke-linejoin:round;stroke-opacity:1"
       inkscape:connector-curvature="0"
       id="path5794"
       d="m -10.182911,225.59549 v 11.25475" />
    <path
       style="fill:#ff6e41;fill-opacity:0;stroke:#ff6e41;stroke-width:0.33764258;stroke-linecap:round;stroke-linejoin:round;stroke-opacity:1"
       inkscape:connector-curvature="0"
       id="path5796"
       d="m 79.855115,197.4586 h 5.627377" />
    <path
       style="fill:#ff6e41;fill-opacity:0;stroke:#ff6e41;stroke-width:0.33764258;stroke-linecap:round;stroke-linejoin:round;stroke-opacity:1"
       inkscape:connector-curvature="0"
       id="path5798"
       d="m 57.345609,197.4586 h 5.627377" />
    <path
       style="fill:#ff6e41;fill-opacity:0;stroke:#ff6e41;stroke-width:0.33764258;stroke-linecap:round;stroke-linejoin:round;stroke-opacity:1"
       inkscape:connector-curvature="0"
       id="path5800"
       d="M 57.345609,197.4586 H 51.718232" />
    <path
       style="fill:#ff6e41;fill-opacity:0;stroke:#ff6e41;stroke-width:0.33764258;stroke-linecap:round;stroke-linejoin:round;stroke-opacity:1"
       inkscape:connector-curvature="0"
       id="path5802"
       d="M 57.345609,208.71336 V 197.4586" />
    <path
       style="fill:#ff6e41;fill-opacity:0;stroke:#ff6e41;stroke-width:0.33764258;stroke-linecap:round;stroke-linejoin:round;stroke-opacity:1"
       inkscape:connector-curvature="0"
       id="path5804"
       d="M 29.208727,208.71336 H 57.345609" />
    <path
       style="fill:#ff6e41;fill-opacity:0;stroke:#ff6e41;stroke-width:0.33764258;stroke-linecap:round;stroke-linejoin:round;stroke-opacity:1"
       inkscape:connector-curvature="0"
       id="path5806"
       d="m 29.208727,197.4586 h 5.627376" />
    <path
       style="fill:#ff6e41;fill-opacity:0;stroke:#ff6e41;stroke-width:0.33764258;stroke-linecap:round;stroke-linejoin:round;stroke-opacity:1"
       inkscape:connector-curvature="0"
       id="path5808"
       d="M -10.182911,203.08598 H 6.6992203" />
    <path
       style="fill:#ff6e41;fill-opacity:0;stroke:#ff6e41;stroke-width:0.33764258;stroke-linecap:round;stroke-linejoin:round;stroke-opacity:1"
       inkscape:connector-curvature="0"
       id="path5828"
       d="m -10.182911,208.71336 v -5.62738" />
    <circle
       style="fill:#ff6e41;fill-opacity:1;stroke:#ff6e41;stroke-width:0.5627377;stroke-linecap:round;stroke-linejoin:round;stroke-opacity:1"
       id="circle6078"
       r="1.1254754"
       cy="197.45862"
       cx="57.345612" />
    <circle
       style="fill:#ff6e41;fill-opacity:1;stroke:#ff6e41;stroke-width:0.5627377;stroke-linecap:round;stroke-linejoin:round;stroke-opacity:1"
       id="circle6090"
       r="1.1254754"
       cy="203.08597"
       cx="113.61938" />
    <circle
       style="fill:#ff6e41;fill-opacity:1;stroke:#ff6e41;stroke-width:0.5627377;stroke-linecap:round;stroke-linejoin:round;stroke-opacity:1"
       id="circle6180"
       r="1.1254754"
       cy="231.22285"
       cx="113.61938" />
  </g>
</svg>
