<?xml version="1.0" encoding="UTF-8" standalone="no"?>
<!-- Created with Inkscape (http://www.inkscape.org/) -->

<svg
   xmlns:dc="http://purl.org/dc/elements/1.1/"
   xmlns:cc="http://creativecommons.org/ns#"
   xmlns:rdf="http://www.w3.org/1999/02/22-rdf-syntax-ns#"
   xmlns:svg="http://www.w3.org/2000/svg"
   xmlns="http://www.w3.org/2000/svg"
   xmlns:sodipodi="http://sodipodi.sourceforge.net/DTD/sodipodi-0.dtd"
   xmlns:inkscape="http://www.inkscape.org/namespaces/inkscape"
   width="158.74994mm"
   height="77.884155mm"
   viewBox="0 0 158.74994 77.884156"
   version="1.1"
   id="svg15869"
   inkscape:version="0.92.4 (5da689c313, 2019-01-14)"
   sodipodi:docname="15.svg">
  <defs
     id="defs15863" />
  <sodipodi:namedview
     id="base"
     pagecolor="#ffffff"
     bordercolor="#666666"
     borderopacity="1.0"
     inkscape:pageopacity="0.0"
     inkscape:pageshadow="2"
     inkscape:zoom="1.979899"
     inkscape:cx="25.687191"
     inkscape:cy="205.71725"
     inkscape:document-units="mm"
     inkscape:current-layer="layer1"
     showgrid="false"
     inkscape:window-width="1920"
     inkscape:window-height="1027"
     inkscape:window-x="-8"
     inkscape:window-y="1072"
     inkscape:window-maximized="1" />
  <metadata
     id="metadata15866">
    <rdf:RDF>
      <cc:Work
         rdf:about="">
        <dc:format>image/svg+xml</dc:format>
        <dc:type
           rdf:resource="http://purl.org/dc/dcmitype/StillImage" />
        <dc:title />
      </cc:Work>
    </rdf:RDF>
  </metadata>
  <g
     inkscape:label="Vrstva 1"
     inkscape:groupmode="layer"
     id="layer1"
     transform="translate(141.8381,-321.54612)">
    <g
       transform="matrix(0.00793081,0,0,0.00793081,-193.94352,-120.27931)"
       id="g1200"
       style="fill:#ff6e42;fill-opacity:1;stroke:#ff6e42;stroke-width:60;stroke-linecap:round;stroke-linejoin:round;stroke-opacity:1">
      <rect
         id="rect1196"
         rx="0"
         height="100"
         width="1800"
         y="62800"
         x="6600" />
      <rect
         id="rect1198"
         rx="0"
         height="200"
         width="1200"
         y="63030"
         x="6880" />
    </g>
    <g
       transform="matrix(0.00793081,0,0,0.00793081,-193.94352,-120.27931)"
       id="g1206"
       style="fill:#ff6e42;fill-opacity:0;stroke:#ff6e42;stroke-width:60;stroke-linecap:round;stroke-linejoin:round;stroke-opacity:1">
      <path
         inkscape:connector-curvature="0"
         id="path1202"
         d="m 7500,63200 v 300"
         style="fill:none;fill-opacity:0;stroke:#ff6e42;stroke-width:60;stroke-linecap:round;stroke-linejoin:round;stroke-opacity:1" />
      <path
         inkscape:connector-curvature="0"
         id="path1204"
         d="m 7500,62800 v -300"
         style="fill:none;fill-opacity:0;stroke:#ff6e42;stroke-width:60;stroke-linecap:round;stroke-linejoin:round;stroke-opacity:1" />
    </g>
    <g
       transform="matrix(0.00793081,0,0,0.00793081,-193.94352,-120.27931)"
       id="g1212"
       style="fill:#ff6e42;fill-opacity:0;stroke:#ff6e42;stroke-width:100;stroke-linecap:round;stroke-linejoin:round;stroke-opacity:1">
      <path
         inkscape:connector-curvature="0"
         id="path1208"
         d="m 7700,62150 h 400"
         style="fill:none;fill-opacity:0;stroke:#ff6e42;stroke-width:100;stroke-linecap:round;stroke-linejoin:round;stroke-opacity:1" />
      <path
         inkscape:connector-curvature="0"
         id="path1210"
         d="m 7900,61950 v 400"
         style="fill:none;fill-opacity:0;stroke:#ff6e42;stroke-width:100;stroke-linecap:round;stroke-linejoin:round;stroke-opacity:1" />
    </g>
    <g
       transform="matrix(0.00793081,0,0,0.00793081,-193.94352,-120.27931)"
       id="g1218"
       style="fill:#ff6e42;fill-opacity:0;stroke:#ff6e42;stroke-width:60;stroke-linecap:round;stroke-linejoin:round;stroke-opacity:1">
      <path
         inkscape:connector-curvature="0"
         id="path1214"
         d="M 7500,62500 V 61500" />
      <path
         inkscape:connector-curvature="0"
         id="path1216"
         d="m 7500,63500 v 1000" />
    </g>
    <g
       transform="matrix(0.00793081,0,0,0.00793081,-193.94352,-120.27931)"
       id="g1288"
       style="fill:#ff6e42;fill-opacity:0;stroke:#ff6e42;stroke-width:60;stroke-linecap:round;stroke-linejoin:round;stroke-opacity:1">
      <circle
         id="circle1276"
         r="200"
         cy="58000"
         cx="14200" />
      <circle
         id="circle1278"
         r="200"
         cy="58000"
         cx="15800" />
      <path
         inkscape:connector-curvature="0"
         id="path1280"
         d="m 15000,57500 v -700"
         style="fill:none;fill-opacity:0;stroke:#ff6e42;stroke-width:60;stroke-linecap:round;stroke-linejoin:round;stroke-opacity:1" />
      <path
         inkscape:connector-curvature="0"
         id="path1282"
         d="M 16000,57500 H 14000"
         style="fill:none;fill-opacity:0;stroke:#ff6e42;stroke-width:60;stroke-linecap:round;stroke-linejoin:round;stroke-opacity:1" />
      <path
         inkscape:connector-curvature="0"
         id="path1284"
         d="M 14000,58000 H 13000" />
      <path
         inkscape:connector-curvature="0"
         id="path1286"
         d="m 16000,58000 h 1000" />
    </g>
    <g
       transform="matrix(0.00793081,0,0,0.00793081,-193.94352,-120.27931)"
       id="g1330"
       style="fill:#ff6e42;fill-opacity:0;stroke:#ff6e42;stroke-width:100;stroke-linecap:round;stroke-linejoin:round;stroke-opacity:1">
      <rect
         id="rect1328"
         rx="0"
         height="800"
         width="2000"
         y="57600"
         x="19000" />
    </g>
    <g
       transform="matrix(0.00793081,0,0,0.00793081,-193.94352,-120.27931)"
       id="g1336"
       style="fill:#ff6e42;fill-opacity:0;stroke:#ff6e42;stroke-width:60;stroke-linecap:round;stroke-linejoin:round;stroke-opacity:1">
      <path
         inkscape:connector-curvature="0"
         id="path1332"
         d="m 21000,58000 h 500" />
      <path
         inkscape:connector-curvature="0"
         id="path1334"
         d="m 19000,58000 h -500" />
    </g>
    <g
       transform="matrix(0.00793081,0,0,0.00793081,-193.94352,-120.27931)"
       id="g1360"
       style="fill:#ffffff;fill-opacity:0;stroke:#ffffff;stroke-width:60;stroke-linecap:round;stroke-linejoin:round;stroke-opacity:1">
      <text
         style="font-size:660px;text-anchor:middle;opacity:0"
         id="text1338"
         lengthAdjust="spacingAndGlyphs"
         font-size="660"
         textLength="560"
         y="56270"
         x="20000">R</text>
      <path
         inkscape:connector-curvature="0"
         id="path1340"
         d="m 20150,56240 -170,-240" />
      <path
         inkscape:connector-curvature="0"
         id="path1342"
         d="m 19860,56240 v -500 h 190 l 50,30 30,20 20,50 v 70 l -20,50 -30,20 -50,20 h -190" />
      <text
         style="font-size:660px;text-anchor:middle;opacity:0"
         id="text1344"
         lengthAdjust="spacingAndGlyphs"
         font-size="660"
         textLength="2230"
         y="57110"
         x="20000">8.2kΩ</text>
      <path
         inkscape:connector-curvature="0"
         id="path1346"
         d="m 19100,56800 -50,-30 -20,-20 -20,-50 v -20 l 20,-50 20,-20 50,-30 h 100 l 50,30 20,20 20,50 v 20 l -20,50 -20,20 -50,30 h -100 l -50,20 -20,20 -20,50 v 100 l 20,40 20,30 50,20 h 100 l 50,-20 20,-30 20,-40 v -100 l -20,-50 -20,-20 -50,-20" />
      <path
         inkscape:connector-curvature="0"
         id="path1348"
         d="m 19510,57030 20,30 -20,20 -30,-20 30,-30 v 50" />
      <path
         inkscape:connector-curvature="0"
         id="path1350"
         d="m 19720,56630 30,-20 40,-30 h 120 l 50,30 20,20 30,50 v 40 l -30,80 -280,280 h 310" />
      <path
         inkscape:connector-curvature="0"
         id="path1352"
         d="m 20220,57080 v -500" />
      <path
         inkscape:connector-curvature="0"
         id="path1354"
         d="m 20270,56890 140,190" />
      <path
         inkscape:connector-curvature="0"
         id="path1356"
         d="m 20410,56750 -190,190" />
      <path
         inkscape:connector-curvature="0"
         id="path1358"
         d="m 20600,57080 h 120 v -90 l -50,-30 -40,-50 -30,-70 v -120 l 30,-70 40,-40 80,-30 h 90 l 70,30 50,40 20,70 v 120 l -20,70 -50,50 -50,30 v 90 h 120" />
    </g>
    <g
       transform="matrix(0.00793081,0,0,0.00793081,-193.94352,-120.27931)"
       id="g1370"
       style="fill:#ff6e42;fill-opacity:0;stroke:#ff6e42;stroke-width:100;stroke-linecap:round;stroke-linejoin:round;stroke-opacity:1">
      <rect
         id="rect1368"
         rx="0"
         height="800"
         width="2000"
         y="61100"
         x="19000" />
    </g>
    <g
       transform="matrix(0.00793081,0,0,0.00793081,-193.94352,-120.27931)"
       id="g1376"
       style="fill:#ff6e42;fill-opacity:0;stroke:#ff6e42;stroke-width:60;stroke-linecap:round;stroke-linejoin:round;stroke-opacity:1">
      <path
         inkscape:connector-curvature="0"
         id="path1372"
         d="m 21000,61500 h 500" />
      <path
         inkscape:connector-curvature="0"
         id="path1374"
         d="m 19000,61500 h -500" />
    </g>
    <g
       transform="matrix(0.00793081,0,0,0.00793081,-193.94352,-120.27931)"
       id="g1400"
       style="fill:#ffffff;fill-opacity:0;stroke:#ffffff;stroke-width:60;stroke-linecap:round;stroke-linejoin:round;stroke-opacity:1">
      <text
         style="font-size:660px;text-anchor:middle;opacity:0"
         id="text1378"
         lengthAdjust="spacingAndGlyphs"
         font-size="660"
         textLength="560"
         y="59770"
         x="20000">R</text>
      <path
         inkscape:connector-curvature="0"
         id="path1380"
         d="m 20150,59740 -170,-240" />
      <path
         inkscape:connector-curvature="0"
         id="path1382"
         d="m 19860,59740 v -500 h 190 l 50,30 30,20 20,50 v 70 l -20,50 -30,20 -50,20 h -190" />
      <text
         style="font-size:660px;text-anchor:middle;opacity:0"
         id="text1384"
         lengthAdjust="spacingAndGlyphs"
         font-size="660"
         textLength="2230"
         y="60610"
         x="20000">8.2kΩ</text>
      <path
         inkscape:connector-curvature="0"
         id="path1386"
         d="m 19100,60300 -50,-30 -20,-20 -20,-50 v -20 l 20,-50 20,-20 50,-30 h 100 l 50,30 20,20 20,50 v 20 l -20,50 -20,20 -50,30 h -100 l -50,20 -20,20 -20,50 v 100 l 20,40 20,30 50,20 h 100 l 50,-20 20,-30 20,-40 v -100 l -20,-50 -20,-20 -50,-20" />
      <path
         inkscape:connector-curvature="0"
         id="path1388"
         d="m 19510,60530 20,30 -20,20 -30,-20 30,-30 v 50" />
      <path
         inkscape:connector-curvature="0"
         id="path1390"
         d="m 19720,60130 30,-20 40,-30 h 120 l 50,30 20,20 30,50 v 40 l -30,80 -280,280 h 310" />
      <path
         inkscape:connector-curvature="0"
         id="path1392"
         d="m 20220,60580 v -500" />
      <path
         inkscape:connector-curvature="0"
         id="path1394"
         d="m 20270,60390 140,190" />
      <path
         inkscape:connector-curvature="0"
         id="path1396"
         d="m 20410,60250 -190,190" />
      <path
         inkscape:connector-curvature="0"
         id="path1398"
         d="m 20600,60580 h 120 v -90 l -50,-30 -40,-50 -30,-70 v -120 l 30,-70 40,-40 80,-30 h 90 l 70,30 50,40 20,70 v 120 l -20,70 -50,50 -50,30 v 90 h 120" />
    </g>
    <g
       transform="matrix(0.00793081,0,0,0.00793081,-193.94352,-120.27931)"
       id="g1410"
       style="fill:#ff6e42;fill-opacity:0;stroke:#ff6e42;stroke-width:100;stroke-linecap:round;stroke-linejoin:round;stroke-opacity:1">
      <path
         inkscape:connector-curvature="0"
         id="path1408"
         d="M 24500,63500 H 23500"
         style="fill:none;fill-opacity:0;stroke:#ff6e42;stroke-width:100;stroke-linecap:round;stroke-linejoin:round;stroke-opacity:1" />
    </g>
    <g
       transform="matrix(0.00793081,0,0,0.00793081,-193.94352,-120.27931)"
       id="g1414"
       style="fill:#ff6e42;fill-opacity:0;stroke:#ff6e42;stroke-width:60;stroke-linecap:round;stroke-linejoin:round;stroke-opacity:1">
      <path
         inkscape:connector-curvature="0"
         id="path1412"
         d="M 24000,63500 V 62500"
         style="fill:none;fill-opacity:0;stroke:#ff6e42;stroke-width:60;stroke-linecap:round;stroke-linejoin:round;stroke-opacity:1" />
    </g>
    <g
       transform="matrix(0.00793081,0,0,0.00793081,-193.94352,-120.27931)"
       id="g1418"
       style="fill:#ff6e42;fill-opacity:0;stroke:#ff6e42;stroke-width:100;stroke-linecap:round;stroke-linejoin:round;stroke-opacity:1">
      <path
         inkscape:connector-curvature="0"
         id="path1416"
         d="m 24500,62500 h -1000 l 500,1000 z"
         style="fill:none;fill-opacity:0;stroke:#ff6e42;stroke-width:100;stroke-linecap:round;stroke-linejoin:round;stroke-opacity:1" />
    </g>
    <g
       transform="matrix(0.00793081,0,0,0.00793081,-193.94352,-120.27931)"
       id="g1428"
       style="fill:#ff6e42;fill-opacity:0;stroke:#ff6e42;stroke-width:60;stroke-linecap:round;stroke-linejoin:round;stroke-opacity:1">
      <path
         inkscape:connector-curvature="0"
         id="path1420"
         d="m 24300,64200 600,600 v -300 300 h -300"
         style="fill:none;fill-opacity:0;stroke:#ff6e42;stroke-width:60;stroke-linecap:round;stroke-linejoin:round;stroke-opacity:1" />
      <path
         inkscape:connector-curvature="0"
         id="path1422"
         d="m 24300,63700 600,600 v -300 300 h -300"
         style="fill:none;fill-opacity:0;stroke:#ff6e42;stroke-width:60;stroke-linecap:round;stroke-linejoin:round;stroke-opacity:1" />
      <path
         inkscape:connector-curvature="0"
         id="path1424"
         d="m 24000,63500 v 1000" />
      <path
         inkscape:connector-curvature="0"
         id="path1426"
         d="M 24000,62500 V 61500" />
    </g>
    <text
       transform="matrix(0.00793081,0,0,0.00793081,-193.94352,-120.27931)"
       x="25890"
       y="63740"
       textLength="1420"
       font-size="660"
       lengthAdjust="spacingAndGlyphs"
       id="text1438"
       style="font-size:660px;text-anchor:middle;opacity:0;fill:#ffffff;fill-opacity:0;stroke:#ffffff;stroke-width:60;stroke-linecap:round;stroke-linejoin:round;stroke-opacity:1">LED</text>
    <path
       style="fill:#ffffff;fill-opacity:0;stroke:#ffffff;stroke-width:0.47584876;stroke-linecap:round;stroke-linejoin:round;stroke-opacity:1"
       d="M 8.7680586,384.99281 H 6.9439715 v -3.96541"
       id="path1440"
       inkscape:connector-curvature="0" />
    <path
       style="fill:#ffffff;fill-opacity:0;stroke:#ffffff;stroke-width:0.47584876;stroke-linecap:round;stroke-linejoin:round;stroke-opacity:1"
       d="m 10.116297,382.93079 h 1.348238"
       id="path1442"
       inkscape:connector-curvature="0" />
    <path
       style="fill:#ffffff;fill-opacity:0;stroke:#ffffff;stroke-width:0.47584876;stroke-linecap:round;stroke-linejoin:round;stroke-opacity:1"
       d="m 12.019692,384.99281 h -1.903395 v -3.96541 h 1.903395"
       id="path1444"
       inkscape:connector-curvature="0" />
    <path
       style="fill:#ffffff;fill-opacity:0;stroke:#ffffff;stroke-width:0.47584876;stroke-linecap:round;stroke-linejoin:round;stroke-opacity:1"
       d="m 13.685163,384.99281 v -3.96541 h 0.951697 l 0.555157,0.23792 0.396541,0.31724 0.158616,0.39654 0.237925,0.79308 v 0.55516 l -0.237925,0.71377 -0.158616,0.39654 -0.396541,0.39654 -0.555157,0.15862 h -0.951697"
       id="path1446"
       inkscape:connector-curvature="0" />
    <path
       style="fill:#ff6e41;fill-opacity:0;stroke:#ff6e41;stroke-width:0.47584876;stroke-linecap:round;stroke-linejoin:round;stroke-opacity:1"
       inkscape:connector-curvature="0"
       id="path5792"
       d="M -134.46242,367.46571 V 355.56949" />
    <path
       style="fill:#ff6e41;fill-opacity:0;stroke:#ff6e41;stroke-width:0.47584876;stroke-linecap:round;stroke-linejoin:round;stroke-opacity:1"
       inkscape:connector-curvature="0"
       id="path5810"
       d="m -15.500224,367.46571 h -7.930813" />
    <path
       style="fill:#ff6e41;fill-opacity:0;stroke:#ff6e41;stroke-width:0.47584876;stroke-linecap:round;stroke-linejoin:round;stroke-opacity:1"
       inkscape:connector-curvature="0"
       id="path5816"
       d="m -134.46242,399.18896 v -7.93081" />
    <path
       style="fill:#ff6e41;fill-opacity:0;stroke:#ff6e41;stroke-width:0.47584876;stroke-linecap:round;stroke-linejoin:round;stroke-opacity:1"
       inkscape:connector-curvature="0"
       id="path5818"
       d="M -3.6040102,399.18896 H -134.46242" />
    <path
       style="fill:#ff6e41;fill-opacity:0;stroke:#ff6e41;stroke-width:0.47584876;stroke-linecap:round;stroke-linejoin:round;stroke-opacity:1"
       inkscape:connector-curvature="0"
       id="path5820"
       d="m -3.6040102,391.25815 v 7.93081" />
    <path
       style="fill:#ff6e41;fill-opacity:0;stroke:#ff6e41;stroke-width:0.47584876;stroke-linecap:round;stroke-linejoin:round;stroke-opacity:1"
       inkscape:connector-curvature="0"
       id="path5822"
       d="m -15.500224,355.56949 v 11.89622" />
    <path
       style="fill:#ff6e41;fill-opacity:0;stroke:#ff6e41;stroke-width:0.47584876;stroke-linecap:round;stroke-linejoin:round;stroke-opacity:1"
       inkscape:connector-curvature="0"
       id="path5824"
       d="m -3.6040102,355.56949 v 11.89622" />
    <path
       style="fill:#ff6e41;fill-opacity:0;stroke:#ff6e41;stroke-width:0.47584876;stroke-linecap:round;stroke-linejoin:round;stroke-opacity:1"
       inkscape:connector-curvature="0"
       id="path5826"
       d="M -15.500224,355.56949 H -3.6040102" />
    <path
       style="fill:#ff6e41;fill-opacity:0;stroke:#ff6e41;stroke-width:0.47584876;stroke-linecap:round;stroke-linejoin:round;stroke-opacity:1"
       inkscape:connector-curvature="0"
       id="path5830"
       d="m -15.500224,339.70786 v 15.86163" />
    <path
       style="fill:#ff6e41;fill-opacity:0;stroke:#ff6e41;stroke-width:0.47584876;stroke-linecap:round;stroke-linejoin:round;stroke-opacity:1"
       inkscape:connector-curvature="0"
       id="path5832"
       d="m -23.431037,339.70786 h 7.930813" />
    <path
       style="fill:#ff6e41;fill-opacity:0;stroke:#ff6e41;stroke-width:0.47584876;stroke-linecap:round;stroke-linejoin:round;stroke-opacity:1"
       inkscape:connector-curvature="0"
       id="path5834"
       d="m -59.119697,339.70786 h 11.89622" />
    <path
       style="fill:#ff6e41;fill-opacity:0;stroke:#ff6e41;stroke-width:0.47584876;stroke-linecap:round;stroke-linejoin:round;stroke-opacity:1"
       inkscape:connector-curvature="0"
       id="path5836"
       d="m -98.773764,367.46571 h 51.550287" />
    <path
       style="fill:#ff6e41;fill-opacity:0;stroke:#ff6e41;stroke-width:0.47584876;stroke-linecap:round;stroke-linejoin:round;stroke-opacity:1"
       inkscape:connector-curvature="0"
       id="path5838"
       d="m -98.773764,355.56949 v 11.89622" />
    <path
       style="fill:#ff6e41;fill-opacity:0;stroke:#ff6e41;stroke-width:0.47584876;stroke-linecap:round;stroke-linejoin:round;stroke-opacity:1"
       inkscape:connector-curvature="0"
       id="path5840"
       d="m -98.773764,339.70786 h 7.930814" />
    <path
       style="fill:#ff6e41;fill-opacity:0;stroke:#ff6e41;stroke-width:0.47584876;stroke-linecap:round;stroke-linejoin:round;stroke-opacity:1"
       inkscape:connector-curvature="0"
       id="path5842"
       d="M -98.773764,355.56949 V 339.70786" />
    <path
       style="fill:#ff6e41;fill-opacity:0;stroke:#ff6e41;stroke-width:0.47584876;stroke-linecap:round;stroke-linejoin:round;stroke-opacity:1"
       inkscape:connector-curvature="0"
       id="path5844"
       d="m -134.46242,355.56949 h 35.688656" />
    <circle
       style="fill:#ff6e41;fill-opacity:1;stroke:#ff6e41;stroke-width:0.79308134;stroke-linecap:round;stroke-linejoin:round;stroke-opacity:1"
       id="circle6120"
       r="1.5861627"
       cy="355.56952"
       cx="-15.500263" />
    <circle
       style="fill:#ff6e41;fill-opacity:1;stroke:#ff6e41;stroke-width:0.79308134;stroke-linecap:round;stroke-linejoin:round;stroke-opacity:1"
       id="circle6198"
       r="1.5861627"
       cy="355.56952"
       cx="-98.773773" />
  </g>
</svg>
