<?xml version="1.0" encoding="UTF-8" standalone="no"?>
<!-- Created with Inkscape (http://www.inkscape.org/) -->

<svg
   xmlns:dc="http://purl.org/dc/elements/1.1/"
   xmlns:cc="http://creativecommons.org/ns#"
   xmlns:rdf="http://www.w3.org/1999/02/22-rdf-syntax-ns#"
   xmlns:svg="http://www.w3.org/2000/svg"
   xmlns="http://www.w3.org/2000/svg"
   xmlns:sodipodi="http://sodipodi.sourceforge.net/DTD/sodipodi-0.dtd"
   xmlns:inkscape="http://www.inkscape.org/namespaces/inkscape"
   width="39.6875mm"
   height="48.122883mm"
   viewBox="0 0 39.6875 48.122883"
   version="1.1"
   id="svg29364"
   inkscape:version="0.92.4 (5da689c313, 2019-01-14)"
   sodipodi:docname="electron-06.svg">
  <defs
     id="defs29358" />
  <sodipodi:namedview
     id="base"
     pagecolor="#ffffff"
     bordercolor="#666666"
     borderopacity="1.0"
     inkscape:pageopacity="0.0"
     inkscape:pageshadow="2"
     inkscape:zoom="7.9195959"
     inkscape:cx="-55.337547"
     inkscape:cy="43.779002"
     inkscape:document-units="mm"
     inkscape:current-layer="layer1"
     showgrid="false"
     inkscape:window-width="1920"
     inkscape:window-height="1027"
     inkscape:window-x="-8"
     inkscape:window-y="1072"
     inkscape:window-maximized="1" />
  <metadata
     id="metadata29361">
    <rdf:RDF>
      <cc:Work
         rdf:about="">
        <dc:format>image/svg+xml</dc:format>
        <dc:type
           rdf:resource="http://purl.org/dc/dcmitype/StillImage" />
        <dc:title />
      </cc:Work>
    </rdf:RDF>
  </metadata>
  <g
     inkscape:label="Vrstva 1"
     inkscape:groupmode="layer"
     id="layer1"
     transform="translate(-200.97583,-264.17394)">
    <g
       transform="matrix(0.01296615,0,0,0.01296615,-1004.4816,-399.56328)"
       id="g948"
       style="fill:#ff6e42;fill-opacity:0;stroke:#ff6e42;stroke-width:200;stroke-linecap:round;stroke-linejoin:round;stroke-opacity:1">
      <path
         inkscape:connector-curvature="0"
         id="path944"
         d="m 94200,53200 v 1600"
         style="fill:none;fill-opacity:0;stroke:#ff6e42;stroke-width:200;stroke-linecap:round;stroke-linejoin:round;stroke-opacity:1" />
      <path
         inkscape:connector-curvature="0"
         id="path946"
         d="m 94800,53200 v 1600"
         style="fill:none;fill-opacity:0;stroke:#ff6e42;stroke-width:200;stroke-linecap:round;stroke-linejoin:round;stroke-opacity:1" />
    </g>
    <g
       transform="matrix(0.01296615,0,0,0.01296615,-1004.4816,-399.56328)"
       id="g954"
       style="fill:#ff6e42;fill-opacity:0;stroke:#ff6e42;stroke-width:60;stroke-linecap:round;stroke-linejoin:round;stroke-opacity:1">
      <path
         inkscape:connector-curvature="0"
         id="path950"
         d="m 94900,54000 h 1100" />
      <path
         inkscape:connector-curvature="0"
         id="path952"
         d="M 94100,54000 H 93000" />
    </g>
    <g
       transform="matrix(0.01296615,0,0,0.01296615,-1004.4816,-399.56328)"
       id="g974"
       style="fill:#ffffff;fill-opacity:0;stroke:#ffffff;stroke-width:60;stroke-linecap:round;stroke-linejoin:round;stroke-opacity:1">
      <text
         style="font-size:660px;text-anchor:middle;opacity:0"
         id="text956"
         lengthAdjust="spacingAndGlyphs"
         font-size="660"
         textLength="560"
         y="51750"
         x="94500">C</text>
      <path
         inkscape:connector-curvature="0"
         id="path958"
         d="m 94650,51670 -20,30 -80,20 h -40 l -70,-20 -50,-50 -30,-50 -20,-90 v -70 l 20,-100 30,-50 50,-40 70,-30 h 40 l 80,30 20,20" />
      <text
         style="font-size:660px;text-anchor:middle;opacity:0"
         id="text960"
         lengthAdjust="spacingAndGlyphs"
         font-size="660"
         textLength="1940"
         y="52660"
         x="94500">100n</text>
      <path
         inkscape:connector-curvature="0"
         id="path962"
         d="m 93940,52630 h -290" />
      <path
         inkscape:connector-curvature="0"
         id="path964"
         d="m 93790,52630 v -500 l -40,70 -50,50 -50,20" />
      <path
         inkscape:connector-curvature="0"
         id="path966"
         d="m 94250,52130 h 40 l 50,30 20,20 30,50 20,90 v 120 l -20,100 -30,40 -20,30 -50,20 h -40 l -50,-20 -30,-30 -20,-40 -20,-100 v -120 l 20,-90 20,-50 30,-20 50,-30" />
      <path
         inkscape:connector-curvature="0"
         id="path968"
         d="m 94720,52130 h 50 l 50,30 20,20 20,50 30,90 v 120 l -30,100 -20,40 -20,30 -50,20 h -50 l -50,-20 -20,-30 -20,-40 -30,-100 v -120 l 30,-90 20,-50 20,-20 50,-30" />
      <path
         inkscape:connector-curvature="0"
         id="path970"
         d="m 95100,52300 v 330" />
      <path
         inkscape:connector-curvature="0"
         id="path972"
         d="m 95100,52350 30,-30 40,-20 h 80 l 40,20 30,50 v 260" />
    </g>
  </g>
</svg>
