<?xml version="1.0" encoding="UTF-8" standalone="no"?>
<!-- Created with Inkscape (http://www.inkscape.org/) -->

<svg
   xmlns:dc="http://purl.org/dc/elements/1.1/"
   xmlns:cc="http://creativecommons.org/ns#"
   xmlns:rdf="http://www.w3.org/1999/02/22-rdf-syntax-ns#"
   xmlns:svg="http://www.w3.org/2000/svg"
   xmlns="http://www.w3.org/2000/svg"
   xmlns:sodipodi="http://sodipodi.sourceforge.net/DTD/sodipodi-0.dtd"
   xmlns:inkscape="http://www.inkscape.org/namespaces/inkscape"
   width="158.75006mm"
   height="77.502228mm"
   viewBox="0 0 158.75006 77.502227"
   version="1.1"
   id="svg18328"
   inkscape:version="0.92.4 (5da689c313, 2019-01-14)"
   sodipodi:docname="23.svg">
  <defs
     id="defs18322" />
  <sodipodi:namedview
     id="base"
     pagecolor="#ffffff"
     bordercolor="#666666"
     borderopacity="1.0"
     inkscape:pageopacity="0.0"
     inkscape:pageshadow="2"
     inkscape:zoom="0.35"
     inkscape:cx="-902.5482"
     inkscape:cy="651.96337"
     inkscape:document-units="mm"
     inkscape:current-layer="layer1"
     showgrid="false"
     inkscape:window-width="1920"
     inkscape:window-height="1027"
     inkscape:window-x="-8"
     inkscape:window-y="1072"
     inkscape:window-maximized="1" />
  <metadata
     id="metadata18325">
    <rdf:RDF>
      <cc:Work
         rdf:about="">
        <dc:format>image/svg+xml</dc:format>
        <dc:type
           rdf:resource="http://purl.org/dc/dcmitype/StillImage" />
        <dc:title />
      </cc:Work>
    </rdf:RDF>
  </metadata>
  <g
     inkscape:label="Vrstva 1"
     inkscape:groupmode="layer"
     id="layer1"
     transform="translate(-15.793259,-243.82975)">
    <g
       transform="matrix(0.00857327,0,0,0.00857327,-370.60402,6.2644386)"
       id="g868"
       style="fill:#ff6e42;fill-opacity:1;stroke:#ff6e42;stroke-width:60;stroke-linecap:round;stroke-linejoin:round;stroke-opacity:1">
      <rect
         id="rect864"
         rx="0"
         height="100"
         width="1800"
         y="32300"
         x="45100" />
      <rect
         id="rect866"
         rx="0"
         height="200"
         width="1200"
         y="32530"
         x="45380" />
    </g>
    <g
       transform="matrix(0.00857327,0,0,0.00857327,-370.60402,6.2644386)"
       id="g874"
       style="fill:#ff6e42;fill-opacity:0;stroke:#ff6e42;stroke-width:60;stroke-linecap:round;stroke-linejoin:round;stroke-opacity:1">
      <path
         inkscape:connector-curvature="0"
         id="path870"
         d="m 46000,32700 v 300"
         style="fill:none;fill-opacity:0;stroke:#ff6e42;stroke-width:60;stroke-linecap:round;stroke-linejoin:round;stroke-opacity:1" />
      <path
         inkscape:connector-curvature="0"
         id="path872"
         d="m 46000,32300 v -300"
         style="fill:none;fill-opacity:0;stroke:#ff6e42;stroke-width:60;stroke-linecap:round;stroke-linejoin:round;stroke-opacity:1" />
    </g>
    <g
       transform="matrix(0.00857327,0,0,0.00857327,-370.60402,6.2644386)"
       id="g880"
       style="fill:#ff6e42;fill-opacity:0;stroke:#ff6e42;stroke-width:100;stroke-linecap:round;stroke-linejoin:round;stroke-opacity:1">
      <path
         inkscape:connector-curvature="0"
         id="path876"
         d="m 46200,31650 h 400"
         style="fill:none;fill-opacity:0;stroke:#ff6e42;stroke-width:100;stroke-linecap:round;stroke-linejoin:round;stroke-opacity:1" />
      <path
         inkscape:connector-curvature="0"
         id="path878"
         d="m 46400,31450 v 400"
         style="fill:none;fill-opacity:0;stroke:#ff6e42;stroke-width:100;stroke-linecap:round;stroke-linejoin:round;stroke-opacity:1" />
    </g>
    <g
       transform="matrix(0.00857327,0,0,0.00857327,-370.60402,6.2644386)"
       id="g886"
       style="fill:#ff6e42;fill-opacity:0;stroke:#ff6e42;stroke-width:60;stroke-linecap:round;stroke-linejoin:round;stroke-opacity:1">
      <path
         inkscape:connector-curvature="0"
         id="path882"
         d="M 46000,32000 V 31000" />
      <path
         inkscape:connector-curvature="0"
         id="path884"
         d="m 46000,33000 v 1000" />
    </g>
    <g
       transform="matrix(0.00857327,0,0,0.00857327,-370.60402,6.2644386)"
       id="g1458"
       style="fill:#ff6e42;fill-opacity:0;stroke:#ff6e42;stroke-width:100;stroke-linecap:round;stroke-linejoin:round;stroke-opacity:1">
      <rect
         id="rect1456"
         rx="0"
         height="800"
         width="2000"
         y="29600"
         x="47500" />
    </g>
    <g
       transform="matrix(0.00857327,0,0,0.00857327,-370.60402,6.2644386)"
       id="g1464"
       style="fill:#ff6e42;fill-opacity:0;stroke:#ff6e42;stroke-width:60;stroke-linecap:round;stroke-linejoin:round;stroke-opacity:1">
      <path
         inkscape:connector-curvature="0"
         id="path1460"
         d="m 49500,30000 h 500" />
      <path
         inkscape:connector-curvature="0"
         id="path1462"
         d="m 47500,30000 h -500" />
    </g>
    <g
       transform="matrix(0.00857327,0,0,0.00857327,-370.60402,6.2644386)"
       id="g1484"
       style="fill:#ffffff;fill-opacity:0;stroke:#ffffff;stroke-width:60;stroke-linecap:round;stroke-linejoin:round;stroke-opacity:1">
      <text
         style="font-size:660px;text-anchor:middle;opacity:0"
         id="text1466"
         lengthAdjust="spacingAndGlyphs"
         font-size="660"
         textLength="560"
         y="28270"
         x="48500">R</text>
      <path
         inkscape:connector-curvature="0"
         id="path1468"
         d="m 48650,28240 -170,-240" />
      <path
         inkscape:connector-curvature="0"
         id="path1470"
         d="m 48360,28240 v -500 h 190 l 50,30 30,20 20,50 v 70 l -20,50 -30,20 -50,20 h -190" />
      <text
         style="font-size:660px;text-anchor:middle;opacity:0"
         id="text1472"
         lengthAdjust="spacingAndGlyphs"
         font-size="660"
         textLength="2060"
         y="29110"
         x="48500">180Ω</text>
      <path
         inkscape:connector-curvature="0"
         id="path1474"
         d="m 47880,29080 h -290" />
      <path
         inkscape:connector-curvature="0"
         id="path1476"
         d="m 47730,29080 v -500 l -40,70 -50,50 -50,20" />
      <path
         inkscape:connector-curvature="0"
         id="path1478"
         d="m 48160,28800 -50,-30 -20,-20 -20,-50 v -20 l 20,-50 20,-20 50,-30 h 100 l 40,30 30,20 20,50 v 20 l -20,50 -30,20 -40,30 h -100 l -50,20 -20,20 -20,50 v 100 l 20,40 20,30 50,20 h 100 l 40,-20 30,-30 20,-40 v -100 l -20,-50 -30,-20 -40,-20" />
      <path
         inkscape:connector-curvature="0"
         id="path1480"
         d="m 48660,28580 h 50 l 50,30 20,20 20,50 30,90 v 120 l -30,100 -20,40 -20,30 -50,20 h -50 l -50,-20 -20,-30 -20,-40 -30,-100 v -120 l 30,-90 20,-50 20,-20 50,-30" />
      <path
         inkscape:connector-curvature="0"
         id="path1482"
         d="m 49020,29080 h 120 v -90 l -50,-30 -50,-50 -20,-70 v -120 l 20,-70 50,-40 70,-30 h 100 l 70,30 50,40 20,70 v 120 l -20,70 -50,50 -50,30 v 90 h 120" />
    </g>
    <g
       transform="matrix(0.00857327,0,0,0.00857327,-370.60402,6.2644386)"
       id="g3698"
       style="fill:#ff6e42;fill-opacity:0;stroke:#ff6e42;stroke-width:100;stroke-linecap:round;stroke-linejoin:round;stroke-opacity:1">
      <path
         inkscape:connector-curvature="0"
         id="path3696"
         d="M 61500,34000 H 60500"
         style="fill:none;fill-opacity:0;stroke:#ff6e42;stroke-width:100;stroke-linecap:round;stroke-linejoin:round;stroke-opacity:1" />
    </g>
    <g
       transform="matrix(0.00857327,0,0,0.00857327,-370.60402,6.2644386)"
       id="g3702"
       style="fill:#ff6e42;fill-opacity:0;stroke:#ff6e42;stroke-width:60;stroke-linecap:round;stroke-linejoin:round;stroke-opacity:1">
      <path
         inkscape:connector-curvature="0"
         id="path3700"
         d="M 61000,34000 V 33000"
         style="fill:none;fill-opacity:0;stroke:#ff6e42;stroke-width:60;stroke-linecap:round;stroke-linejoin:round;stroke-opacity:1" />
    </g>
    <g
       transform="matrix(0.00857327,0,0,0.00857327,-370.60402,6.2644386)"
       id="g3706"
       style="fill:#ff6e42;fill-opacity:0;stroke:#ff6e42;stroke-width:100;stroke-linecap:round;stroke-linejoin:round;stroke-opacity:1">
      <path
         inkscape:connector-curvature="0"
         id="path3704"
         d="m 61500,33000 h -1000 l 500,1000 z"
         style="fill:none;fill-opacity:0;stroke:#ff6e42;stroke-width:100;stroke-linecap:round;stroke-linejoin:round;stroke-opacity:1" />
    </g>
    <g
       transform="matrix(0.00857327,0,0,0.00857327,-370.60402,6.2644386)"
       id="g3716"
       style="fill:#ff6e42;fill-opacity:0;stroke:#ff6e42;stroke-width:60;stroke-linecap:round;stroke-linejoin:round;stroke-opacity:1">
      <path
         inkscape:connector-curvature="0"
         id="path3708"
         d="m 61300,34700 600,600 v -300 300 h -300"
         style="fill:none;fill-opacity:0;stroke:#ff6e42;stroke-width:60;stroke-linecap:round;stroke-linejoin:round;stroke-opacity:1" />
      <path
         inkscape:connector-curvature="0"
         id="path3710"
         d="m 61300,34200 600,600 v -300 300 h -300"
         style="fill:none;fill-opacity:0;stroke:#ff6e42;stroke-width:60;stroke-linecap:round;stroke-linejoin:round;stroke-opacity:1" />
      <path
         inkscape:connector-curvature="0"
         id="path3712"
         d="m 61000,34000 v 1000" />
      <path
         inkscape:connector-curvature="0"
         id="path3714"
         d="M 61000,33000 V 32000" />
    </g>
    <text
       transform="matrix(0.00857327,0,0,0.00857327,-370.60402,6.2644386)"
       x="62890"
       y="34240"
       textLength="1420"
       font-size="660"
       lengthAdjust="spacingAndGlyphs"
       id="text3726"
       style="font-size:660px;text-anchor:middle;opacity:0;fill:#ffffff;fill-opacity:0;stroke:#ffffff;stroke-width:60;stroke-linecap:round;stroke-linejoin:round;stroke-opacity:1">LED</text>
    <path
       style="fill:#ffffff;fill-opacity:0;stroke:#ffffff;stroke-width:0.51439595;stroke-linecap:round;stroke-linejoin:round;stroke-opacity:1"
       d="m 165.73954,299.55589 h -1.97185 v -4.28663"
       id="path3728"
       inkscape:connector-curvature="0" />
    <path
       style="fill:#ffffff;fill-opacity:0;stroke:#ffffff;stroke-width:0.51439595;stroke-linecap:round;stroke-linejoin:round;stroke-opacity:1"
       d="m 167.197,297.32684 h 1.45745"
       id="path3730"
       inkscape:connector-curvature="0" />
    <path
       style="fill:#ffffff;fill-opacity:0;stroke:#ffffff;stroke-width:0.51439595;stroke-linecap:round;stroke-linejoin:round;stroke-opacity:1"
       d="M 169.25458,299.55589 H 167.197 v -4.28663 h 2.05758"
       id="path3732"
       inkscape:connector-curvature="0" />
    <path
       style="fill:#ffffff;fill-opacity:0;stroke:#ffffff;stroke-width:0.51439595;stroke-linecap:round;stroke-linejoin:round;stroke-opacity:1"
       d="m 171.05497,299.55589 v -4.28663 h 1.02879 l 0.60013,0.2572 0.42866,0.34293 0.17147,0.42866 0.25719,0.85733 v 0.60012 l -0.25719,0.7716 -0.17147,0.42866 -0.42866,0.42867 -0.60013,0.17146 h -1.02879"
       id="path3734"
       inkscape:connector-curvature="0" />
    <g
       transform="matrix(0.00857327,0,0,0.00857327,-370.60402,6.2644386)"
       id="g3746"
       style="fill:#ff6e42;fill-opacity:0;stroke:#ff6e42;stroke-width:100;stroke-linecap:round;stroke-linejoin:round;stroke-opacity:1">
      <path
         inkscape:connector-curvature="0"
         id="path3744"
         d="M 57000,34000 H 56000"
         style="fill:none;fill-opacity:0;stroke:#ff6e42;stroke-width:100;stroke-linecap:round;stroke-linejoin:round;stroke-opacity:1" />
    </g>
    <g
       transform="matrix(0.00857327,0,0,0.00857327,-370.60402,6.2644386)"
       id="g3750"
       style="fill:#ff6e42;fill-opacity:0;stroke:#ff6e42;stroke-width:60;stroke-linecap:round;stroke-linejoin:round;stroke-opacity:1">
      <path
         inkscape:connector-curvature="0"
         id="path3748"
         d="M 56500,34000 V 33000"
         style="fill:none;fill-opacity:0;stroke:#ff6e42;stroke-width:60;stroke-linecap:round;stroke-linejoin:round;stroke-opacity:1" />
    </g>
    <g
       transform="matrix(0.00857327,0,0,0.00857327,-370.60402,6.2644386)"
       id="g3754"
       style="fill:#ff6e42;fill-opacity:0;stroke:#ff6e42;stroke-width:100;stroke-linecap:round;stroke-linejoin:round;stroke-opacity:1">
      <path
         inkscape:connector-curvature="0"
         id="path3752"
         d="m 57000,33000 h -1000 l 500,1000 z"
         style="fill:none;fill-opacity:0;stroke:#ff6e42;stroke-width:100;stroke-linecap:round;stroke-linejoin:round;stroke-opacity:1" />
    </g>
    <g
       transform="matrix(0.00857327,0,0,0.00857327,-370.60402,6.2644386)"
       id="g3764"
       style="fill:#ff6e42;fill-opacity:0;stroke:#ff6e42;stroke-width:60;stroke-linecap:round;stroke-linejoin:round;stroke-opacity:1">
      <path
         inkscape:connector-curvature="0"
         id="path3756"
         d="m 56800,34700 600,600 v -300 300 h -300"
         style="fill:none;fill-opacity:0;stroke:#ff6e42;stroke-width:60;stroke-linecap:round;stroke-linejoin:round;stroke-opacity:1" />
      <path
         inkscape:connector-curvature="0"
         id="path3758"
         d="m 56800,34200 600,600 v -300 300 h -300"
         style="fill:none;fill-opacity:0;stroke:#ff6e42;stroke-width:60;stroke-linecap:round;stroke-linejoin:round;stroke-opacity:1" />
      <path
         inkscape:connector-curvature="0"
         id="path3760"
         d="m 56500,34000 v 1000" />
      <path
         inkscape:connector-curvature="0"
         id="path3762"
         d="M 56500,33000 V 32000" />
    </g>
    <g
       transform="matrix(0.00857327,0,0,0.00857327,-370.60402,6.2644386)"
       id="g3784"
       style="fill:#ffffff;fill-opacity:0;stroke:#ffffff;stroke-width:60;stroke-linecap:round;stroke-linejoin:round;stroke-opacity:1">
      <text
         style="font-size:660px;text-anchor:middle;opacity:0"
         id="text3774"
         lengthAdjust="spacingAndGlyphs"
         font-size="660"
         textLength="1420"
         y="34240"
         x="58390">LED</text>
      <path
         inkscape:connector-curvature="0"
         id="path3776"
         d="m 58060,34210 h -230 v -500" />
      <path
         inkscape:connector-curvature="0"
         id="path3778"
         d="m 58230,33950 h 170" />
      <path
         inkscape:connector-curvature="0"
         id="path3780"
         d="m 58470,34210 h -240 v -500 h 240" />
      <path
         inkscape:connector-curvature="0"
         id="path3782"
         d="m 58680,34210 v -500 h 120 l 70,30 50,40 20,50 30,100 v 70 l -30,90 -20,50 -50,50 -70,20 h -120" />
    </g>
    <g
       transform="matrix(0.00857327,0,0,0.00857327,-370.60402,6.2644386)"
       id="g3822"
       style="fill:#ff6e42;fill-opacity:0;stroke:#ff6e42;stroke-width:60;stroke-linecap:round;stroke-linejoin:round;stroke-opacity:1">
      <circle
         id="circle3792"
         r="200"
         cy="30000"
         cx="52200" />
      <circle
         id="circle3794"
         r="200"
         cy="31000"
         cx="53800" />
      <circle
         id="circle3796"
         r="200"
         cy="29000"
         cx="53800" />
      <path
         inkscape:connector-curvature="0"
         id="path3798"
         d="m 53000,29600 v -800"
         style="fill:none;fill-opacity:0;stroke:#ff6e42;stroke-width:60;stroke-linecap:round;stroke-linejoin:round;stroke-opacity:1" />
      <path
         inkscape:connector-curvature="0"
         id="path3800"
         d="m 52400,29900 1600,-700"
         style="fill:none;fill-opacity:0;stroke:#ff6e42;stroke-width:60;stroke-linecap:round;stroke-linejoin:round;stroke-opacity:1" />
      <path
         inkscape:connector-curvature="0"
         id="path3802"
         d="m 54000,29000 h 1000" />
      <text
         style="font-size:660px;text-anchor:middle;opacity:0"
         id="text3804"
         lengthAdjust="spacingAndGlyphs"
         font-size="660"
         textLength="540"
         y="29600"
         x="54500">1</text>
      <path
         inkscape:connector-curvature="0"
         id="path3806"
         d="m 54640,29570 h -290" />
      <path
         inkscape:connector-curvature="0"
         id="path3808"
         d="m 54500,29570 v -500 l -50,70 -50,50 -50,20" />
      <path
         inkscape:connector-curvature="0"
         id="path3810"
         d="M 52000,30000 H 51000" />
      <text
         style="font-size:660px;text-anchor:middle;opacity:0"
         id="text3812"
         lengthAdjust="spacingAndGlyphs"
         font-size="660"
         textLength="540"
         y="30600"
         x="51500">2</text>
      <path
         inkscape:connector-curvature="0"
         id="path3814"
         d="m 51350,30120 30,-20 40,-30 h 120 l 50,30 20,20 30,50 v 40 l -30,80 -280,280 h 310" />
      <path
         inkscape:connector-curvature="0"
         id="path3816"
         d="m 54000,31000 h 1000" />
      <text
         style="font-size:660px;text-anchor:middle;opacity:0"
         id="text3818"
         lengthAdjust="spacingAndGlyphs"
         font-size="660"
         textLength="540"
         y="31600"
         x="54500">3</text>
      <path
         inkscape:connector-curvature="0"
         id="path3820"
         d="m 54330,31070 h 310 l -170,190 h 70 l 50,30 20,20 30,50 v 120 l -30,40 -20,30 -50,20 h -140 l -50,-20 -20,-30" />
    </g>
    <path
       style="fill:#ff6e41;fill-opacity:0;stroke:#ff6e41;stroke-width:0.51439595;stroke-linecap:round;stroke-linejoin:round;stroke-opacity:1"
       inkscape:connector-curvature="0"
       id="path5948"
       d="m 113.78555,319.18867 h 38.5797" />
    <path
       style="fill:#ff6e41;fill-opacity:0;stroke:#ff6e41;stroke-width:0.51439595;stroke-linecap:round;stroke-linejoin:round;stroke-opacity:1"
       inkscape:connector-curvature="0"
       id="path5950"
       d="m 113.78555,319.18867 v -12.8599" />
    <path
       style="fill:#ff6e41;fill-opacity:0;stroke:#ff6e41;stroke-width:0.51439595;stroke-linecap:round;stroke-linejoin:round;stroke-opacity:1"
       inkscape:connector-curvature="0"
       id="path5952"
       d="M 23.766246,319.18867 H 113.78555" />
    <path
       style="fill:#ff6e41;fill-opacity:0;stroke:#ff6e41;stroke-width:0.51439595;stroke-linecap:round;stroke-linejoin:round;stroke-opacity:1"
       inkscape:connector-curvature="0"
       id="path5954"
       d="m 23.766246,297.7555 v 21.43317" />
    <path
       style="fill:#ff6e41;fill-opacity:0;stroke:#ff6e41;stroke-width:0.51439595;stroke-linecap:round;stroke-linejoin:round;stroke-opacity:1"
       inkscape:connector-curvature="0"
       id="path5956"
       d="m 23.766246,263.46244 v 8.57326" />
    <path
       style="fill:#ff6e41;fill-opacity:0;stroke:#ff6e41;stroke-width:0.51439595;stroke-linecap:round;stroke-linejoin:round;stroke-opacity:1"
       inkscape:connector-curvature="0"
       id="path5978"
       d="m 152.36525,319.18867 v -12.8599" />
    <path
       style="fill:#ff6e41;fill-opacity:0;stroke:#ff6e41;stroke-width:0.51439595;stroke-linecap:round;stroke-linejoin:round;stroke-opacity:1"
       inkscape:connector-curvature="0"
       id="path6018"
       d="M 32.339513,263.46244 H 23.766246" />
    <path
       style="fill:#ff6e41;fill-opacity:0;stroke:#ff6e41;stroke-width:0.51439595;stroke-linecap:round;stroke-linejoin:round;stroke-opacity:1"
       inkscape:connector-curvature="0"
       id="path6038"
       d="m 58.059313,263.46244 h 8.573266" />
    <path
       style="fill:#ff6e41;fill-opacity:0;stroke:#ff6e41;stroke-width:0.51439595;stroke-linecap:round;stroke-linejoin:round;stroke-opacity:1"
       inkscape:connector-curvature="0"
       id="path6040"
       d="m 113.78555,272.0357 h -12.8599" />
    <path
       style="fill:#ff6e41;fill-opacity:0;stroke:#ff6e41;stroke-width:0.51439595;stroke-linecap:round;stroke-linejoin:round;stroke-opacity:1"
       inkscape:connector-curvature="0"
       id="path6042"
       d="M 113.78555,280.60897 V 272.0357" />
    <path
       style="fill:#ff6e41;fill-opacity:0;stroke:#ff6e41;stroke-width:0.51439595;stroke-linecap:round;stroke-linejoin:round;stroke-opacity:1"
       inkscape:connector-curvature="0"
       id="path6044"
       d="m 152.36525,254.88917 v 25.7198" />
    <path
       style="fill:#ff6e41;fill-opacity:0;stroke:#ff6e41;stroke-width:0.51439595;stroke-linecap:round;stroke-linejoin:round;stroke-opacity:1"
       inkscape:connector-curvature="0"
       id="path6046"
       d="m 100.92565,254.88917 h 51.4396" />
    <circle
       style="fill:#ff6e41;fill-opacity:1;stroke:#ff6e41;stroke-width:0.85732669;stroke-linecap:round;stroke-linejoin:round;stroke-opacity:1"
       id="circle6138"
       r="1.7146534"
       cy="319.18866"
       cx="113.78555" />
  </g>
</svg>
