<?xml version="1.0" encoding="UTF-8" standalone="no"?>
<!-- Created with Inkscape (http://www.inkscape.org/) -->

<svg
   xmlns:dc="http://purl.org/dc/elements/1.1/"
   xmlns:cc="http://creativecommons.org/ns#"
   xmlns:rdf="http://www.w3.org/1999/02/22-rdf-syntax-ns#"
   xmlns:svg="http://www.w3.org/2000/svg"
   xmlns="http://www.w3.org/2000/svg"
   xmlns:sodipodi="http://sodipodi.sourceforge.net/DTD/sodipodi-0.dtd"
   xmlns:inkscape="http://www.inkscape.org/namespaces/inkscape"
   width="158.75003mm"
   height="62.847992mm"
   viewBox="0 0 158.75003 62.847991"
   version="1.1"
   id="svg16717"
   inkscape:version="0.92.4 (5da689c313, 2019-01-14)"
   sodipodi:docname="21.svg">
  <defs
     id="defs16711" />
  <sodipodi:namedview
     id="base"
     pagecolor="#ffffff"
     bordercolor="#666666"
     borderopacity="1.0"
     inkscape:pageopacity="0.0"
     inkscape:pageshadow="2"
     inkscape:zoom="3.959798"
     inkscape:cx="10.317919"
     inkscape:cy="13.773143"
     inkscape:document-units="mm"
     inkscape:current-layer="layer1"
     showgrid="false"
     inkscape:window-width="1920"
     inkscape:window-height="1027"
     inkscape:window-x="-8"
     inkscape:window-y="1072"
     inkscape:window-maximized="1" />
  <metadata
     id="metadata16714">
    <rdf:RDF>
      <cc:Work
         rdf:about="">
        <dc:format>image/svg+xml</dc:format>
        <dc:type
           rdf:resource="http://purl.org/dc/dcmitype/StillImage" />
        <dc:title />
      </cc:Work>
    </rdf:RDF>
  </metadata>
  <g
     inkscape:label="Vrstva 1"
     inkscape:groupmode="layer"
     id="layer1"
     transform="translate(-26.981272,-17.933237)">
    <g
       transform="matrix(0.00755346,0,0,0.00755346,-313.45317,-36.52721)"
       id="g1612"
       style="fill:#ff6e42;fill-opacity:1;stroke:#ff6e42;stroke-width:60;stroke-linecap:round;stroke-linejoin:round;stroke-opacity:1">
      <rect
         id="rect1608"
         rx="0"
         height="100"
         width="1800"
         y="12800"
         x="45100" />
      <rect
         id="rect1610"
         rx="0"
         height="200"
         width="1200"
         y="13030"
         x="45380" />
    </g>
    <g
       transform="matrix(0.00755346,0,0,0.00755346,-313.45317,-36.52721)"
       id="g1618"
       style="fill:#ff6e42;fill-opacity:0;stroke:#ff6e42;stroke-width:60;stroke-linecap:round;stroke-linejoin:round;stroke-opacity:1">
      <path
         inkscape:connector-curvature="0"
         id="path1614"
         d="m 46000,13200 v 300"
         style="fill:none;fill-opacity:0;stroke:#ff6e42;stroke-width:60;stroke-linecap:round;stroke-linejoin:round;stroke-opacity:1" />
      <path
         inkscape:connector-curvature="0"
         id="path1616"
         d="m 46000,12800 v -300"
         style="fill:none;fill-opacity:0;stroke:#ff6e42;stroke-width:60;stroke-linecap:round;stroke-linejoin:round;stroke-opacity:1" />
    </g>
    <g
       transform="matrix(0.00755346,0,0,0.00755346,-313.45317,-36.52721)"
       id="g1624"
       style="fill:#ff6e42;fill-opacity:0;stroke:#ff6e42;stroke-width:100;stroke-linecap:round;stroke-linejoin:round;stroke-opacity:1">
      <path
         inkscape:connector-curvature="0"
         id="path1620"
         d="m 46200,12150 h 400"
         style="fill:none;fill-opacity:0;stroke:#ff6e42;stroke-width:100;stroke-linecap:round;stroke-linejoin:round;stroke-opacity:1" />
      <path
         inkscape:connector-curvature="0"
         id="path1622"
         d="m 46400,11950 v 400"
         style="fill:none;fill-opacity:0;stroke:#ff6e42;stroke-width:100;stroke-linecap:round;stroke-linejoin:round;stroke-opacity:1" />
    </g>
    <g
       transform="matrix(0.00755346,0,0,0.00755346,-313.45317,-36.52721)"
       id="g1630"
       style="fill:#ff6e42;fill-opacity:0;stroke:#ff6e42;stroke-width:60;stroke-linecap:round;stroke-linejoin:round;stroke-opacity:1">
      <path
         inkscape:connector-curvature="0"
         id="path1626"
         d="M 46000,12500 V 11500" />
      <path
         inkscape:connector-curvature="0"
         id="path1628"
         d="m 46000,13500 v 1000" />
    </g>
    <g
       transform="matrix(0.00755346,0,0,0.00755346,-313.45317,-36.52721)"
       id="g1718"
       style="fill:#ff6e42;fill-opacity:0;stroke:#ff6e42;stroke-width:60;stroke-linecap:round;stroke-linejoin:round;stroke-opacity:1">
      <circle
         id="circle1688"
         r="200"
         cy="10500"
         cx="49200" />
      <circle
         id="circle1690"
         r="200"
         cy="11500"
         cx="50800" />
      <circle
         id="circle1692"
         r="200"
         cy="9500"
         cx="50800" />
      <path
         inkscape:connector-curvature="0"
         id="path1694"
         d="M 50000,10100 V 9300"
         style="fill:none;fill-opacity:0;stroke:#ff6e42;stroke-width:60;stroke-linecap:round;stroke-linejoin:round;stroke-opacity:1" />
      <path
         inkscape:connector-curvature="0"
         id="path1696"
         d="m 49400,10400 1600,-700"
         style="fill:none;fill-opacity:0;stroke:#ff6e42;stroke-width:60;stroke-linecap:round;stroke-linejoin:round;stroke-opacity:1" />
      <path
         inkscape:connector-curvature="0"
         id="path1698"
         d="m 51000,9500 h 1000" />
      <text
         style="font-size:660px;text-anchor:middle;opacity:0"
         id="text1700"
         lengthAdjust="spacingAndGlyphs"
         font-size="660"
         textLength="540"
         y="10100"
         x="51500">1</text>
      <path
         inkscape:connector-curvature="0"
         id="path1702"
         d="m 51640,10070 h -290" />
      <path
         inkscape:connector-curvature="0"
         id="path1704"
         d="m 51500,10070 v -500 l -50,70 -50,50 -50,20" />
      <path
         inkscape:connector-curvature="0"
         id="path1706"
         d="M 49000,10500 H 48000" />
      <text
         style="font-size:660px;text-anchor:middle;opacity:0"
         id="text1708"
         lengthAdjust="spacingAndGlyphs"
         font-size="660"
         textLength="540"
         y="11100"
         x="48500">2</text>
      <path
         inkscape:connector-curvature="0"
         id="path1710"
         d="m 48350,10620 30,-20 40,-30 h 120 l 50,30 20,20 30,50 v 40 l -30,80 -280,280 h 310" />
      <path
         inkscape:connector-curvature="0"
         id="path1712"
         d="m 51000,11500 h 1000" />
      <text
         style="font-size:660px;text-anchor:middle;opacity:0"
         id="text1714"
         lengthAdjust="spacingAndGlyphs"
         font-size="660"
         textLength="540"
         y="12100"
         x="51500">3</text>
      <path
         inkscape:connector-curvature="0"
         id="path1716"
         d="m 51330,11570 h 310 l -170,190 h 70 l 50,30 20,20 30,50 v 120 l -30,40 -20,30 -50,20 h -140 l -50,-20 -20,-30" />
    </g>
    <g
       transform="matrix(0.00755346,0,0,0.00755346,-313.45317,-36.52721)"
       id="g1782"
       style="fill:#ff6e42;fill-opacity:0;stroke:#ff6e42;stroke-width:60;stroke-linecap:round;stroke-linejoin:round;stroke-opacity:1">
      <circle
         id="circle1770"
         r="200"
         cy="9500"
         cx="55200" />
      <circle
         id="circle1772"
         r="200"
         cy="9500"
         cx="56800" />
      <path
         inkscape:connector-curvature="0"
         id="path1774"
         d="M 56000,9000 V 8300"
         style="fill:none;fill-opacity:0;stroke:#ff6e42;stroke-width:60;stroke-linecap:round;stroke-linejoin:round;stroke-opacity:1" />
      <path
         inkscape:connector-curvature="0"
         id="path1776"
         d="M 57000,9000 H 55000"
         style="fill:none;fill-opacity:0;stroke:#ff6e42;stroke-width:60;stroke-linecap:round;stroke-linejoin:round;stroke-opacity:1" />
      <path
         inkscape:connector-curvature="0"
         id="path1778"
         d="M 55000,9500 H 54000" />
      <path
         inkscape:connector-curvature="0"
         id="path1780"
         d="m 57000,9500 h 1000" />
    </g>
    <g
       transform="matrix(0.00755346,0,0,0.00755346,-313.45317,-36.52721)"
       id="g1824"
       style="fill:#ff6e42;fill-opacity:0;stroke:#ff6e42;stroke-width:100;stroke-linecap:round;stroke-linejoin:round;stroke-opacity:1">
      <rect
         id="rect1822"
         rx="0"
         height="800"
         width="2000"
         y="9100"
         x="60000" />
    </g>
    <g
       transform="matrix(0.00755346,0,0,0.00755346,-313.45317,-36.52721)"
       id="g1830"
       style="fill:#ff6e42;fill-opacity:0;stroke:#ff6e42;stroke-width:60;stroke-linecap:round;stroke-linejoin:round;stroke-opacity:1">
      <path
         inkscape:connector-curvature="0"
         id="path1826"
         d="m 62000,9500 h 500" />
      <path
         inkscape:connector-curvature="0"
         id="path1828"
         d="m 60000,9500 h -500" />
    </g>
    <g
       transform="matrix(0.00755346,0,0,0.00755346,-313.45317,-36.52721)"
       id="g1850"
       style="fill:#ffffff;fill-opacity:0;stroke:#ffffff;stroke-width:60;stroke-linecap:round;stroke-linejoin:round;stroke-opacity:1">
      <text
         style="font-size:660px;text-anchor:middle;opacity:0"
         id="text1832"
         lengthAdjust="spacingAndGlyphs"
         font-size="660"
         textLength="560"
         y="7770"
         x="61000">R</text>
      <path
         inkscape:connector-curvature="0"
         id="path1834"
         d="m 61150,7740 -170,-240" />
      <path
         inkscape:connector-curvature="0"
         id="path1836"
         d="m 60860,7740 v -500 h 190 l 50,30 30,20 20,50 v 70 l -20,50 -30,20 -50,20 h -190" />
      <text
         style="font-size:660px;text-anchor:middle;opacity:0"
         id="text1838"
         lengthAdjust="spacingAndGlyphs"
         font-size="660"
         textLength="2060"
         y="8610"
         x="61000">180Ω</text>
      <path
         inkscape:connector-curvature="0"
         id="path1840"
         d="m 60380,8580 h -290" />
      <path
         inkscape:connector-curvature="0"
         id="path1842"
         d="m 60230,8580 v -500 l -40,70 -50,50 -50,20" />
      <path
         inkscape:connector-curvature="0"
         id="path1844"
         d="m 60660,8300 -50,-30 -20,-20 -20,-50 v -20 l 20,-50 20,-20 50,-30 h 100 l 40,30 30,20 20,50 v 20 l -20,50 -30,20 -40,30 h -100 l -50,20 -20,20 -20,50 v 100 l 20,40 20,30 50,20 h 100 l 40,-20 30,-30 20,-40 v -100 l -20,-50 -30,-20 -40,-20" />
      <path
         inkscape:connector-curvature="0"
         id="path1846"
         d="m 61160,8080 h 50 l 50,30 20,20 20,50 30,90 v 120 l -30,100 -20,40 -20,30 -50,20 h -50 l -50,-20 -20,-30 -20,-40 -30,-100 v -120 l 30,-90 20,-50 20,-20 50,-30" />
      <path
         inkscape:connector-curvature="0"
         id="path1848"
         d="m 61520,8580 h 120 v -90 l -50,-30 -50,-50 -20,-70 v -120 l 20,-70 50,-40 70,-30 h 100 l 70,30 50,40 20,70 v 120 l -20,70 -50,50 -50,30 v 90 h 120" />
    </g>
    <g
       transform="matrix(0.00755346,0,0,0.00755346,-313.45317,-36.52721)"
       id="g1860"
       style="fill:#ff6e42;fill-opacity:0;stroke:#ff6e42;stroke-width:100;stroke-linecap:round;stroke-linejoin:round;stroke-opacity:1">
      <path
         inkscape:connector-curvature="0"
         id="path1858"
         d="M 64000,13500 H 63000"
         style="fill:none;fill-opacity:0;stroke:#ff6e42;stroke-width:100;stroke-linecap:round;stroke-linejoin:round;stroke-opacity:1" />
    </g>
    <g
       transform="matrix(0.00755346,0,0,0.00755346,-313.45317,-36.52721)"
       id="g1864"
       style="fill:#ff6e42;fill-opacity:0;stroke:#ff6e42;stroke-width:60;stroke-linecap:round;stroke-linejoin:round;stroke-opacity:1">
      <path
         inkscape:connector-curvature="0"
         id="path1862"
         d="M 63500,13500 V 12500"
         style="fill:none;fill-opacity:0;stroke:#ff6e42;stroke-width:60;stroke-linecap:round;stroke-linejoin:round;stroke-opacity:1" />
    </g>
    <g
       transform="matrix(0.00755346,0,0,0.00755346,-313.45317,-36.52721)"
       id="g1868"
       style="fill:#ff6e42;fill-opacity:0;stroke:#ff6e42;stroke-width:100;stroke-linecap:round;stroke-linejoin:round;stroke-opacity:1">
      <path
         inkscape:connector-curvature="0"
         id="path1866"
         d="m 64000,12500 h -1000 l 500,1000 z"
         style="fill:none;fill-opacity:0;stroke:#ff6e42;stroke-width:100;stroke-linecap:round;stroke-linejoin:round;stroke-opacity:1" />
    </g>
    <g
       transform="matrix(0.00755346,0,0,0.00755346,-313.45317,-36.52721)"
       id="g1878"
       style="fill:#ff6e42;fill-opacity:0;stroke:#ff6e42;stroke-width:60;stroke-linecap:round;stroke-linejoin:round;stroke-opacity:1">
      <path
         inkscape:connector-curvature="0"
         id="path1870"
         d="m 63800,14200 600,600 v -300 300 h -300"
         style="fill:none;fill-opacity:0;stroke:#ff6e42;stroke-width:60;stroke-linecap:round;stroke-linejoin:round;stroke-opacity:1" />
      <path
         inkscape:connector-curvature="0"
         id="path1872"
         d="m 63800,13700 600,600 v -300 300 h -300"
         style="fill:none;fill-opacity:0;stroke:#ff6e42;stroke-width:60;stroke-linecap:round;stroke-linejoin:round;stroke-opacity:1" />
      <path
         inkscape:connector-curvature="0"
         id="path1874"
         d="m 63500,13500 v 1000" />
      <path
         inkscape:connector-curvature="0"
         id="path1876"
         d="M 63500,12500 V 11500" />
    </g>
    <text
       transform="matrix(0.00755346,0,0,0.00755346,-313.45317,-36.52721)"
       x="65390"
       y="13740"
       textLength="1420"
       font-size="660"
       lengthAdjust="spacingAndGlyphs"
       id="text1888"
       style="font-size:660px;text-anchor:middle;opacity:0;fill:#ffffff;fill-opacity:0;stroke:#ffffff;stroke-width:60;stroke-linecap:round;stroke-linejoin:round;stroke-opacity:1">LED</text>
    <path
       style="fill:#ffffff;fill-opacity:0;stroke:#ffffff;stroke-width:0.45320746;stroke-linecap:round;stroke-linejoin:round;stroke-opacity:1"
       d="m 177.97484,67.030706 h -1.7373 v -3.776729"
       id="path1890"
       inkscape:connector-curvature="0" />
    <path
       style="fill:#ffffff;fill-opacity:0;stroke:#ffffff;stroke-width:0.45320746;stroke-linecap:round;stroke-linejoin:round;stroke-opacity:1"
       d="m 179.25893,65.066807 h 1.28409"
       id="path1892"
       inkscape:connector-curvature="0" />
    <path
       style="fill:#ffffff;fill-opacity:0;stroke:#ffffff;stroke-width:0.45320746;stroke-linecap:round;stroke-linejoin:round;stroke-opacity:1"
       d="m 181.07176,67.030706 h -1.81283 v -3.776729 h 1.81283"
       id="path1894"
       inkscape:connector-curvature="0" />
    <path
       style="fill:#ffffff;fill-opacity:0;stroke:#ffffff;stroke-width:0.45320746;stroke-linecap:round;stroke-linejoin:round;stroke-opacity:1"
       d="m 182.65798,67.030706 v -3.776729 h 0.90642 l 0.52874,0.226604 0.37767,0.302138 0.15107,0.377673 0.22661,0.755346 v 0.528742 l -0.22661,0.679811 -0.15107,0.377673 -0.37767,0.377673 -0.52874,0.151069 h -0.90642"
       id="path1896"
       inkscape:connector-curvature="0" />
    <path
       style="fill:#ff6e41;fill-opacity:0;stroke:#ff6e41;stroke-width:0.45320746;stroke-linecap:round;stroke-linejoin:round;stroke-opacity:1"
       inkscape:connector-curvature="0"
       id="path5812"
       d="M 34.00592,42.784104 H 49.112838" />
    <path
       style="fill:#ff6e41;fill-opacity:0;stroke:#ff6e41;stroke-width:0.45320746;stroke-linecap:round;stroke-linejoin:round;stroke-opacity:1"
       inkscape:connector-curvature="0"
       id="path5814"
       d="M 34.00592,50.337563 V 42.784104" />
    <path
       style="fill:#ff6e41;fill-opacity:0;stroke:#ff6e41;stroke-width:0.45320746;stroke-linecap:round;stroke-linejoin:round;stroke-opacity:1"
       inkscape:connector-curvature="0"
       id="path5946"
       d="M 79.326672,35.230646 H 94.433589" />
    <path
       style="fill:#ff6e41;fill-opacity:0;stroke:#ff6e41;stroke-width:0.45320746;stroke-linecap:round;stroke-linejoin:round;stroke-opacity:1"
       inkscape:connector-curvature="0"
       id="path6024"
       d="M 166.19144,80.551397 V 72.997939" />
    <path
       style="fill:#ff6e41;fill-opacity:0;stroke:#ff6e41;stroke-width:0.45320746;stroke-linecap:round;stroke-linejoin:round;stroke-opacity:1"
       inkscape:connector-curvature="0"
       id="path6026"
       d="M 34.00592,80.551397 H 166.19144" />
    <path
       style="fill:#ff6e41;fill-opacity:0;stroke:#ff6e41;stroke-width:0.45320746;stroke-linecap:round;stroke-linejoin:round;stroke-opacity:1"
       inkscape:connector-curvature="0"
       id="path6028"
       d="m 34.00592,72.997939 v 7.553458" />
    <path
       style="fill:#ff6e41;fill-opacity:0;stroke:#ff6e41;stroke-width:0.45320746;stroke-linecap:round;stroke-linejoin:round;stroke-opacity:1"
       inkscape:connector-curvature="0"
       id="path6030"
       d="M 166.19144,35.230646 V 50.337563" />
    <path
       style="fill:#ff6e41;fill-opacity:0;stroke:#ff6e41;stroke-width:0.45320746;stroke-linecap:round;stroke-linejoin:round;stroke-opacity:1"
       inkscape:connector-curvature="0"
       id="path6032"
       d="m 158.63799,35.230646 h 7.55345" />
    <path
       style="fill:#ff6e41;fill-opacity:0;stroke:#ff6e41;stroke-width:0.45320746;stroke-linecap:round;stroke-linejoin:round;stroke-opacity:1"
       inkscape:connector-curvature="0"
       id="path6034"
       d="m 124.64742,35.230646 h 11.33019" />
  </g>
</svg>
