<?xml version="1.0" encoding="UTF-8" standalone="no"?>
<!-- Created with Inkscape (http://www.inkscape.org/) -->

<svg
   xmlns:dc="http://purl.org/dc/elements/1.1/"
   xmlns:cc="http://creativecommons.org/ns#"
   xmlns:rdf="http://www.w3.org/1999/02/22-rdf-syntax-ns#"
   xmlns:svg="http://www.w3.org/2000/svg"
   xmlns="http://www.w3.org/2000/svg"
   xmlns:sodipodi="http://sodipodi.sourceforge.net/DTD/sodipodi-0.dtd"
   xmlns:inkscape="http://www.inkscape.org/namespaces/inkscape"
   width="158.75011mm"
   height="91.862778mm"
   viewBox="0 0 158.75011 91.862778"
   version="1.1"
   id="svg21894"
   inkscape:version="0.92.4 (5da689c313, 2019-01-14)"
   sodipodi:docname="31.svg">
  <defs
     id="defs21888" />
  <sodipodi:namedview
     id="base"
     pagecolor="#ffffff"
     bordercolor="#666666"
     borderopacity="1.0"
     inkscape:pageopacity="0.0"
     inkscape:pageshadow="2"
     inkscape:zoom="0.35"
     inkscape:cx="-1098.4119"
     inkscape:cy="40.888938"
     inkscape:document-units="mm"
     inkscape:current-layer="layer1"
     showgrid="false"
     inkscape:window-width="1920"
     inkscape:window-height="1027"
     inkscape:window-x="-8"
     inkscape:window-y="1072"
     inkscape:window-maximized="1" />
  <metadata
     id="metadata21891">
    <rdf:RDF>
      <cc:Work
         rdf:about="">
        <dc:format>image/svg+xml</dc:format>
        <dc:type
           rdf:resource="http://purl.org/dc/dcmitype/StillImage" />
        <dc:title />
      </cc:Work>
    </rdf:RDF>
  </metadata>
  <g
     inkscape:label="Vrstva 1"
     inkscape:groupmode="layer"
     id="layer1"
     transform="translate(-67.615541,-67.789083)">
    <g
       transform="matrix(0.00691716,0,0,0.00691716,-472.40714,31.474013)"
       id="g1910"
       style="fill:#ff6e42;fill-opacity:1;stroke:#ff6e42;stroke-width:60;stroke-linecap:round;stroke-linejoin:round;stroke-opacity:1">
      <rect
         id="rect1906"
         rx="0"
         height="100"
         width="1800"
         y="11800"
         x="78100" />
      <rect
         id="rect1908"
         rx="0"
         height="200"
         width="1200"
         y="12030"
         x="78380" />
    </g>
    <g
       transform="matrix(0.00691716,0,0,0.00691716,-472.40714,31.474013)"
       id="g1916"
       style="fill:#ff6e42;fill-opacity:0;stroke:#ff6e42;stroke-width:60;stroke-linecap:round;stroke-linejoin:round;stroke-opacity:1">
      <path
         inkscape:connector-curvature="0"
         id="path1912"
         d="m 79000,12200 v 300"
         style="fill:none;fill-opacity:0;stroke:#ff6e42;stroke-width:60;stroke-linecap:round;stroke-linejoin:round;stroke-opacity:1" />
      <path
         inkscape:connector-curvature="0"
         id="path1914"
         d="m 79000,11800 v -300"
         style="fill:none;fill-opacity:0;stroke:#ff6e42;stroke-width:60;stroke-linecap:round;stroke-linejoin:round;stroke-opacity:1" />
    </g>
    <g
       transform="matrix(0.00691716,0,0,0.00691716,-472.40714,31.474013)"
       id="g1922"
       style="fill:#ff6e42;fill-opacity:0;stroke:#ff6e42;stroke-width:100;stroke-linecap:round;stroke-linejoin:round;stroke-opacity:1">
      <path
         inkscape:connector-curvature="0"
         id="path1918"
         d="m 79200,11150 h 400"
         style="fill:none;fill-opacity:0;stroke:#ff6e42;stroke-width:100;stroke-linecap:round;stroke-linejoin:round;stroke-opacity:1" />
      <path
         inkscape:connector-curvature="0"
         id="path1920"
         d="m 79400,10950 v 400"
         style="fill:none;fill-opacity:0;stroke:#ff6e42;stroke-width:100;stroke-linecap:round;stroke-linejoin:round;stroke-opacity:1" />
    </g>
    <g
       transform="matrix(0.00691716,0,0,0.00691716,-472.40714,31.474013)"
       id="g1928"
       style="fill:#ff6e42;fill-opacity:0;stroke:#ff6e42;stroke-width:60;stroke-linecap:round;stroke-linejoin:round;stroke-opacity:1">
      <path
         inkscape:connector-curvature="0"
         id="path1924"
         d="M 79000,11500 V 10500" />
      <path
         inkscape:connector-curvature="0"
         id="path1926"
         d="m 79000,12500 v 1000" />
    </g>
    <g
       transform="matrix(0.00691716,0,0,0.00691716,-472.40714,31.474013)"
       id="g1988"
       style="fill:#ff6e42;fill-opacity:0;stroke:#ff6e42;stroke-width:100;stroke-linecap:round;stroke-linejoin:round;stroke-opacity:1">
      <rect
         id="rect1986"
         rx="0"
         height="2000"
         width="800"
         y="11000"
         x="92100" />
    </g>
    <g
       transform="matrix(0.00691716,0,0,0.00691716,-472.40714,31.474013)"
       id="g1994"
       style="fill:#ff6e42;fill-opacity:0;stroke:#ff6e42;stroke-width:60;stroke-linecap:round;stroke-linejoin:round;stroke-opacity:1">
      <path
         inkscape:connector-curvature="0"
         id="path1990"
         d="m 92500,13000 v 500" />
      <path
         inkscape:connector-curvature="0"
         id="path1992"
         d="m 92500,11000 v -500" />
    </g>
    <g
       transform="matrix(0.00691716,0,0,0.00691716,-472.40714,31.474013)"
       id="g2020"
       style="fill:#ffffff;fill-opacity:0;stroke:#ffffff;stroke-width:60;stroke-linecap:round;stroke-linejoin:round;stroke-opacity:1">
      <text
         style="font-size:660px;text-anchor:middle;opacity:0"
         id="text1996"
         lengthAdjust="spacingAndGlyphs"
         font-size="660"
         textLength="560"
         y="11720"
         x="94000">R</text>
      <path
         inkscape:connector-curvature="0"
         id="path1998"
         d="m 94150,11690 -170,-240" />
      <path
         inkscape:connector-curvature="0"
         id="path2000"
         d="m 93860,11690 v -500 h 190 l 50,30 30,20 20,50 v 70 l -20,50 -30,20 -50,20 h -190" />
      <text
         style="font-size:660px;text-anchor:middle;opacity:0"
         id="text2002"
         lengthAdjust="spacingAndGlyphs"
         font-size="660"
         textLength="2460"
         y="12720"
         x="94500">100kΩ</text>
      <path
         inkscape:connector-curvature="0"
         id="path2004"
         d="m 93670,12690 h -280" />
      <path
         inkscape:connector-curvature="0"
         id="path2006"
         d="m 93530,12690 v -500 l -50,70 -40,50 -50,20" />
      <path
         inkscape:connector-curvature="0"
         id="path2008"
         d="m 93980,12190 h 50 l 50,30 20,20 30,50 20,90 v 120 l -20,100 -30,40 -20,30 -50,20 h -50 l -40,-20 -30,-30 -20,-40 -30,-100 v -120 l 30,-90 20,-50 30,-20 40,-30" />
      <path
         inkscape:connector-curvature="0"
         id="path2010"
         d="m 94460,12190 h 50 l 40,30 30,20 20,50 30,90 v 120 l -30,100 -20,40 -30,30 -40,20 h -50 l -50,-20 -20,-30 -30,-40 -20,-100 v -120 l 20,-90 30,-50 20,-20 50,-30" />
      <path
         inkscape:connector-curvature="0"
         id="path2012"
         d="m 94840,12690 v -500" />
      <path
         inkscape:connector-curvature="0"
         id="path2014"
         d="m 94890,12500 140,190" />
      <path
         inkscape:connector-curvature="0"
         id="path2016"
         d="m 95030,12360 -190,190" />
      <path
         inkscape:connector-curvature="0"
         id="path2018"
         d="m 95220,12690 h 120 v -90 l -50,-30 -40,-50 -30,-70 v -120 l 30,-70 40,-40 70,-30 h 100 l 70,30 50,40 20,70 v 120 l -20,70 -50,50 -50,30 v 90 h 120" />
    </g>
    <g
       transform="matrix(0.00691716,0,0,0.00691716,-472.40714,31.474013)"
       id="g2032"
       style="fill:#ff6e42;fill-opacity:1;stroke:#ff6e42;stroke-width:60;stroke-linecap:round;stroke-linejoin:round;stroke-opacity:1">
      <rect
         id="rect2028"
         rx="0"
         height="100"
         width="1800"
         y="13800"
         x="88100" />
      <rect
         id="rect2030"
         rx="0"
         height="200"
         width="1200"
         y="14030"
         x="88380" />
    </g>
    <g
       transform="matrix(0.00691716,0,0,0.00691716,-472.40714,31.474013)"
       id="g2038"
       style="fill:#ff6e42;fill-opacity:0;stroke:#ff6e42;stroke-width:60;stroke-linecap:round;stroke-linejoin:round;stroke-opacity:1">
      <path
         inkscape:connector-curvature="0"
         id="path2034"
         d="m 89000,14200 v 300"
         style="fill:none;fill-opacity:0;stroke:#ff6e42;stroke-width:60;stroke-linecap:round;stroke-linejoin:round;stroke-opacity:1" />
      <path
         inkscape:connector-curvature="0"
         id="path2036"
         d="m 89000,13800 v -300"
         style="fill:none;fill-opacity:0;stroke:#ff6e42;stroke-width:60;stroke-linecap:round;stroke-linejoin:round;stroke-opacity:1" />
    </g>
    <g
       transform="matrix(0.00691716,0,0,0.00691716,-472.40714,31.474013)"
       id="g2044"
       style="fill:#ff6e42;fill-opacity:0;stroke:#ff6e42;stroke-width:100;stroke-linecap:round;stroke-linejoin:round;stroke-opacity:1">
      <path
         inkscape:connector-curvature="0"
         id="path2040"
         d="m 89200,13150 h 400"
         style="fill:none;fill-opacity:0;stroke:#ff6e42;stroke-width:100;stroke-linecap:round;stroke-linejoin:round;stroke-opacity:1" />
      <path
         inkscape:connector-curvature="0"
         id="path2042"
         d="m 89400,12950 v 400"
         style="fill:none;fill-opacity:0;stroke:#ff6e42;stroke-width:100;stroke-linecap:round;stroke-linejoin:round;stroke-opacity:1" />
    </g>
    <g
       transform="matrix(0.00691716,0,0,0.00691716,-472.40714,31.474013)"
       id="g2050"
       style="fill:#ff6e42;fill-opacity:0;stroke:#ff6e42;stroke-width:60;stroke-linecap:round;stroke-linejoin:round;stroke-opacity:1">
      <path
         inkscape:connector-curvature="0"
         id="path2046"
         d="M 89000,13500 V 12500" />
      <path
         inkscape:connector-curvature="0"
         id="path2048"
         d="m 89000,14500 v 1000" />
    </g>
    <g
       transform="matrix(0.00691716,0,0,0.00691716,-472.40714,31.474013)"
       id="g2362"
       style="fill:#ff6e42;fill-opacity:0;stroke:#ff6e42;stroke-width:100;stroke-linecap:round;stroke-linejoin:round;stroke-opacity:1">
      <path
         inkscape:connector-curvature="0"
         id="path2360"
         d="M 84000,12500 H 83000"
         style="fill:none;fill-opacity:0;stroke:#ff6e42;stroke-width:100;stroke-linecap:round;stroke-linejoin:round;stroke-opacity:1" />
    </g>
    <g
       transform="matrix(0.00691716,0,0,0.00691716,-472.40714,31.474013)"
       id="g2366"
       style="fill:#ff6e42;fill-opacity:0;stroke:#ff6e42;stroke-width:60;stroke-linecap:round;stroke-linejoin:round;stroke-opacity:1">
      <path
         inkscape:connector-curvature="0"
         id="path2364"
         d="M 83500,12500 V 11500"
         style="fill:none;fill-opacity:0;stroke:#ff6e42;stroke-width:60;stroke-linecap:round;stroke-linejoin:round;stroke-opacity:1" />
    </g>
    <g
       transform="matrix(0.00691716,0,0,0.00691716,-472.40714,31.474013)"
       id="g2370"
       style="fill:#ff6e42;fill-opacity:0;stroke:#ff6e42;stroke-width:100;stroke-linecap:round;stroke-linejoin:round;stroke-opacity:1">
      <path
         inkscape:connector-curvature="0"
         id="path2368"
         d="m 84000,11500 h -1000 l 500,1000 z"
         style="fill:none;fill-opacity:0;stroke:#ff6e42;stroke-width:100;stroke-linecap:round;stroke-linejoin:round;stroke-opacity:1" />
    </g>
    <g
       transform="matrix(0.00691716,0,0,0.00691716,-472.40714,31.474013)"
       id="g2380"
       style="fill:#ff6e42;fill-opacity:0;stroke:#ff6e42;stroke-width:60;stroke-linecap:round;stroke-linejoin:round;stroke-opacity:1">
      <path
         inkscape:connector-curvature="0"
         id="path2372"
         d="m 83800,13200 600,600 v -300 300 h -300"
         style="fill:none;fill-opacity:0;stroke:#ff6e42;stroke-width:60;stroke-linecap:round;stroke-linejoin:round;stroke-opacity:1" />
      <path
         inkscape:connector-curvature="0"
         id="path2374"
         d="m 83800,12700 600,600 v -300 300 h -300"
         style="fill:none;fill-opacity:0;stroke:#ff6e42;stroke-width:60;stroke-linecap:round;stroke-linejoin:round;stroke-opacity:1" />
      <path
         inkscape:connector-curvature="0"
         id="path2376"
         d="m 83500,12500 v 1000" />
      <path
         inkscape:connector-curvature="0"
         id="path2378"
         d="M 83500,11500 V 10500" />
    </g>
    <text
       transform="matrix(0.00691716,0,0,0.00691716,-472.40714,31.474013)"
       x="85390"
       y="12740"
       textLength="1420"
       font-size="660"
       lengthAdjust="spacingAndGlyphs"
       id="text2390"
       style="font-size:660px;text-anchor:middle;opacity:0;fill:#ffffff;fill-opacity:0;stroke:#ffffff;stroke-width:60;stroke-linecap:round;stroke-linejoin:round;stroke-opacity:1">LED</text>
    <path
       style="fill:#ffffff;fill-opacity:0;stroke:#ffffff;stroke-width:0.41502929;stroke-linecap:round;stroke-linejoin:round;stroke-opacity:1"
       d="m 115.96608,119.39106 h -1.59095 v -3.45858"
       id="path2392"
       inkscape:connector-curvature="0" />
    <path
       style="fill:#ffffff;fill-opacity:0;stroke:#ffffff;stroke-width:0.41502929;stroke-linecap:round;stroke-linejoin:round;stroke-opacity:1"
       d="m 117.142,117.5926 h 1.17591"
       id="path2394"
       inkscape:connector-curvature="0" />
    <path
       style="fill:#ffffff;fill-opacity:0;stroke:#ffffff;stroke-width:0.41502929;stroke-linecap:round;stroke-linejoin:round;stroke-opacity:1"
       d="M 118.80211,119.39106 H 117.142 v -3.45858 h 1.66011"
       id="path2396"
       inkscape:connector-curvature="0" />
    <path
       style="fill:#ffffff;fill-opacity:0;stroke:#ffffff;stroke-width:0.41502929;stroke-linecap:round;stroke-linejoin:round;stroke-opacity:1"
       d="m 120.25472,119.39106 v -3.45858 h 0.83005 l 0.48421,0.20751 0.34585,0.27669 0.13835,0.34586 0.20751,0.69171 v 0.4842 l -0.20751,0.62255 -0.13835,0.34586 -0.34585,0.34585 -0.48421,0.13835 h -0.83005"
       id="path2398"
       inkscape:connector-curvature="0" />
    <g
       transform="matrix(0.00691716,0,0,0.00691716,-472.40714,31.474013)"
       id="g2410"
       style="fill:#ff6e42;fill-opacity:0;stroke:#ff6e42;stroke-width:100;stroke-linecap:round;stroke-linejoin:round;stroke-opacity:1">
      <rect
         id="rect2408"
         rx="0"
         height="800"
         width="2000"
         y="9100"
         x="80500" />
    </g>
    <g
       transform="matrix(0.00691716,0,0,0.00691716,-472.40714,31.474013)"
       id="g2416"
       style="fill:#ff6e42;fill-opacity:0;stroke:#ff6e42;stroke-width:60;stroke-linecap:round;stroke-linejoin:round;stroke-opacity:1">
      <path
         inkscape:connector-curvature="0"
         id="path2412"
         d="m 82500,9500 h 500" />
      <path
         inkscape:connector-curvature="0"
         id="path2414"
         d="m 80500,9500 h -500" />
    </g>
    <g
       transform="matrix(0.00691716,0,0,0.00691716,-472.40714,31.474013)"
       id="g2436"
       style="fill:#ffffff;fill-opacity:0;stroke:#ffffff;stroke-width:60;stroke-linecap:round;stroke-linejoin:round;stroke-opacity:1">
      <text
         style="font-size:660px;text-anchor:middle;opacity:0"
         id="text2418"
         lengthAdjust="spacingAndGlyphs"
         font-size="660"
         textLength="560"
         y="7770"
         x="81500">R</text>
      <path
         inkscape:connector-curvature="0"
         id="path2420"
         d="m 81650,7740 -170,-240" />
      <path
         inkscape:connector-curvature="0"
         id="path2422"
         d="m 81360,7740 v -500 h 190 l 50,30 30,20 20,50 v 70 l -20,50 -30,20 -50,20 h -190" />
      <text
         style="font-size:660px;text-anchor:middle;opacity:0"
         id="text2424"
         lengthAdjust="spacingAndGlyphs"
         font-size="660"
         textLength="2060"
         y="8610"
         x="81500">180Ω</text>
      <path
         inkscape:connector-curvature="0"
         id="path2426"
         d="m 80880,8580 h -290" />
      <path
         inkscape:connector-curvature="0"
         id="path2428"
         d="m 80730,8580 v -500 l -40,70 -50,50 -50,20" />
      <path
         inkscape:connector-curvature="0"
         id="path2430"
         d="m 81160,8300 -50,-30 -20,-20 -20,-50 v -20 l 20,-50 20,-20 50,-30 h 100 l 40,30 30,20 20,50 v 20 l -20,50 -30,20 -40,30 h -100 l -50,20 -20,20 -20,50 v 100 l 20,40 20,30 50,20 h 100 l 40,-20 30,-30 20,-40 v -100 l -20,-50 -30,-20 -40,-20" />
      <path
         inkscape:connector-curvature="0"
         id="path2432"
         d="m 81660,8080 h 50 l 50,30 20,20 20,50 30,90 v 120 l -30,100 -20,40 -20,30 -50,20 h -50 l -50,-20 -20,-30 -20,-40 -30,-100 v -120 l 30,-90 20,-50 20,-20 50,-30" />
      <path
         inkscape:connector-curvature="0"
         id="path2434"
         d="m 82020,8580 h 120 v -90 l -50,-30 -50,-50 -20,-70 v -120 l 20,-70 50,-40 70,-30 h 100 l 70,30 50,40 20,70 v 120 l -20,70 -50,50 -50,30 v 90 h 120" />
    </g>
    <g
       transform="matrix(0.00691716,0,0,0.00691716,-472.40714,31.474013)"
       id="g2446"
       style="fill:#ff6e42;fill-opacity:0;stroke:#ff6e42;stroke-width:100;stroke-linecap:round;stroke-linejoin:round;stroke-opacity:1">
      <path
         inkscape:connector-curvature="0"
         id="path2444"
         d="M 98500,8000 H 97500"
         style="fill:none;fill-opacity:0;stroke:#ff6e42;stroke-width:100;stroke-linecap:round;stroke-linejoin:round;stroke-opacity:1" />
    </g>
    <g
       transform="matrix(0.00691716,0,0,0.00691716,-472.40714,31.474013)"
       id="g2450"
       style="fill:#ff6e42;fill-opacity:0;stroke:#ff6e42;stroke-width:60;stroke-linecap:round;stroke-linejoin:round;stroke-opacity:1">
      <path
         inkscape:connector-curvature="0"
         id="path2448"
         d="M 98000,8000 V 7000"
         style="fill:none;fill-opacity:0;stroke:#ff6e42;stroke-width:60;stroke-linecap:round;stroke-linejoin:round;stroke-opacity:1" />
    </g>
    <g
       transform="matrix(0.00691716,0,0,0.00691716,-472.40714,31.474013)"
       id="g2454"
       style="fill:#ff6e42;fill-opacity:0;stroke:#ff6e42;stroke-width:100;stroke-linecap:round;stroke-linejoin:round;stroke-opacity:1">
      <path
         inkscape:connector-curvature="0"
         id="path2452"
         d="m 98500,7000 h -1000 l 500,1000 z"
         style="fill:none;fill-opacity:0;stroke:#ff6e42;stroke-width:100;stroke-linecap:round;stroke-linejoin:round;stroke-opacity:1" />
    </g>
    <g
       transform="matrix(0.00691716,0,0,0.00691716,-472.40714,31.474013)"
       id="g2464"
       style="fill:#ff6e42;fill-opacity:0;stroke:#ff6e42;stroke-width:60;stroke-linecap:round;stroke-linejoin:round;stroke-opacity:1">
      <path
         inkscape:connector-curvature="0"
         id="path2456"
         d="m 98300,8700 600,600 v -300 300 h -300"
         style="fill:none;fill-opacity:0;stroke:#ff6e42;stroke-width:60;stroke-linecap:round;stroke-linejoin:round;stroke-opacity:1" />
      <path
         inkscape:connector-curvature="0"
         id="path2458"
         d="m 98300,8200 600,600 v -300 300 h -300"
         style="fill:none;fill-opacity:0;stroke:#ff6e42;stroke-width:60;stroke-linecap:round;stroke-linejoin:round;stroke-opacity:1" />
      <path
         inkscape:connector-curvature="0"
         id="path2460"
         d="M 98000,8000 V 9000" />
      <path
         inkscape:connector-curvature="0"
         id="path2462"
         d="M 98000,7000 V 6000" />
    </g>
    <text
       transform="matrix(0.00691716,0,0,0.00691716,-472.40714,31.474013)"
       x="99890"
       y="8240"
       textLength="1420"
       font-size="660"
       lengthAdjust="spacingAndGlyphs"
       id="text2474"
       style="font-size:660px;text-anchor:middle;opacity:0;fill:#ffffff;fill-opacity:0;stroke:#ffffff;stroke-width:60;stroke-linecap:round;stroke-linejoin:round;stroke-opacity:1">LED</text>
    <path
       style="fill:#ffffff;fill-opacity:0;stroke:#ffffff;stroke-width:0.41502929;stroke-linecap:round;stroke-linejoin:round;stroke-opacity:1"
       d="m 216.26484,88.263858 h -1.59095 V 84.80528"
       id="path2476"
       inkscape:connector-curvature="0" />
    <path
       style="fill:#ffffff;fill-opacity:0;stroke:#ffffff;stroke-width:0.41502929;stroke-linecap:round;stroke-linejoin:round;stroke-opacity:1"
       d="m 217.44075,86.465397 h 1.17592"
       id="path2478"
       inkscape:connector-curvature="0" />
    <path
       style="fill:#ffffff;fill-opacity:0;stroke:#ffffff;stroke-width:0.41502929;stroke-linecap:round;stroke-linejoin:round;stroke-opacity:1"
       d="m 219.10087,88.263858 h -1.66012 V 84.80528 h 1.66012"
       id="path2480"
       inkscape:connector-curvature="0" />
    <path
       style="fill:#ffffff;fill-opacity:0;stroke:#ffffff;stroke-width:0.41502929;stroke-linecap:round;stroke-linejoin:round;stroke-opacity:1"
       d="M 220.55347,88.263858 V 84.80528 h 0.83006 l 0.4842,0.207515 0.34586,0.276686 0.13834,0.345858 0.20752,0.691715 v 0.484201 l -0.20752,0.622544 -0.13834,0.345858 -0.34586,0.345858 -0.4842,0.138343 h -0.83006"
       id="path2482"
       inkscape:connector-curvature="0" />
    <g
       transform="matrix(0.00691716,0,0,0.00691716,-472.40714,31.474013)"
       id="g3258"
       style="fill:#ff6e42;fill-opacity:0;stroke:#ff6e42;stroke-width:100;stroke-linecap:round;stroke-linejoin:round;stroke-opacity:1">
      <rect
         id="rect3256"
         rx="0"
         height="2000"
         width="800"
         y="10500"
         x="97600" />
    </g>
    <g
       transform="matrix(0.00691716,0,0,0.00691716,-472.40714,31.474013)"
       id="g3264"
       style="fill:#ff6e42;fill-opacity:0;stroke:#ff6e42;stroke-width:60;stroke-linecap:round;stroke-linejoin:round;stroke-opacity:1">
      <path
         inkscape:connector-curvature="0"
         id="path3260"
         d="m 98000,12500 v 500" />
      <path
         inkscape:connector-curvature="0"
         id="path3262"
         d="m 98000,10500 v -500" />
    </g>
    <g
       transform="matrix(0.00691716,0,0,0.00691716,-472.40714,31.474013)"
       id="g3284"
       style="fill:#ffffff;fill-opacity:0;stroke:#ffffff;stroke-width:60;stroke-linecap:round;stroke-linejoin:round;stroke-opacity:1">
      <text
         style="font-size:660px;text-anchor:middle;opacity:0"
         id="text3266"
         lengthAdjust="spacingAndGlyphs"
         font-size="660"
         textLength="560"
         y="11220"
         x="99500">R</text>
      <path
         inkscape:connector-curvature="0"
         id="path3268"
         d="m 99650,11190 -170,-240" />
      <path
         inkscape:connector-curvature="0"
         id="path3270"
         d="m 99360,11190 v -500 h 190 l 50,30 30,20 20,50 v 70 l -20,50 -30,20 -50,20 h -190" />
      <text
         style="font-size:660px;text-anchor:middle;opacity:0"
         id="text3272"
         lengthAdjust="spacingAndGlyphs"
         font-size="660"
         textLength="2060"
         y="12220"
         x="100000">180Ω</text>
      <path
         inkscape:connector-curvature="0"
         id="path3274"
         d="m 99380,12190 h -290" />
      <path
         inkscape:connector-curvature="0"
         id="path3276"
         d="m 99230,12190 v -500 l -40,70 -50,50 -50,20" />
      <path
         inkscape:connector-curvature="0"
         id="path3278"
         d="m 99660,11910 -50,-30 -20,-20 -20,-50 v -20 l 20,-50 20,-20 50,-30 h 100 l 40,30 30,20 20,50 v 20 l -20,50 -30,20 -40,30 h -100 l -50,20 -20,20 -20,50 v 100 l 20,40 20,30 50,20 h 100 l 40,-20 30,-30 20,-40 v -100 l -20,-50 -30,-20 -40,-20" />
      <path
         inkscape:connector-curvature="0"
         id="path3280"
         d="m 100160,11690 h 50 l 50,30 20,20 20,50 30,90 v 120 l -30,100 -20,40 -20,30 -50,20 h -50 l -50,-20 -20,-30 -20,-40 -30,-100 v -120 l 30,-90 20,-50 20,-20 50,-30" />
      <path
         inkscape:connector-curvature="0"
         id="path3282"
         d="m 100520,12190 h 120 v -90 l -50,-30 -50,-50 -20,-70 v -120 l 20,-70 50,-40 70,-30 h 100 l 70,30 50,40 20,70 v 120 l -20,70 -50,50 -50,30 v 90 h 120" />
    </g>
    <g
       transform="matrix(0.00691716,0,0,0.00691716,-472.40714,31.474013)"
       id="g3294"
       style="fill:#ff6e42;fill-opacity:0;stroke:#ff6e42;stroke-width:100;stroke-linecap:round;stroke-linejoin:round;stroke-opacity:1">
      <circle
         id="circle3292"
         r="1110"
         cy="16000"
         cx="97500" />
    </g>
    <g
       transform="matrix(0.00691716,0,0,0.00691716,-472.40714,31.474013)"
       id="g3310"
       style="fill:#ff6e42;fill-opacity:0;stroke:#ff6e42;stroke-width:60;stroke-linecap:round;stroke-linejoin:round;stroke-opacity:1">
      <text
         style="font-size:660px;text-anchor:middle;opacity:0"
         id="text3296"
         lengthAdjust="spacingAndGlyphs"
         font-size="660"
         textLength="560"
         y="14770"
         x="98500">C</text>
      <path
         inkscape:connector-curvature="0"
         id="path3298"
         d="m 98650,14690 -20,30 -80,20 h -40 l -70,-20 -50,-50 -30,-50 -20,-90 v -70 l 20,-100 30,-50 50,-40 70,-30 h 40 l 80,30 20,20" />
      <text
         style="font-size:660px;text-anchor:middle;opacity:0"
         id="text3300"
         lengthAdjust="spacingAndGlyphs"
         font-size="660"
         textLength="510"
         y="17770"
         x="98500">E</text>
      <path
         inkscape:connector-curvature="0"
         id="path3302"
         d="m 98390,17480 h 160" />
      <path
         inkscape:connector-curvature="0"
         id="path3304"
         d="m 98630,17740 h -240 v -500 h 240" />
      <path
         inkscape:connector-curvature="0"
         id="path3306"
         d="m 97250,15750 750,-750"
         style="fill:none;fill-opacity:0;stroke:#ff6e42;stroke-width:60;stroke-linecap:round;stroke-linejoin:round;stroke-opacity:1" />
      <path
         inkscape:connector-curvature="0"
         id="path3308"
         d="m 97250,16250 750,750 v 0"
         style="fill:none;fill-opacity:0;stroke:#ff6e42;stroke-width:60;stroke-linecap:round;stroke-linejoin:round;stroke-opacity:1" />
    </g>
    <g
       transform="matrix(0.00691716,0,0,0.00691716,-472.40714,31.474013)"
       id="g3314"
       style="fill:#ff6e42;fill-opacity:0;stroke:#ff6e42;stroke-width:200;stroke-linecap:round;stroke-linejoin:round;stroke-opacity:1">
      <path
         inkscape:connector-curvature="0"
         id="path3312"
         d="m 97250,15250 v 1500 0"
         style="fill:none;fill-opacity:0;stroke:#ff6e42;stroke-width:200;stroke-linecap:round;stroke-linejoin:round;stroke-opacity:1" />
    </g>
    <g
       transform="matrix(0.00691716,0,0,0.00691716,-472.40714,31.474013)"
       id="g3318"
       style="fill:#ff6e42;fill-opacity:1;stroke:#ff6e42;stroke-width:60;stroke-linecap:round;stroke-linejoin:round;stroke-opacity:1">
      <path
         inkscape:connector-curvature="0"
         id="path3316"
         d="m 97500,16700 200,-200 200,400 z"
         style="fill:#ff6e42;fill-opacity:1;fill-rule:evenodd;stroke:#ff6e42;stroke-width:60;stroke-linecap:round;stroke-linejoin:round;stroke-opacity:1" />
    </g>
    <g
       transform="matrix(0.00691716,0,0,0.00691716,-472.40714,31.474013)"
       id="g3338"
       style="fill:#ff6e42;fill-opacity:0;stroke:#ff6e42;stroke-width:60;stroke-linecap:round;stroke-linejoin:round;stroke-opacity:1">
      <path
         inkscape:connector-curvature="0"
         id="path3320"
         d="M 97250,16000 H 95000" />
      <text
         style="font-size:660px;text-anchor:middle;opacity:0"
         id="text3322"
         lengthAdjust="spacingAndGlyphs"
         font-size="660"
         textLength="560"
         y="16600"
         x="96120">B</text>
      <path
         inkscape:connector-curvature="0"
         id="path3324"
         d="m 96150,16310 70,20 30,30 20,40 v 80 l -20,40 -30,30 -50,20 h -190 v -500 h 170 l 50,30 20,20 30,50 v 40 l -30,50 -20,30 -50,20 h -170" />
      <path
         inkscape:connector-curvature="0"
         id="path3326"
         d="M 98000,15000 V 14000" />
      <g
         id="g3330"
         transform="rotate(-90,98100,14500)">
        <text
           style="font-size:660px;text-anchor:middle;opacity:0"
           id="text3328"
           lengthAdjust="spacingAndGlyphs"
           font-size="660"
           textLength="60"
           y="15000"
           x="98100">~</text>
      </g>
      <path
         inkscape:connector-curvature="0"
         id="path3332"
         d="m 98000,17000 v 1000" />
      <g
         id="g3336"
         transform="rotate(-90,98100,17500)">
        <text
           style="font-size:660px;text-anchor:middle;opacity:0"
           id="text3334"
           lengthAdjust="spacingAndGlyphs"
           font-size="660"
           textLength="60"
           y="18000"
           x="98100">~</text>
      </g>
    </g>
    <path
       style="fill:#ff6e41;fill-opacity:0;stroke:#ff6e41;stroke-width:0.41502929;stroke-linecap:round;stroke-linejoin:round;stroke-opacity:1"
       inkscape:connector-curvature="0"
       id="path5548"
       d="m 205.47407,159.44139 h -62.2544" />
    <path
       style="fill:#ff6e41;fill-opacity:0;stroke:#ff6e41;stroke-width:0.41502929;stroke-linecap:round;stroke-linejoin:round;stroke-opacity:1"
       inkscape:connector-curvature="0"
       id="path5550"
       d="M 143.21967,159.44139 V 138.68992" />
    <path
       style="fill:#ff6e41;fill-opacity:0;stroke:#ff6e41;stroke-width:0.41502929;stroke-linecap:round;stroke-linejoin:round;stroke-opacity:1"
       inkscape:connector-curvature="0"
       id="path5560"
       d="M 143.21967,117.93845 V 69.518367" />
    <path
       style="fill:#ff6e41;fill-opacity:0;stroke:#ff6e41;stroke-width:0.41502929;stroke-linecap:round;stroke-linejoin:round;stroke-opacity:1"
       inkscape:connector-curvature="0"
       id="path5568"
       d="M 205.47407,100.64557 V 93.72841" />
    <path
       style="fill:#ff6e41;fill-opacity:0;stroke:#ff6e41;stroke-width:0.41502929;stroke-linecap:round;stroke-linejoin:round;stroke-opacity:1"
       inkscape:connector-curvature="0"
       id="path5570"
       d="m 205.47407,128.31419 v -6.91716" />
    <path
       style="fill:#ff6e41;fill-opacity:0;stroke:#ff6e41;stroke-width:0.41502929;stroke-linecap:round;stroke-linejoin:round;stroke-opacity:1"
       inkscape:connector-curvature="0"
       id="path5572"
       d="m 143.21967,69.518367 h 24.21005" />
    <path
       style="fill:#ff6e41;fill-opacity:0;stroke:#ff6e41;stroke-width:0.41502929;stroke-linecap:round;stroke-linejoin:round;stroke-opacity:1"
       inkscape:connector-curvature="0"
       id="path5574"
       d="m 205.47407,69.518367 v 3.458578" />
    <path
       style="fill:#ff6e41;fill-opacity:0;stroke:#ff6e41;stroke-width:0.41502929;stroke-linecap:round;stroke-linejoin:round;stroke-opacity:1"
       inkscape:connector-curvature="0"
       id="path5576"
       d="M 167.42972,104.10414 V 69.518367" />
    <path
       style="fill:#ff6e41;fill-opacity:0;stroke:#ff6e41;stroke-width:0.41502929;stroke-linecap:round;stroke-linejoin:round;stroke-opacity:1"
       inkscape:connector-curvature="0"
       id="path5578"
       d="m 167.42972,69.518367 h 38.04435" />
    <path
       style="fill:#ff6e41;fill-opacity:0;stroke:#ff6e41;stroke-width:0.41502929;stroke-linecap:round;stroke-linejoin:round;stroke-opacity:1"
       inkscape:connector-curvature="0"
       id="path5580"
       d="M 167.42972,124.85561 V 142.1485" />
    <path
       style="fill:#ff6e41;fill-opacity:0;stroke:#ff6e41;stroke-width:0.41502929;stroke-linecap:round;stroke-linejoin:round;stroke-opacity:1"
       inkscape:connector-curvature="0"
       id="path5584"
       d="m 167.42972,142.1485 h 17.29289" />
    <path
       style="fill:#ff6e41;fill-opacity:0;stroke:#ff6e41;stroke-width:0.41502929;stroke-linecap:round;stroke-linejoin:round;stroke-opacity:1"
       inkscape:connector-curvature="0"
       id="path5622"
       d="m 205.47407,155.98281 v 3.45858" />
    <path
       style="fill:#ff6e41;fill-opacity:0;stroke:#ff6e41;stroke-width:0.41502929;stroke-linecap:round;stroke-linejoin:round;stroke-opacity:1"
       inkscape:connector-curvature="0"
       id="path5628"
       d="M 74.048119,104.10414 V 97.186988" />
    <path
       style="fill:#ff6e41;fill-opacity:0;stroke:#ff6e41;stroke-width:0.41502929;stroke-linecap:round;stroke-linejoin:round;stroke-opacity:1"
       inkscape:connector-curvature="0"
       id="path5630"
       d="m 74.048119,97.186988 h 6.917155" />
    <path
       style="fill:#ff6e41;fill-opacity:0;stroke:#ff6e41;stroke-width:0.41502929;stroke-linecap:round;stroke-linejoin:round;stroke-opacity:1"
       inkscape:connector-curvature="0"
       id="path5632"
       d="m 101.71674,97.186988 h 3.45858" />
    <path
       style="fill:#ff6e41;fill-opacity:0;stroke:#ff6e41;stroke-width:0.41502929;stroke-linecap:round;stroke-linejoin:round;stroke-opacity:1"
       inkscape:connector-curvature="0"
       id="path5634"
       d="m 105.17532,97.186988 v 6.917152" />
    <path
       style="fill:#ff6e41;fill-opacity:0;stroke:#ff6e41;stroke-width:0.41502929;stroke-linecap:round;stroke-linejoin:round;stroke-opacity:1"
       inkscape:connector-curvature="0"
       id="path5638"
       d="m 74.048119,124.85561 v 6.91715" />
    <path
       style="fill:#ff6e41;fill-opacity:0;stroke:#ff6e41;stroke-width:0.41502929;stroke-linecap:round;stroke-linejoin:round;stroke-opacity:1"
       inkscape:connector-curvature="0"
       id="path5640"
       d="M 74.048119,131.77276 H 105.17532" />
    <path
       style="fill:#ff6e41;fill-opacity:0;stroke:#ff6e41;stroke-width:0.41502929;stroke-linecap:round;stroke-linejoin:round;stroke-opacity:1"
       inkscape:connector-curvature="0"
       id="path5642"
       d="m 105.17532,131.77276 v -6.91715" />
    <circle
       style="fill:#ff6e41;fill-opacity:1;stroke:#ff6e41;stroke-width:0.69171554;stroke-linecap:round;stroke-linejoin:round;stroke-opacity:1"
       id="circle6210"
       r="1.3834311"
       cy="69.518372"
       cx="167.42969" />
  </g>
</svg>
