<?xml version="1.0" encoding="UTF-8" standalone="no"?>
<!-- Created with Inkscape (http://www.inkscape.org/) -->

<svg
   xmlns:dc="http://purl.org/dc/elements/1.1/"
   xmlns:cc="http://creativecommons.org/ns#"
   xmlns:rdf="http://www.w3.org/1999/02/22-rdf-syntax-ns#"
   xmlns:svg="http://www.w3.org/2000/svg"
   xmlns="http://www.w3.org/2000/svg"
   xmlns:sodipodi="http://sodipodi.sourceforge.net/DTD/sodipodi-0.dtd"
   xmlns:inkscape="http://www.inkscape.org/namespaces/inkscape"
   width="158.75002mm"
   height="80.052956mm"
   viewBox="0 0 158.75002 80.052954"
   version="1.1"
   id="svg12474"
   inkscape:version="0.92.4 (5da689c313, 2019-01-14)"
   sodipodi:docname="11.svg">
  <defs
     id="defs12468" />
  <sodipodi:namedview
     id="base"
     pagecolor="#ffffff"
     bordercolor="#666666"
     borderopacity="1.0"
     inkscape:pageopacity="0.0"
     inkscape:pageshadow="2"
     inkscape:zoom="0.70000001"
     inkscape:cx="144.58831"
     inkscape:cy="-121.84294"
     inkscape:document-units="mm"
     inkscape:current-layer="layer1"
     showgrid="false"
     inkscape:window-width="1920"
     inkscape:window-height="1027"
     inkscape:window-x="-8"
     inkscape:window-y="1072"
     inkscape:window-maximized="1" />
  <metadata
     id="metadata12471">
    <rdf:RDF>
      <cc:Work
         rdf:about="">
        <dc:format>image/svg+xml</dc:format>
        <dc:type
           rdf:resource="http://purl.org/dc/dcmitype/StillImage" />
        <dc:title></dc:title>
      </cc:Work>
    </rdf:RDF>
  </metadata>
  <g
     inkscape:label="Vrstva 1"
     inkscape:groupmode="layer"
     id="layer1"
     transform="translate(172.74019,-61.446377)">
    <g
       transform="matrix(0.01093556,0,0,0.01093556,-239.11904,-28.334571)"
       id="g2896"
       style="fill:#ff6e42;fill-opacity:0;stroke:#ff6e42;stroke-width:60;stroke-linecap:round;stroke-linejoin:round;stroke-opacity:1">
      <circle
         id="circle2884"
         r="200"
         cy="10500"
         cx="9200" />
      <circle
         id="circle2886"
         r="200"
         cy="10500"
         cx="10800" />
      <path
         inkscape:connector-curvature="0"
         id="path2888"
         d="M 10000,10000 V 9300"
         style="fill:none;fill-opacity:0;stroke:#ff6e42;stroke-width:60;stroke-linecap:round;stroke-linejoin:round;stroke-opacity:1" />
      <path
         inkscape:connector-curvature="0"
         id="path2890"
         d="M 11000,10000 H 9000"
         style="fill:none;fill-opacity:0;stroke:#ff6e42;stroke-width:60;stroke-linecap:round;stroke-linejoin:round;stroke-opacity:1" />
      <path
         inkscape:connector-curvature="0"
         id="path2892"
         d="M 9000,10500 H 8000" />
      <path
         inkscape:connector-curvature="0"
         id="path2894"
         d="m 11000,10500 h 1000" />
    </g>
    <g
       transform="matrix(0.01093556,0,0,0.01093556,-239.11904,-28.334571)"
       id="g5272"
       style="fill:#ff6e42;fill-opacity:1;stroke:#ff6e42;stroke-width:60;stroke-linecap:round;stroke-linejoin:round;stroke-opacity:1">
      <rect
         id="rect5268"
         rx="0"
         height="100"
         width="1800"
         y="12800"
         x="6100" />
      <rect
         id="rect5270"
         rx="0"
         height="200"
         width="1200"
         y="13030"
         x="6380" />
    </g>
    <g
       transform="matrix(0.01093556,0,0,0.01093556,-239.11904,-28.334571)"
       id="g5278"
       style="fill:#ff6e42;fill-opacity:0;stroke:#ff6e42;stroke-width:60;stroke-linecap:round;stroke-linejoin:round;stroke-opacity:1">
      <path
         inkscape:connector-curvature="0"
         id="path5274"
         d="m 7000,13200 v 300"
         style="fill:none;fill-opacity:0;stroke:#ff6e42;stroke-width:60;stroke-linecap:round;stroke-linejoin:round;stroke-opacity:1" />
      <path
         inkscape:connector-curvature="0"
         id="path5276"
         d="m 7000,12800 v -300"
         style="fill:none;fill-opacity:0;stroke:#ff6e42;stroke-width:60;stroke-linecap:round;stroke-linejoin:round;stroke-opacity:1" />
    </g>
    <g
       transform="matrix(0.01093556,0,0,0.01093556,-239.11904,-28.334571)"
       id="g5284"
       style="fill:#ff6e42;fill-opacity:0;stroke:#ff6e42;stroke-width:100;stroke-linecap:round;stroke-linejoin:round;stroke-opacity:1">
      <path
         inkscape:connector-curvature="0"
         id="path5280"
         d="m 7200,12150 h 400"
         style="fill:none;fill-opacity:0;stroke:#ff6e42;stroke-width:100;stroke-linecap:round;stroke-linejoin:round;stroke-opacity:1" />
      <path
         inkscape:connector-curvature="0"
         id="path5282"
         d="m 7400,11950 v 400"
         style="fill:none;fill-opacity:0;stroke:#ff6e42;stroke-width:100;stroke-linecap:round;stroke-linejoin:round;stroke-opacity:1" />
    </g>
    <g
       transform="matrix(0.01093556,0,0,0.01093556,-239.11904,-28.334571)"
       id="g5290"
       style="fill:#ff6e42;fill-opacity:0;stroke:#ff6e42;stroke-width:60;stroke-linecap:round;stroke-linejoin:round;stroke-opacity:1">
      <path
         inkscape:connector-curvature="0"
         id="path5286"
         d="M 7000,12500 V 11500" />
      <path
         inkscape:connector-curvature="0"
         id="path5288"
         d="m 7000,13500 v 1000" />
    </g>
    <g
       transform="matrix(0.01093556,0,0,0.01093556,-239.11904,-28.334571)"
       id="g5350"
       style="fill:#ff6e42;fill-opacity:0;stroke:#ff6e42;stroke-width:100;stroke-linecap:round;stroke-linejoin:round;stroke-opacity:1">
      <path
         inkscape:connector-curvature="0"
         id="path5348"
         d="M 18500,13500 H 17500"
         style="fill:none;fill-opacity:0;stroke:#ff6e42;stroke-width:100;stroke-linecap:round;stroke-linejoin:round;stroke-opacity:1" />
    </g>
    <g
       transform="matrix(0.01093556,0,0,0.01093556,-239.11904,-28.334571)"
       id="g5354"
       style="fill:#ff6e42;fill-opacity:0;stroke:#ff6e42;stroke-width:60;stroke-linecap:round;stroke-linejoin:round;stroke-opacity:1">
      <path
         inkscape:connector-curvature="0"
         id="path5352"
         d="M 18000,13500 V 12500"
         style="fill:none;fill-opacity:0;stroke:#ff6e42;stroke-width:60;stroke-linecap:round;stroke-linejoin:round;stroke-opacity:1" />
    </g>
    <g
       transform="matrix(0.01093556,0,0,0.01093556,-239.11904,-28.334571)"
       id="g5358"
       style="fill:#ff6e42;fill-opacity:0;stroke:#ff6e42;stroke-width:100;stroke-linecap:round;stroke-linejoin:round;stroke-opacity:1">
      <path
         inkscape:connector-curvature="0"
         id="path5356"
         d="m 18500,12500 h -1000 l 500,1000 z"
         style="fill:none;fill-opacity:0;stroke:#ff6e42;stroke-width:100;stroke-linecap:round;stroke-linejoin:round;stroke-opacity:1" />
    </g>
    <g
       transform="matrix(0.01093556,0,0,0.01093556,-239.11904,-28.334571)"
       id="g5368"
       style="fill:#ff6e42;fill-opacity:0;stroke:#ff6e42;stroke-width:60;stroke-linecap:round;stroke-linejoin:round;stroke-opacity:1">
      <path
         inkscape:connector-curvature="0"
         id="path5360"
         d="m 18300,14200 600,600 v -300 300 h -300"
         style="fill:none;fill-opacity:0;stroke:#ff6e42;stroke-width:60;stroke-linecap:round;stroke-linejoin:round;stroke-opacity:1" />
      <path
         inkscape:connector-curvature="0"
         id="path5362"
         d="m 18300,13700 600,600 v -300 300 h -300"
         style="fill:none;fill-opacity:0;stroke:#ff6e42;stroke-width:60;stroke-linecap:round;stroke-linejoin:round;stroke-opacity:1" />
      <path
         inkscape:connector-curvature="0"
         id="path5364"
         d="m 18000,13500 v 1000" />
      <path
         inkscape:connector-curvature="0"
         id="path5366"
         d="M 18000,12500 V 11500" />
    </g>
    <text
       x="19890"
       y="13740"
       textLength="1420"
       font-size="660"
       lengthAdjust="spacingAndGlyphs"
       id="text5378"
       style="font-size:660px;text-anchor:middle;opacity:0;fill:#ffffff;fill-opacity:0;stroke:#ffffff;stroke-width:60;stroke-linecap:round;stroke-linejoin:round;stroke-opacity:1"
       transform="matrix(0.01093556,0,0,0.01093556,-239.11904,-28.334571)">LED</text>
    <path
       style="fill:#ffffff;fill-opacity:0;stroke:#ffffff;stroke-width:0.65613353;stroke-linecap:round;stroke-linejoin:round;stroke-opacity:1"
       d="m -25.219515,121.59194 h -2.515179 v -5.46778"
       id="path5380"
       inkscape:connector-curvature="0" />
    <path
       style="fill:#ffffff;fill-opacity:0;stroke:#ffffff;stroke-width:0.65613353;stroke-linecap:round;stroke-linejoin:round;stroke-opacity:1"
       d="m -23.360471,118.74869 h 1.859045"
       id="path5382"
       inkscape:connector-curvature="0" />
    <path
       style="fill:#ffffff;fill-opacity:0;stroke:#ffffff;stroke-width:0.65613353;stroke-linecap:round;stroke-linejoin:round;stroke-opacity:1"
       d="m -20.735937,121.59194 h -2.624534 v -5.46778 h 2.624534"
       id="path5384"
       inkscape:connector-curvature="0" />
    <path
       style="fill:#ffffff;fill-opacity:0;stroke:#ffffff;stroke-width:0.65613353;stroke-linecap:round;stroke-linejoin:round;stroke-opacity:1"
       d="m -18.439469,121.59194 v -5.46778 h 1.312267 l 0.765489,0.32806 0.546778,0.43743 0.218711,0.54677 0.328067,1.09356 v 0.76549 l -0.328067,0.9842 -0.218711,0.54678 -0.546778,0.54678 -0.765489,0.21871 h -1.312267"
       id="path5386"
       inkscape:connector-curvature="0" />
    <g
       transform="matrix(0.01093556,0,0,0.01093556,-239.11904,-28.334571)"
       style="fill:#ffffff;fill-opacity:0;stroke:#ffffff;stroke-width:0;stroke-linecap:round;stroke-linejoin:round;stroke-opacity:1"
       id="g5426">
      <g
         id="g5392" />
      <g
         style="fill:#ff6e42;fill-opacity:0;stroke:#ff6e42;stroke-width:0;stroke-linecap:round;stroke-linejoin:round;stroke-opacity:1"
         id="g5394" />
      <g
         style="fill:#ff6e42;fill-opacity:0;stroke:#ff6e42;stroke-width:100;stroke-linecap:round;stroke-linejoin:round;stroke-opacity:1"
         id="g5398">
        <rect
           x="14000"
           y="10100"
           width="2000"
           height="800"
           rx="0"
           id="rect5396" />
      </g>
      <g
         style="fill:#ff6e42;fill-opacity:0;stroke:#ff6e42;stroke-width:60;stroke-linecap:round;stroke-linejoin:round;stroke-opacity:1"
         id="g5404">
        <path
           inkscape:connector-curvature="0"
           d="m 16000,10500 h 500"
           id="path5400" />
        <path
           inkscape:connector-curvature="0"
           d="m 14000,10500 h -500"
           id="path5402" />
      </g>
      <g
         style="fill:#ffffff;fill-opacity:0;stroke:#ffffff;stroke-width:60;stroke-linecap:round;stroke-linejoin:round;stroke-opacity:1"
         id="g5424">
        <text
           style="font-size:660px;text-anchor:middle;opacity:0"
           x="15000"
           y="8770"
           textLength="560"
           font-size="660"
           lengthAdjust="spacingAndGlyphs"
           id="text5406">R</text>
        <path
           inkscape:connector-curvature="0"
           d="m 15150,8740 -170,-240"
           id="path5408" />
        <path
           inkscape:connector-curvature="0"
           d="m 14860,8740 v -500 h 190 l 50,30 30,20 20,50 v 70 l -20,50 -30,20 -50,20 h -190"
           id="path5410" />
        <text
           style="font-size:660px;text-anchor:middle;opacity:0"
           x="15000"
           y="9610"
           textLength="2060"
           font-size="660"
           lengthAdjust="spacingAndGlyphs"
           id="text5412">180Ω</text>
        <path
           inkscape:connector-curvature="0"
           d="m 14380,9580 h -290"
           id="path5414" />
        <path
           inkscape:connector-curvature="0"
           d="m 14230,9580 v -500 l -40,70 -50,50 -50,20"
           id="path5416" />
        <path
           inkscape:connector-curvature="0"
           d="m 14660,9300 -50,-30 -20,-20 -20,-50 v -20 l 20,-50 20,-20 50,-30 h 100 l 40,30 30,20 20,50 v 20 l -20,50 -30,20 -40,30 h -100 l -50,20 -20,20 -20,50 v 100 l 20,40 20,30 50,20 h 100 l 40,-20 30,-30 20,-40 v -100 l -20,-50 -30,-20 -40,-20"
           id="path5418" />
        <path
           inkscape:connector-curvature="0"
           d="m 15160,9080 h 50 l 50,30 20,20 20,50 30,90 v 120 l -30,100 -20,40 -20,30 -50,20 h -50 l -50,-20 -20,-30 -20,-40 -30,-100 v -120 l 30,-90 20,-50 20,-20 50,-30"
           id="path5420" />
        <path
           inkscape:connector-curvature="0"
           d="m 15520,9580 h 120 v -90 l -50,-30 -50,-50 -20,-70 v -120 l 20,-70 50,-40 70,-30 h 100 l 70,30 50,40 20,70 v 120 l -20,70 -50,50 -50,30 v 90 h 120"
           id="path5422" />
      </g>
    </g>
    <path
       style="fill:#ff6e41;fill-opacity:0;stroke:#ff6e41;stroke-width:0.65613347;stroke-linecap:round;stroke-linejoin:round;stroke-opacity:1"
       inkscape:connector-curvature="0"
       id="path5866"
       d="M -42.278987,141.16659 V 130.23103" />
    <path
       style="fill:#ff6e41;fill-opacity:0;stroke:#ff6e41;stroke-width:0.65613347;stroke-linecap:round;stroke-linejoin:round;stroke-opacity:1"
       inkscape:connector-curvature="0"
       id="path5868"
       d="M -162.57013,141.16659 H -42.278987" />
    <path
       style="fill:#ff6e41;fill-opacity:0;stroke:#ff6e41;stroke-width:0.65613347;stroke-linecap:round;stroke-linejoin:round;stroke-opacity:1"
       inkscape:connector-curvature="0"
       id="path5870"
       d="m -162.57013,130.23103 v 10.93556" />
    <path
       style="fill:#ff6e41;fill-opacity:0;stroke:#ff6e41;stroke-width:0.65613347;stroke-linecap:round;stroke-linejoin:round;stroke-opacity:1"
       inkscape:connector-curvature="0"
       id="path5872"
       d="M -42.278987,86.488793 V 97.424352" />
    <path
       style="fill:#ff6e41;fill-opacity:0;stroke:#ff6e41;stroke-width:0.65613347;stroke-linecap:round;stroke-linejoin:round;stroke-opacity:1"
       inkscape:connector-curvature="0"
       id="path5874"
       d="m -58.682325,86.488793 h 16.403338" />
    <path
       style="fill:#ff6e41;fill-opacity:0;stroke:#ff6e41;stroke-width:0.65613347;stroke-linecap:round;stroke-linejoin:round;stroke-opacity:1"
       inkscape:connector-curvature="0"
       id="path5876"
       d="m -162.57013,86.488793 h 10.93556" />
    <path
       style="fill:#ff6e41;fill-opacity:0;stroke:#ff6e41;stroke-width:0.65613347;stroke-linecap:round;stroke-linejoin:round;stroke-opacity:1"
       inkscape:connector-curvature="0"
       id="path5878"
       d="M -162.57013,97.424352 V 86.488793" />
    <path
       style="fill:#ff6e41;fill-opacity:0;stroke:#ff6e41;stroke-width:0.65613347;stroke-linecap:round;stroke-linejoin:round;stroke-opacity:1"
       inkscape:connector-curvature="0"
       id="path5880"
       d="M -107.89234,86.488793 H -91.489" />
  </g>
</svg>
