<?xml version="1.0" encoding="UTF-8" standalone="no"?>
<!-- Created with Inkscape (http://www.inkscape.org/) -->

<svg
   xmlns:dc="http://purl.org/dc/elements/1.1/"
   xmlns:cc="http://creativecommons.org/ns#"
   xmlns:rdf="http://www.w3.org/1999/02/22-rdf-syntax-ns#"
   xmlns:svg="http://www.w3.org/2000/svg"
   xmlns="http://www.w3.org/2000/svg"
   xmlns:sodipodi="http://sodipodi.sourceforge.net/DTD/sodipodi-0.dtd"
   xmlns:inkscape="http://www.inkscape.org/namespaces/inkscape"
   width="158.75005mm"
   height="156.94739mm"
   viewBox="0 0 158.75005 156.94739"
   version="1.1"
   id="svg22857"
   inkscape:version="0.92.4 (5da689c313, 2019-01-14)"
   sodipodi:docname="electron-32.svg">
  <defs
     id="defs22851" />
  <sodipodi:namedview
     id="base"
     pagecolor="#ffffff"
     bordercolor="#666666"
     borderopacity="1.0"
     inkscape:pageopacity="0.0"
     inkscape:pageshadow="2"
     inkscape:zoom="0.7"
     inkscape:cx="-378.14728"
     inkscape:cy="200.97705"
     inkscape:document-units="mm"
     inkscape:current-layer="layer1"
     showgrid="false"
     inkscape:window-width="1920"
     inkscape:window-height="1027"
     inkscape:window-x="-8"
     inkscape:window-y="1072"
     inkscape:window-maximized="1" />
  <metadata
     id="metadata22854">
    <rdf:RDF>
      <cc:Work
         rdf:about="">
        <dc:format>image/svg+xml</dc:format>
        <dc:type
           rdf:resource="http://purl.org/dc/dcmitype/StillImage" />
        <dc:title />
      </cc:Work>
    </rdf:RDF>
  </metadata>
  <g
     inkscape:label="Vrstva 1"
     inkscape:groupmode="layer"
     id="layer1"
     transform="translate(126.33173,-79.448752)">
    <g
       transform="matrix(0.0106186,0,0,0.0106186,-955.32583,-140.88714)"
       id="g3376"
       style="fill:#ff6e42;fill-opacity:1;stroke:#ff6e42;stroke-width:60;stroke-linecap:round;stroke-linejoin:round;stroke-opacity:1">
      <rect
         id="rect3372"
         rx="0"
         height="100"
         width="1800"
         y="26800"
         x="78100" />
      <rect
         id="rect3374"
         rx="0"
         height="200"
         width="1200"
         y="27030"
         x="78380" />
    </g>
    <g
       transform="matrix(0.0106186,0,0,0.0106186,-955.32583,-140.88714)"
       id="g3382"
       style="fill:#ff6e42;fill-opacity:0;stroke:#ff6e42;stroke-width:60;stroke-linecap:round;stroke-linejoin:round;stroke-opacity:1">
      <path
         inkscape:connector-curvature="0"
         id="path3378"
         d="m 79000,27200 v 300"
         style="fill:none;fill-opacity:0;stroke:#ff6e42;stroke-width:60;stroke-linecap:round;stroke-linejoin:round;stroke-opacity:1" />
      <path
         inkscape:connector-curvature="0"
         id="path3380"
         d="m 79000,26800 v -300"
         style="fill:none;fill-opacity:0;stroke:#ff6e42;stroke-width:60;stroke-linecap:round;stroke-linejoin:round;stroke-opacity:1" />
    </g>
    <g
       transform="matrix(0.0106186,0,0,0.0106186,-955.32583,-140.88714)"
       id="g3388"
       style="fill:#ff6e42;fill-opacity:0;stroke:#ff6e42;stroke-width:100;stroke-linecap:round;stroke-linejoin:round;stroke-opacity:1">
      <path
         inkscape:connector-curvature="0"
         id="path3384"
         d="m 79200,26150 h 400"
         style="fill:none;fill-opacity:0;stroke:#ff6e42;stroke-width:100;stroke-linecap:round;stroke-linejoin:round;stroke-opacity:1" />
      <path
         inkscape:connector-curvature="0"
         id="path3386"
         d="m 79400,25950 v 400"
         style="fill:none;fill-opacity:0;stroke:#ff6e42;stroke-width:100;stroke-linecap:round;stroke-linejoin:round;stroke-opacity:1" />
    </g>
    <g
       transform="matrix(0.0106186,0,0,0.0106186,-955.32583,-140.88714)"
       id="g3394"
       style="fill:#ff6e42;fill-opacity:0;stroke:#ff6e42;stroke-width:60;stroke-linecap:round;stroke-linejoin:round;stroke-opacity:1">
      <path
         inkscape:connector-curvature="0"
         id="path3390"
         d="M 79000,26500 V 25500" />
      <path
         inkscape:connector-curvature="0"
         id="path3392"
         d="m 79000,27500 v 1000" />
    </g>
    <g
       transform="matrix(0.0106186,0,0,0.0106186,-955.32583,-140.88714)"
       id="g3454"
       style="fill:#ff6e42;fill-opacity:0;stroke:#ff6e42;stroke-width:100;stroke-linecap:round;stroke-linejoin:round;stroke-opacity:1">
      <circle
         id="circle3452"
         r="1110"
         cy="23500"
         cx="85000" />
    </g>
    <g
       transform="matrix(0.0106186,0,0,0.0106186,-955.32583,-140.88714)"
       id="g3470"
       style="fill:#ff6e42;fill-opacity:0;stroke:#ff6e42;stroke-width:60;stroke-linecap:round;stroke-linejoin:round;stroke-opacity:1">
      <text
         style="font-size:660px;text-anchor:middle;opacity:0"
         id="text3456"
         lengthAdjust="spacingAndGlyphs"
         font-size="660"
         textLength="560"
         y="22270"
         x="86000">C</text>
      <path
         inkscape:connector-curvature="0"
         id="path3458"
         d="m 86150,22190 -20,30 -80,20 h -40 l -70,-20 -50,-50 -30,-50 -20,-90 v -70 l 20,-100 30,-50 50,-40 70,-30 h 40 l 80,30 20,20" />
      <text
         style="font-size:660px;text-anchor:middle;opacity:0"
         id="text3460"
         lengthAdjust="spacingAndGlyphs"
         font-size="660"
         textLength="510"
         y="25270"
         x="86000">E</text>
      <path
         inkscape:connector-curvature="0"
         id="path3462"
         d="m 85890,24980 h 160" />
      <path
         inkscape:connector-curvature="0"
         id="path3464"
         d="m 86130,25240 h -240 v -500 h 240" />
      <path
         inkscape:connector-curvature="0"
         id="path3466"
         d="m 84750,23250 750,-750"
         style="fill:none;fill-opacity:0;stroke:#ff6e42;stroke-width:60;stroke-linecap:round;stroke-linejoin:round;stroke-opacity:1" />
      <path
         inkscape:connector-curvature="0"
         id="path3468"
         d="m 84750,23750 750,750 v 0"
         style="fill:none;fill-opacity:0;stroke:#ff6e42;stroke-width:60;stroke-linecap:round;stroke-linejoin:round;stroke-opacity:1" />
    </g>
    <g
       transform="matrix(0.0106186,0,0,0.0106186,-955.32583,-140.88714)"
       id="g3474"
       style="fill:#ff6e42;fill-opacity:0;stroke:#ff6e42;stroke-width:200;stroke-linecap:round;stroke-linejoin:round;stroke-opacity:1">
      <path
         inkscape:connector-curvature="0"
         id="path3472"
         d="m 84750,22750 v 1500 0"
         style="fill:none;fill-opacity:0;stroke:#ff6e42;stroke-width:200;stroke-linecap:round;stroke-linejoin:round;stroke-opacity:1" />
    </g>
    <g
       transform="matrix(0.0106186,0,0,0.0106186,-955.32583,-140.88714)"
       id="g3478"
       style="fill:#ff6e42;fill-opacity:1;stroke:#ff6e42;stroke-width:60;stroke-linecap:round;stroke-linejoin:round;stroke-opacity:1">
      <path
         inkscape:connector-curvature="0"
         id="path3476"
         d="m 85000,24200 200,-200 200,400 z"
         style="fill:#ff6e42;fill-opacity:1;fill-rule:evenodd;stroke:#ff6e42;stroke-width:60;stroke-linecap:round;stroke-linejoin:round;stroke-opacity:1" />
    </g>
    <g
       transform="matrix(0.0106186,0,0,0.0106186,-955.32583,-140.88714)"
       id="g3498"
       style="fill:#ff6e42;fill-opacity:0;stroke:#ff6e42;stroke-width:60;stroke-linecap:round;stroke-linejoin:round;stroke-opacity:1">
      <path
         inkscape:connector-curvature="0"
         id="path3480"
         d="M 84750,23500 H 82500" />
      <text
         style="font-size:660px;text-anchor:middle;opacity:0"
         id="text3482"
         lengthAdjust="spacingAndGlyphs"
         font-size="660"
         textLength="560"
         y="24100"
         x="83620">B</text>
      <path
         inkscape:connector-curvature="0"
         id="path3484"
         d="m 83650,23810 70,20 30,30 20,40 v 80 l -20,40 -30,30 -50,20 h -190 v -500 h 170 l 50,30 20,20 30,50 v 40 l -30,50 -20,30 -50,20 h -170" />
      <path
         inkscape:connector-curvature="0"
         id="path3486"
         d="M 85500,22500 V 21500" />
      <g
         id="g3490"
         transform="rotate(-90,85600,22000)">
        <text
           style="font-size:660px;text-anchor:middle;opacity:0"
           id="text3488"
           lengthAdjust="spacingAndGlyphs"
           font-size="660"
           textLength="60"
           y="22500"
           x="85600">~</text>
      </g>
      <path
         inkscape:connector-curvature="0"
         id="path3492"
         d="m 85500,24500 v 1000" />
      <g
         id="g3496"
         transform="rotate(-90,85600,25000)">
        <text
           style="font-size:660px;text-anchor:middle;opacity:0"
           id="text3494"
           lengthAdjust="spacingAndGlyphs"
           font-size="660"
           textLength="60"
           y="25500"
           x="85600">~</text>
      </g>
    </g>
    <g
       transform="matrix(0.0106186,0,0,0.0106186,-955.32583,-140.88714)"
       id="g3534"
       style="fill:#ff6e42;fill-opacity:0;stroke:#ff6e42;stroke-width:100;stroke-linecap:round;stroke-linejoin:round;stroke-opacity:1">
      <circle
         id="circle3532"
         r="1110"
         cy="26000"
         cx="89500" />
    </g>
    <g
       transform="matrix(0.0106186,0,0,0.0106186,-955.32583,-140.88714)"
       id="g3550"
       style="fill:#ff6e42;fill-opacity:0;stroke:#ff6e42;stroke-width:60;stroke-linecap:round;stroke-linejoin:round;stroke-opacity:1">
      <text
         style="font-size:660px;text-anchor:middle;opacity:0"
         id="text3536"
         lengthAdjust="spacingAndGlyphs"
         font-size="660"
         textLength="560"
         y="24770"
         x="90500">C</text>
      <path
         inkscape:connector-curvature="0"
         id="path3538"
         d="m 90650,24690 -20,30 -80,20 h -40 l -70,-20 -50,-50 -30,-50 -20,-90 v -70 l 20,-100 30,-50 50,-40 70,-30 h 40 l 80,30 20,20" />
      <text
         style="font-size:660px;text-anchor:middle;opacity:0"
         id="text3540"
         lengthAdjust="spacingAndGlyphs"
         font-size="660"
         textLength="510"
         y="27770"
         x="90500">E</text>
      <path
         inkscape:connector-curvature="0"
         id="path3542"
         d="m 90390,27480 h 160" />
      <path
         inkscape:connector-curvature="0"
         id="path3544"
         d="m 90630,27740 h -240 v -500 h 240" />
      <path
         inkscape:connector-curvature="0"
         id="path3546"
         d="m 89250,25750 750,-750"
         style="fill:none;fill-opacity:0;stroke:#ff6e42;stroke-width:60;stroke-linecap:round;stroke-linejoin:round;stroke-opacity:1" />
      <path
         inkscape:connector-curvature="0"
         id="path3548"
         d="m 89250,26250 750,750 v 0"
         style="fill:none;fill-opacity:0;stroke:#ff6e42;stroke-width:60;stroke-linecap:round;stroke-linejoin:round;stroke-opacity:1" />
    </g>
    <g
       transform="matrix(0.0106186,0,0,0.0106186,-955.32583,-140.88714)"
       id="g3554"
       style="fill:#ff6e42;fill-opacity:0;stroke:#ff6e42;stroke-width:200;stroke-linecap:round;stroke-linejoin:round;stroke-opacity:1">
      <path
         inkscape:connector-curvature="0"
         id="path3552"
         d="m 89250,25250 v 1500 0"
         style="fill:none;fill-opacity:0;stroke:#ff6e42;stroke-width:200;stroke-linecap:round;stroke-linejoin:round;stroke-opacity:1" />
    </g>
    <g
       transform="matrix(0.0106186,0,0,0.0106186,-955.32583,-140.88714)"
       id="g3558"
       style="fill:#ff6e42;fill-opacity:1;stroke:#ff6e42;stroke-width:60;stroke-linecap:round;stroke-linejoin:round;stroke-opacity:1">
      <path
         inkscape:connector-curvature="0"
         id="path3556"
         d="m 89500,26700 200,-200 200,400 z"
         style="fill:#ff6e42;fill-opacity:1;fill-rule:evenodd;stroke:#ff6e42;stroke-width:60;stroke-linecap:round;stroke-linejoin:round;stroke-opacity:1" />
    </g>
    <g
       transform="matrix(0.0106186,0,0,0.0106186,-955.32583,-140.88714)"
       id="g3578"
       style="fill:#ff6e42;fill-opacity:0;stroke:#ff6e42;stroke-width:60;stroke-linecap:round;stroke-linejoin:round;stroke-opacity:1">
      <path
         inkscape:connector-curvature="0"
         id="path3560"
         d="M 89250,26000 H 87000" />
      <text
         style="font-size:660px;text-anchor:middle;opacity:0"
         id="text3562"
         lengthAdjust="spacingAndGlyphs"
         font-size="660"
         textLength="560"
         y="26600"
         x="88120">B</text>
      <path
         inkscape:connector-curvature="0"
         id="path3564"
         d="m 88150,26310 70,20 30,30 20,40 v 80 l -20,40 -30,30 -50,20 h -190 v -500 h 170 l 50,30 20,20 30,50 v 40 l -30,50 -20,30 -50,20 h -170" />
      <path
         inkscape:connector-curvature="0"
         id="path3566"
         d="M 90000,25000 V 24000" />
      <g
         id="g3570"
         transform="rotate(-90,90100,24500)">
        <text
           style="font-size:660px;text-anchor:middle;opacity:0"
           id="text3568"
           lengthAdjust="spacingAndGlyphs"
           font-size="660"
           textLength="60"
           y="25000"
           x="90100">~</text>
      </g>
      <path
         inkscape:connector-curvature="0"
         id="path3572"
         d="m 90000,27000 v 1000" />
      <g
         id="g3576"
         transform="rotate(-90,90100,27500)">
        <text
           style="font-size:660px;text-anchor:middle;opacity:0"
           id="text3574"
           lengthAdjust="spacingAndGlyphs"
           font-size="660"
           textLength="60"
           y="28000"
           x="90100">~</text>
      </g>
    </g>
    <g
       transform="matrix(0.0106186,0,0,0.0106186,-955.32583,-140.88714)"
       id="g3614"
       style="fill:#ff6e42;fill-opacity:0;stroke:#ff6e42;stroke-width:100;stroke-linecap:round;stroke-linejoin:round;stroke-opacity:1">
      <rect
         id="rect3612"
         rx="0"
         height="2000"
         width="800"
         y="29000"
         x="89600" />
    </g>
    <g
       transform="matrix(0.0106186,0,0,0.0106186,-955.32583,-140.88714)"
       id="g3620"
       style="fill:#ff6e42;fill-opacity:0;stroke:#ff6e42;stroke-width:60;stroke-linecap:round;stroke-linejoin:round;stroke-opacity:1">
      <path
         inkscape:connector-curvature="0"
         id="path3616"
         d="m 90000,31000 v 500" />
      <path
         inkscape:connector-curvature="0"
         id="path3618"
         d="m 90000,29000 v -500" />
    </g>
    <g
       transform="matrix(0.0106186,0,0,0.0106186,-955.32583,-140.88714)"
       id="g3640"
       style="fill:#ffffff;fill-opacity:0;stroke:#ffffff;stroke-width:60;stroke-linecap:round;stroke-linejoin:round;stroke-opacity:1">
      <text
         style="font-size:660px;text-anchor:middle;opacity:0"
         id="text3622"
         lengthAdjust="spacingAndGlyphs"
         font-size="660"
         textLength="560"
         y="29720"
         x="91500">R</text>
      <path
         inkscape:connector-curvature="0"
         id="path3624"
         d="m 91650,29690 -170,-240" />
      <path
         inkscape:connector-curvature="0"
         id="path3626"
         d="m 91360,29690 v -500 h 190 l 50,30 30,20 20,50 v 70 l -20,50 -30,20 -50,20 h -190" />
      <text
         style="font-size:660px;text-anchor:middle;opacity:0"
         id="text3628"
         lengthAdjust="spacingAndGlyphs"
         font-size="660"
         textLength="2060"
         y="30720"
         x="92000">180Ω</text>
      <path
         inkscape:connector-curvature="0"
         id="path3630"
         d="m 91380,30690 h -290" />
      <path
         inkscape:connector-curvature="0"
         id="path3632"
         d="m 91230,30690 v -500 l -40,70 -50,50 -50,20" />
      <path
         inkscape:connector-curvature="0"
         id="path3634"
         d="m 91660,30410 -50,-30 -20,-20 -20,-50 v -20 l 20,-50 20,-20 50,-30 h 100 l 40,30 30,20 20,50 v 20 l -20,50 -30,20 -40,30 h -100 l -50,20 -20,20 -20,50 v 100 l 20,40 20,30 50,20 h 100 l 40,-20 30,-30 20,-40 v -100 l -20,-50 -30,-20 -40,-20" />
      <path
         inkscape:connector-curvature="0"
         id="path3636"
         d="m 92160,30190 h 50 l 50,30 20,20 20,50 30,90 v 120 l -30,100 -20,40 -20,30 -50,20 h -50 l -50,-20 -20,-30 -20,-40 -30,-100 v -120 l 30,-90 20,-50 20,-20 50,-30" />
      <path
         inkscape:connector-curvature="0"
         id="path3638"
         d="m 92520,30690 h 120 v -90 l -50,-30 -50,-50 -20,-70 v -120 l 20,-70 50,-40 70,-30 h 100 l 70,30 50,40 20,70 v 120 l -20,70 -50,50 -50,30 v 90 h 120" />
    </g>
    <g
       transform="matrix(0.0106186,0,0,0.0106186,-955.32583,-140.88714)"
       id="g3650"
       style="fill:#ff6e42;fill-opacity:0;stroke:#ff6e42;stroke-width:100;stroke-linecap:round;stroke-linejoin:round;stroke-opacity:1">
      <path
         inkscape:connector-curvature="0"
         id="path3648"
         d="M 90500,34000 H 89500"
         style="fill:none;fill-opacity:0;stroke:#ff6e42;stroke-width:100;stroke-linecap:round;stroke-linejoin:round;stroke-opacity:1" />
    </g>
    <g
       transform="matrix(0.0106186,0,0,0.0106186,-955.32583,-140.88714)"
       id="g3654"
       style="fill:#ff6e42;fill-opacity:0;stroke:#ff6e42;stroke-width:60;stroke-linecap:round;stroke-linejoin:round;stroke-opacity:1">
      <path
         inkscape:connector-curvature="0"
         id="path3652"
         d="M 90000,34000 V 33000"
         style="fill:none;fill-opacity:0;stroke:#ff6e42;stroke-width:60;stroke-linecap:round;stroke-linejoin:round;stroke-opacity:1" />
    </g>
    <g
       transform="matrix(0.0106186,0,0,0.0106186,-955.32583,-140.88714)"
       id="g3658"
       style="fill:#ff6e42;fill-opacity:0;stroke:#ff6e42;stroke-width:100;stroke-linecap:round;stroke-linejoin:round;stroke-opacity:1">
      <path
         inkscape:connector-curvature="0"
         id="path3656"
         d="m 90500,33000 h -1000 l 500,1000 z"
         style="fill:none;fill-opacity:0;stroke:#ff6e42;stroke-width:100;stroke-linecap:round;stroke-linejoin:round;stroke-opacity:1" />
    </g>
    <g
       transform="matrix(0.0106186,0,0,0.0106186,-955.32583,-140.88714)"
       id="g3668"
       style="fill:#ff6e42;fill-opacity:0;stroke:#ff6e42;stroke-width:60;stroke-linecap:round;stroke-linejoin:round;stroke-opacity:1">
      <path
         inkscape:connector-curvature="0"
         id="path3660"
         d="m 90300,34700 600,600 v -300 300 h -300"
         style="fill:none;fill-opacity:0;stroke:#ff6e42;stroke-width:60;stroke-linecap:round;stroke-linejoin:round;stroke-opacity:1" />
      <path
         inkscape:connector-curvature="0"
         id="path3662"
         d="m 90300,34200 600,600 v -300 300 h -300"
         style="fill:none;fill-opacity:0;stroke:#ff6e42;stroke-width:60;stroke-linecap:round;stroke-linejoin:round;stroke-opacity:1" />
      <path
         inkscape:connector-curvature="0"
         id="path3664"
         d="m 90000,34000 v 1000" />
      <path
         inkscape:connector-curvature="0"
         id="path3666"
         d="M 90000,33000 V 32000" />
    </g>
    <text
       transform="matrix(0.0106186,0,0,0.0106186,-955.32583,-140.88714)"
       x="91890"
       y="34240"
       textLength="1420"
       font-size="660"
       lengthAdjust="spacingAndGlyphs"
       id="text3678"
       style="font-size:660px;text-anchor:middle;opacity:0;fill:#ffffff;fill-opacity:0;stroke:#ffffff;stroke-width:60;stroke-linecap:round;stroke-linejoin:round;stroke-opacity:1">LED</text>
    <path
       style="fill:#ffffff;fill-opacity:0;stroke:#ffffff;stroke-width:0.63711578;stroke-linecap:round;stroke-linejoin:round;stroke-opacity:1"
       d="m 16.912886,222.37506 h -2.442278 v -5.3093"
       id="path3680"
       inkscape:connector-curvature="0" />
    <path
       style="fill:#ffffff;fill-opacity:0;stroke:#ffffff;stroke-width:0.63711578;stroke-linecap:round;stroke-linejoin:round;stroke-opacity:1"
       d="m 18.718047,219.61423 h 1.805161"
       id="path3682"
       inkscape:connector-curvature="0" />
    <path
       style="fill:#ffffff;fill-opacity:0;stroke:#ffffff;stroke-width:0.63711578;stroke-linecap:round;stroke-linejoin:round;stroke-opacity:1"
       d="m 21.26651,222.37506 h -2.548463 v -5.3093 h 2.548463"
       id="path3684"
       inkscape:connector-curvature="0" />
    <path
       style="fill:#ffffff;fill-opacity:0;stroke:#ffffff;stroke-width:0.63711578;stroke-linecap:round;stroke-linejoin:round;stroke-opacity:1"
       d="m 23.496416,222.37506 v -5.3093 h 1.274231 l 0.743302,0.31856 0.53093,0.42474 0.212372,0.53093 0.318558,1.06186 v 0.7433 l -0.318558,0.95568 -0.212372,0.53093 -0.53093,0.53093 -0.743302,0.21237 h -1.274231"
       id="path3686"
       inkscape:connector-curvature="0" />
    <path
       style="fill:#ff6e41;fill-opacity:0;stroke:#ff6e41;stroke-width:0.63711578;stroke-linecap:round;stroke-linejoin:round;stroke-opacity:1"
       inkscape:connector-curvature="0"
       id="path5564"
       d="M -31.5079,135.19638 H -47.435795" />
    <path
       style="fill:#ff6e41;fill-opacity:0;stroke:#ff6e41;stroke-width:0.63711578;stroke-linecap:round;stroke-linejoin:round;stroke-opacity:1"
       inkscape:connector-curvature="0"
       id="path5582"
       d="M -116.45667,129.88708 V 82.103395" />
    <path
       style="fill:#ff6e41;fill-opacity:0;stroke:#ff6e41;stroke-width:0.63711578;stroke-linecap:round;stroke-linejoin:round;stroke-opacity:1"
       inkscape:connector-curvature="0"
       id="path5714"
       d="m -47.435795,82.103395 v 5.309299" />
    <path
       style="fill:#ff6e41;fill-opacity:0;stroke:#ff6e41;stroke-width:0.63711578;stroke-linecap:round;stroke-linejoin:round;stroke-opacity:1"
       inkscape:connector-curvature="0"
       id="path5716"
       d="M -47.435795,82.103395 H 0.34787438" />
    <path
       style="fill:#ff6e41;fill-opacity:0;stroke:#ff6e41;stroke-width:0.63711578;stroke-linecap:round;stroke-linejoin:round;stroke-opacity:1"
       inkscape:connector-curvature="0"
       id="path5726"
       d="M 0.34787438,82.103395 V 113.95919" />
    <path
       style="fill:#ff6e41;fill-opacity:0;stroke:#ff6e41;stroke-width:0.63711578;stroke-linecap:round;stroke-linejoin:round;stroke-opacity:1"
       inkscape:connector-curvature="0"
       id="path5728"
       d="m 0.34787438,161.74287 v -5.3093" />
    <path
       style="fill:#ff6e41;fill-opacity:0;stroke:#ff6e41;stroke-width:0.63711578;stroke-linecap:round;stroke-linejoin:round;stroke-opacity:1"
       inkscape:connector-curvature="0"
       id="path5730"
       d="m -47.435795,135.19638 v -5.3093" />
    <path
       style="fill:#ff6e41;fill-opacity:0;stroke:#ff6e41;stroke-width:0.63711578;stroke-linecap:round;stroke-linejoin:round;stroke-opacity:1"
       inkscape:connector-curvature="0"
       id="path5732"
       d="m 0.34787438,198.90796 v -5.3093" />
    <path
       style="fill:#ff6e41;fill-opacity:0;stroke:#ff6e41;stroke-width:0.63711578;stroke-linecap:round;stroke-linejoin:round;stroke-opacity:1"
       inkscape:connector-curvature="0"
       id="path5734"
       d="m -116.45667,161.74287 v 74.33018" />
    <path
       style="fill:#ff6e41;fill-opacity:0;stroke:#ff6e41;stroke-width:0.63711578;stroke-linecap:round;stroke-linejoin:round;stroke-opacity:1"
       inkscape:connector-curvature="0"
       id="path5736"
       d="M -116.45667,236.07305 H 0.34787438" />
    <path
       style="fill:#ff6e41;fill-opacity:0;stroke:#ff6e41;stroke-width:0.63711578;stroke-linecap:round;stroke-linejoin:round;stroke-opacity:1"
       inkscape:connector-curvature="0"
       id="path5738"
       d="m 0.34787438,236.07305 v -5.3093" />
    <path
       style="fill:#ff6e41;fill-opacity:0;stroke:#ff6e41;stroke-width:0.63711578;stroke-linecap:round;stroke-linejoin:round;stroke-opacity:1"
       inkscape:connector-curvature="0"
       id="path5742"
       d="m -116.45667,82.103395 h 69.020875" />
    <circle
       style="fill:#ff6e41;fill-opacity:1;stroke:#ff6e41;stroke-width:1.06185973;stroke-linecap:round;stroke-linejoin:round;stroke-opacity:1"
       id="circle6150"
       r="2.1237195"
       cy="82.103401"
       cx="-47.435829" />
  </g>
</svg>
