<?xml version="1.0" encoding="UTF-8" standalone="no"?>
<!-- Created with Inkscape (http://www.inkscape.org/) -->

<svg
   xmlns:dc="http://purl.org/dc/elements/1.1/"
   xmlns:cc="http://creativecommons.org/ns#"
   xmlns:rdf="http://www.w3.org/1999/02/22-rdf-syntax-ns#"
   xmlns:svg="http://www.w3.org/2000/svg"
   xmlns="http://www.w3.org/2000/svg"
   xmlns:sodipodi="http://sodipodi.sourceforge.net/DTD/sodipodi-0.dtd"
   xmlns:inkscape="http://www.inkscape.org/namespaces/inkscape"
   width="158.75008mm"
   height="154.38725mm"
   viewBox="0 0 158.75007 154.38725"
   version="1.1"
   id="svg20909"
   inkscape:version="0.92.4 (5da689c313, 2019-01-14)"
   sodipodi:docname="26.svg">
  <defs
     id="defs20903" />
  <sodipodi:namedview
     id="base"
     pagecolor="#ffffff"
     bordercolor="#666666"
     borderopacity="1.0"
     inkscape:pageopacity="0.0"
     inkscape:pageshadow="2"
     inkscape:zoom="2.8"
     inkscape:cx="20.313022"
     inkscape:cy="120.5228"
     inkscape:document-units="mm"
     inkscape:current-layer="layer1"
     showgrid="false"
     inkscape:window-width="1920"
     inkscape:window-height="1027"
     inkscape:window-x="-8"
     inkscape:window-y="1072"
     inkscape:window-maximized="1" />
  <metadata
     id="metadata20906">
    <rdf:RDF>
      <cc:Work
         rdf:about="">
        <dc:format>image/svg+xml</dc:format>
        <dc:type
           rdf:resource="http://purl.org/dc/dcmitype/StillImage" />
        <dc:title />
      </cc:Work>
    </rdf:RDF>
  </metadata>
  <g
     inkscape:label="Vrstva 1"
     inkscape:groupmode="layer"
     id="layer1"
     transform="translate(124.78359,-114.90854)">
    <g
       transform="matrix(0.01023081,0,0,0.01023081,-585.8862,-515.91854)"
       id="g2536"
       style="fill:#ff6e42;fill-opacity:1;stroke:#ff6e42;stroke-width:60;stroke-linecap:round;stroke-linejoin:round;stroke-opacity:1">
      <rect
         id="rect2532"
         rx="0"
         height="100"
         width="1800"
         y="69300"
         x="45100" />
      <rect
         id="rect2534"
         rx="0"
         height="200"
         width="1200"
         y="69530"
         x="45380" />
    </g>
    <g
       transform="matrix(0.01023081,0,0,0.01023081,-585.8862,-515.91854)"
       id="g2542"
       style="fill:#ff6e42;fill-opacity:0;stroke:#ff6e42;stroke-width:60;stroke-linecap:round;stroke-linejoin:round;stroke-opacity:1">
      <path
         inkscape:connector-curvature="0"
         id="path2538"
         d="m 46000,69700 v 300"
         style="fill:none;fill-opacity:0;stroke:#ff6e42;stroke-width:60;stroke-linecap:round;stroke-linejoin:round;stroke-opacity:1" />
      <path
         inkscape:connector-curvature="0"
         id="path2540"
         d="m 46000,69300 v -300"
         style="fill:none;fill-opacity:0;stroke:#ff6e42;stroke-width:60;stroke-linecap:round;stroke-linejoin:round;stroke-opacity:1" />
    </g>
    <g
       transform="matrix(0.01023081,0,0,0.01023081,-585.8862,-515.91854)"
       id="g2548"
       style="fill:#ff6e42;fill-opacity:0;stroke:#ff6e42;stroke-width:100;stroke-linecap:round;stroke-linejoin:round;stroke-opacity:1">
      <path
         inkscape:connector-curvature="0"
         id="path2544"
         d="m 46200,68650 h 400"
         style="fill:none;fill-opacity:0;stroke:#ff6e42;stroke-width:100;stroke-linecap:round;stroke-linejoin:round;stroke-opacity:1" />
      <path
         inkscape:connector-curvature="0"
         id="path2546"
         d="m 46400,68450 v 400"
         style="fill:none;fill-opacity:0;stroke:#ff6e42;stroke-width:100;stroke-linecap:round;stroke-linejoin:round;stroke-opacity:1" />
    </g>
    <g
       transform="matrix(0.01023081,0,0,0.01023081,-585.8862,-515.91854)"
       id="g2554"
       style="fill:#ff6e42;fill-opacity:0;stroke:#ff6e42;stroke-width:60;stroke-linecap:round;stroke-linejoin:round;stroke-opacity:1">
      <path
         inkscape:connector-curvature="0"
         id="path2550"
         d="M 46000,69000 V 68000" />
      <path
         inkscape:connector-curvature="0"
         id="path2552"
         d="m 46000,70000 v 1000" />
    </g>
    <g
       transform="matrix(0.01023081,0,0,0.01023081,-585.8862,-515.91854)"
       id="g2614"
       style="fill:#ff6e42;fill-opacity:0;stroke:#ff6e42;stroke-width:100;stroke-linecap:round;stroke-linejoin:round;stroke-opacity:1">
      <path
         inkscape:connector-curvature="0"
         id="path2612"
         d="m 49500,63000 v 1000"
         style="fill:none;fill-opacity:0;stroke:#ff6e42;stroke-width:100;stroke-linecap:round;stroke-linejoin:round;stroke-opacity:1" />
    </g>
    <g
       transform="matrix(0.01023081,0,0,0.01023081,-585.8862,-515.91854)"
       id="g2618"
       style="fill:#ff6e42;fill-opacity:0;stroke:#ff6e42;stroke-width:60;stroke-linecap:round;stroke-linejoin:round;stroke-opacity:1">
      <path
         inkscape:connector-curvature="0"
         id="path2616"
         d="M 49500,63500 H 48500"
         style="fill:none;fill-opacity:0;stroke:#ff6e42;stroke-width:60;stroke-linecap:round;stroke-linejoin:round;stroke-opacity:1" />
    </g>
    <g
       transform="matrix(0.01023081,0,0,0.01023081,-585.8862,-515.91854)"
       id="g2622"
       style="fill:#ff6e42;fill-opacity:0;stroke:#ff6e42;stroke-width:100;stroke-linecap:round;stroke-linejoin:round;stroke-opacity:1">
      <path
         inkscape:connector-curvature="0"
         id="path2620"
         d="m 48500,63000 v 1000 l 1000,-500 z"
         style="fill:none;fill-opacity:0;stroke:#ff6e42;stroke-width:100;stroke-linecap:round;stroke-linejoin:round;stroke-opacity:1" />
    </g>
    <g
       transform="matrix(0.01023081,0,0,0.01023081,-585.8862,-515.91854)"
       id="g2632"
       style="fill:#ff6e42;fill-opacity:0;stroke:#ff6e42;stroke-width:60;stroke-linecap:round;stroke-linejoin:round;stroke-opacity:1">
      <path
         inkscape:connector-curvature="0"
         id="path2624"
         d="m 50200,63200 600,-600 h -300 300 v 300"
         style="fill:none;fill-opacity:0;stroke:#ff6e42;stroke-width:60;stroke-linecap:round;stroke-linejoin:round;stroke-opacity:1" />
      <path
         inkscape:connector-curvature="0"
         id="path2626"
         d="m 49700,63200 600,-600 h -300 300 v 300"
         style="fill:none;fill-opacity:0;stroke:#ff6e42;stroke-width:60;stroke-linecap:round;stroke-linejoin:round;stroke-opacity:1" />
      <path
         inkscape:connector-curvature="0"
         id="path2628"
         d="m 49500,63500 h 1000" />
      <path
         inkscape:connector-curvature="0"
         id="path2630"
         d="M 48500,63500 H 47500" />
    </g>
    <text
       transform="matrix(0.01023081,0,0,0.01023081,-585.8862,-515.91854)"
       x="49210"
       y="62220"
       textLength="1420"
       font-size="660"
       lengthAdjust="spacingAndGlyphs"
       id="text2644"
       style="font-size:660px;text-anchor:middle;opacity:0;fill:#ffffff;fill-opacity:0;stroke:#ffffff;stroke-width:60;stroke-linecap:round;stroke-linejoin:round;stroke-opacity:1">LED</text>
    <path
       style="fill:#ffffff;fill-opacity:0;stroke:#ffffff;stroke-width:0.61384827;stroke-linecap:round;stroke-linejoin:round;stroke-opacity:1"
       d="m -85.804432,120.33524 h -2.353085 v -5.1154"
       id="path2646"
       inkscape:connector-curvature="0" />
    <path
       style="fill:#ffffff;fill-opacity:0;stroke:#ffffff;stroke-width:0.61384827;stroke-linecap:round;stroke-linejoin:round;stroke-opacity:1"
       d="m -84.065195,117.67523 h 1.739237"
       id="path2648"
       inkscape:connector-curvature="0" />
    <path
       style="fill:#ffffff;fill-opacity:0;stroke:#ffffff;stroke-width:0.61384827;stroke-linecap:round;stroke-linejoin:round;stroke-opacity:1"
       d="m -81.609802,120.33524 h -2.455393 v -5.1154 h 2.455393"
       id="path2650"
       inkscape:connector-curvature="0" />
    <path
       style="fill:#ffffff;fill-opacity:0;stroke:#ffffff;stroke-width:0.61384827;stroke-linecap:round;stroke-linejoin:round;stroke-opacity:1"
       d="m -79.461332,120.33524 v -5.1154 h 1.227696 l 0.716157,0.30692 0.51154,0.40924 0.204616,0.51154 0.306924,1.02308 v 0.71615 l -0.306924,0.92078 -0.204616,0.51154 -0.51154,0.51154 -0.716157,0.20461 h -1.227696"
       id="path2652"
       inkscape:connector-curvature="0" />
    <g
       transform="matrix(0.01023081,0,0,0.01023081,-585.8862,-515.91854)"
       id="g2698"
       style="fill:#ff6e42;fill-opacity:0;stroke:#ff6e42;stroke-width:60;stroke-linecap:round;stroke-linejoin:round;stroke-opacity:1">
      <circle
         id="circle2662"
         r="200"
         cy="67300"
         cx="52500" />
      <circle
         id="circle2664"
         r="200"
         cy="65700"
         cx="53500" />
      <circle
         id="circle2666"
         r="200"
         cy="65700"
         cx="51500" />
      <path
         inkscape:connector-curvature="0"
         id="path2668"
         d="m 52100,66500 h -800"
         style="fill:none;fill-opacity:0;stroke:#ff6e42;stroke-width:60;stroke-linecap:round;stroke-linejoin:round;stroke-opacity:1" />
      <path
         inkscape:connector-curvature="0"
         id="path2670"
         d="m 52400,67100 -700,-1600"
         style="fill:none;fill-opacity:0;stroke:#ff6e42;stroke-width:60;stroke-linecap:round;stroke-linejoin:round;stroke-opacity:1" />
      <path
         inkscape:connector-curvature="0"
         id="path2672"
         d="M 51500,65500 V 64500" />
      <g
         id="g2676"
         transform="rotate(-90,51600,65000)">
        <text
           style="font-size:660px;text-anchor:middle;opacity:0"
           id="text2674"
           lengthAdjust="spacingAndGlyphs"
           font-size="660"
           textLength="540"
           y="65500"
           x="51600">1</text>
      </g>
      <path
         inkscape:connector-curvature="0"
         id="path2678"
         d="m 52070,64850 v 290" />
      <path
         inkscape:connector-curvature="0"
         id="path2680"
         d="m 52070,65000 h -500 l 70,40 50,50 20,50" />
      <path
         inkscape:connector-curvature="0"
         id="path2682"
         d="m 52500,67500 v 1000" />
      <g
         id="g2686"
         transform="rotate(-90,52600,68000)">
        <text
           style="font-size:660px;text-anchor:middle;opacity:0"
           id="text2684"
           lengthAdjust="spacingAndGlyphs"
           font-size="660"
           textLength="540"
           y="68500"
           x="52600">2</text>
      </g>
      <path
         inkscape:connector-curvature="0"
         id="path2688"
         d="m 52620,68140 -20,-30 -30,-40 v -120 l 30,-50 20,-20 50,-30 h 40 l 80,30 280,280 v -310" />
      <path
         inkscape:connector-curvature="0"
         id="path2690"
         d="M 53500,65500 V 64500" />
      <g
         id="g2694"
         transform="rotate(-90,53600,65000)">
        <text
           style="font-size:660px;text-anchor:middle;opacity:0"
           id="text2692"
           lengthAdjust="spacingAndGlyphs"
           font-size="660"
           textLength="540"
           y="65500"
           x="53600">3</text>
      </g>
      <path
         inkscape:connector-curvature="0"
         id="path2696"
         d="m 53570,65160 v -310 l 190,170 v -70 l 30,-50 20,-20 50,-30 h 120 l 40,30 30,20 20,50 v 140 l -20,50 -30,20" />
    </g>
    <g
       transform="matrix(0.01023081,0,0,0.01023081,-585.8862,-515.91854)"
       id="g2756"
       style="fill:#ff6e42;fill-opacity:0;stroke:#ff6e42;stroke-width:100;stroke-linecap:round;stroke-linejoin:round;stroke-opacity:1">
      <rect
         id="rect2754"
         rx="0"
         height="2000"
         width="800"
         y="69500"
         x="52100" />
    </g>
    <g
       transform="matrix(0.01023081,0,0,0.01023081,-585.8862,-515.91854)"
       id="g2762"
       style="fill:#ff6e42;fill-opacity:0;stroke:#ff6e42;stroke-width:60;stroke-linecap:round;stroke-linejoin:round;stroke-opacity:1">
      <path
         inkscape:connector-curvature="0"
         id="path2758"
         d="m 52500,71500 v 500" />
      <path
         inkscape:connector-curvature="0"
         id="path2760"
         d="m 52500,69500 v -500" />
    </g>
    <g
       transform="matrix(0.01023081,0,0,0.01023081,-585.8862,-515.91854)"
       id="g2782"
       style="fill:#ffffff;fill-opacity:0;stroke:#ffffff;stroke-width:60;stroke-linecap:round;stroke-linejoin:round;stroke-opacity:1">
      <text
         style="font-size:660px;text-anchor:middle;opacity:0"
         id="text2764"
         lengthAdjust="spacingAndGlyphs"
         font-size="660"
         textLength="560"
         y="70220"
         x="54000">R</text>
      <path
         inkscape:connector-curvature="0"
         id="path2766"
         d="m 54150,70190 -170,-240" />
      <path
         inkscape:connector-curvature="0"
         id="path2768"
         d="m 53860,70190 v -500 h 190 l 50,30 30,20 20,50 v 70 l -20,50 -30,20 -50,20 h -190" />
      <text
         style="font-size:660px;text-anchor:middle;opacity:0"
         id="text2770"
         lengthAdjust="spacingAndGlyphs"
         font-size="660"
         textLength="2060"
         y="71220"
         x="54500">180Ω</text>
      <path
         inkscape:connector-curvature="0"
         id="path2772"
         d="m 53880,71190 h -290" />
      <path
         inkscape:connector-curvature="0"
         id="path2774"
         d="m 53730,71190 v -500 l -40,70 -50,50 -50,20" />
      <path
         inkscape:connector-curvature="0"
         id="path2776"
         d="m 54160,70910 -50,-30 -20,-20 -20,-50 v -20 l 20,-50 20,-20 50,-30 h 100 l 40,30 30,20 20,50 v 20 l -20,50 -30,20 -40,30 h -100 l -50,20 -20,20 -20,50 v 100 l 20,40 20,30 50,20 h 100 l 40,-20 30,-30 20,-40 v -100 l -20,-50 -30,-20 -40,-20" />
      <path
         inkscape:connector-curvature="0"
         id="path2778"
         d="m 54660,70690 h 50 l 50,30 20,20 20,50 30,90 v 120 l -30,100 -20,40 -20,30 -50,20 h -50 l -50,-20 -20,-30 -20,-40 -30,-100 v -120 l 30,-90 20,-50 20,-20 50,-30" />
      <path
         inkscape:connector-curvature="0"
         id="path2780"
         d="m 55020,71190 h 120 v -90 l -50,-30 -50,-50 -20,-70 v -120 l 20,-70 50,-40 70,-30 h 100 l 70,30 50,40 20,70 v 120 l -20,70 -50,50 -50,30 v 90 h 120" />
    </g>
    <g
       transform="matrix(0.01023081,0,0,0.01023081,-585.8862,-515.91854)"
       id="g2792"
       style="fill:#ff6e42;fill-opacity:0;stroke:#ff6e42;stroke-width:100;stroke-linecap:round;stroke-linejoin:round;stroke-opacity:1">
      <path
         inkscape:connector-curvature="0"
         id="path2790"
         d="M 58500,70000 H 57500"
         style="fill:none;fill-opacity:0;stroke:#ff6e42;stroke-width:100;stroke-linecap:round;stroke-linejoin:round;stroke-opacity:1" />
    </g>
    <g
       transform="matrix(0.01023081,0,0,0.01023081,-585.8862,-515.91854)"
       id="g2796"
       style="fill:#ff6e42;fill-opacity:0;stroke:#ff6e42;stroke-width:60;stroke-linecap:round;stroke-linejoin:round;stroke-opacity:1">
      <path
         inkscape:connector-curvature="0"
         id="path2794"
         d="M 58000,70000 V 69000"
         style="fill:none;fill-opacity:0;stroke:#ff6e42;stroke-width:60;stroke-linecap:round;stroke-linejoin:round;stroke-opacity:1" />
    </g>
    <g
       transform="matrix(0.01023081,0,0,0.01023081,-585.8862,-515.91854)"
       id="g2800"
       style="fill:#ff6e42;fill-opacity:0;stroke:#ff6e42;stroke-width:100;stroke-linecap:round;stroke-linejoin:round;stroke-opacity:1">
      <path
         inkscape:connector-curvature="0"
         id="path2798"
         d="m 58500,69000 h -1000 l 500,1000 z"
         style="fill:none;fill-opacity:0;stroke:#ff6e42;stroke-width:100;stroke-linecap:round;stroke-linejoin:round;stroke-opacity:1" />
    </g>
    <g
       transform="matrix(0.01023081,0,0,0.01023081,-585.8862,-515.91854)"
       id="g2810"
       style="fill:#ff6e42;fill-opacity:0;stroke:#ff6e42;stroke-width:60;stroke-linecap:round;stroke-linejoin:round;stroke-opacity:1">
      <path
         inkscape:connector-curvature="0"
         id="path2802"
         d="m 58300,70700 600,600 v -300 300 h -300"
         style="fill:none;fill-opacity:0;stroke:#ff6e42;stroke-width:60;stroke-linecap:round;stroke-linejoin:round;stroke-opacity:1" />
      <path
         inkscape:connector-curvature="0"
         id="path2804"
         d="m 58300,70200 600,600 v -300 300 h -300"
         style="fill:none;fill-opacity:0;stroke:#ff6e42;stroke-width:60;stroke-linecap:round;stroke-linejoin:round;stroke-opacity:1" />
      <path
         inkscape:connector-curvature="0"
         id="path2806"
         d="m 58000,70000 v 1000" />
      <path
         inkscape:connector-curvature="0"
         id="path2808"
         d="M 58000,69000 V 68000" />
    </g>
    <text
       transform="matrix(0.01023081,0,0,0.01023081,-585.8862,-515.91854)"
       x="59890"
       y="70240"
       textLength="1420"
       font-size="660"
       lengthAdjust="spacingAndGlyphs"
       id="text2820"
       style="font-size:660px;text-anchor:middle;opacity:0;fill:#ffffff;fill-opacity:0;stroke:#ffffff;stroke-width:60;stroke-linecap:round;stroke-linejoin:round;stroke-opacity:1">LED</text>
    <path
       style="fill:#ffffff;fill-opacity:0;stroke:#ffffff;stroke-width:0.61384827;stroke-linecap:round;stroke-linejoin:round;stroke-opacity:1"
       d="M 23.460585,202.3863 H 21.1075 v -5.1154"
       id="path2822"
       inkscape:connector-curvature="0" />
    <path
       style="fill:#ffffff;fill-opacity:0;stroke:#ffffff;stroke-width:0.61384827;stroke-linecap:round;stroke-linejoin:round;stroke-opacity:1"
       d="m 25.199822,199.72629 h 1.739237"
       id="path2824"
       inkscape:connector-curvature="0" />
    <path
       style="fill:#ffffff;fill-opacity:0;stroke:#ffffff;stroke-width:0.61384827;stroke-linecap:round;stroke-linejoin:round;stroke-opacity:1"
       d="m 27.655215,202.3863 h -2.455393 v -5.1154 h 2.455393"
       id="path2826"
       inkscape:connector-curvature="0" />
    <path
       style="fill:#ffffff;fill-opacity:0;stroke:#ffffff;stroke-width:0.61384827;stroke-linecap:round;stroke-linejoin:round;stroke-opacity:1"
       d="m 29.803685,202.3863 v -5.1154 h 1.227696 l 0.716157,0.30692 0.51154,0.40924 0.204616,0.51154 0.306924,1.02308 v 0.71615 l -0.306924,0.92077 -0.204616,0.51155 -0.51154,0.51154 -0.716157,0.20461 h -1.227696"
       id="path2828"
       inkscape:connector-curvature="0" />
    <g
       transform="matrix(0.01023081,0,0,0.01023081,-585.8862,-515.91854)"
       id="g2840"
       style="fill:#ff6e42;fill-opacity:0;stroke:#ff6e42;stroke-width:60;stroke-linecap:round;stroke-linejoin:round;stroke-opacity:1">
      <rect
         id="rect2838"
         rx="0"
         height="200"
         width="1800"
         y="73600"
         x="51600" />
    </g>
    <g
       transform="matrix(0.01023081,0,0,0.01023081,-585.8862,-515.91854)"
       id="g2844"
       style="fill:#ff6e42;fill-opacity:1;stroke:#ff6e42;stroke-width:60;stroke-linecap:round;stroke-linejoin:round;stroke-opacity:1">
      <rect
         id="rect2842"
         rx="0"
         height="200"
         width="1800"
         y="74200"
         x="51600" />
    </g>
    <g
       transform="matrix(0.01023081,0,0,0.01023081,-585.8862,-515.91854)"
       id="g2854"
       style="fill:#ff6e42;fill-opacity:0;stroke:#ff6e42;stroke-width:60;stroke-linecap:round;stroke-linejoin:round;stroke-opacity:1">
      <path
         inkscape:connector-curvature="0"
         id="path2846"
         d="m 51800,73100 h 400"
         style="fill:none;fill-opacity:0;stroke:#ff6e42;stroke-width:60;stroke-linecap:round;stroke-linejoin:round;stroke-opacity:1" />
      <path
         inkscape:connector-curvature="0"
         id="path2848"
         d="m 52000,72900 v 400"
         style="fill:none;fill-opacity:0;stroke:#ff6e42;stroke-width:60;stroke-linecap:round;stroke-linejoin:round;stroke-opacity:1" />
      <path
         inkscape:connector-curvature="0"
         id="path2850"
         d="M 52500,73600 V 72500" />
      <path
         inkscape:connector-curvature="0"
         id="path2852"
         d="m 52500,74400 v 1100" />
    </g>
    <g
       transform="matrix(0.01023081,0,0,0.01023081,-585.8862,-515.91854)"
       id="g2876"
       style="fill:#ffffff;fill-opacity:0;stroke:#ffffff;stroke-width:60;stroke-linecap:round;stroke-linejoin:round;stroke-opacity:1">
      <text
         style="font-size:660px;text-anchor:middle;opacity:0"
         id="text2856"
         lengthAdjust="spacingAndGlyphs"
         font-size="660"
         textLength="560"
         y="73810"
         x="53960">C</text>
      <path
         inkscape:connector-curvature="0"
         id="path2858"
         d="m 54110,73730 -20,30 -80,20 h -40 l -70,-20 -50,-50 -30,-50 -20,-90 v -70 l 20,-100 30,-50 50,-40 70,-30 h 40 l 80,30 20,20" />
      <text
         style="font-size:660px;text-anchor:middle;opacity:0"
         id="text2860"
         lengthAdjust="spacingAndGlyphs"
         font-size="660"
         textLength="2010"
         y="74720"
         x="54680">100μ</text>
      <path
         inkscape:connector-curvature="0"
         id="path2862"
         d="m 54080,74690 h -290" />
      <path
         inkscape:connector-curvature="0"
         id="path2864"
         d="m 53940,74690 v -500 l -50,70 -50,50 -50,20" />
      <path
         inkscape:connector-curvature="0"
         id="path2866"
         d="m 54390,74190 h 50 l 40,30 30,20 20,50 30,90 v 120 l -30,100 -20,40 -30,30 -40,20 h -50 l -50,-20 -20,-30 -30,-40 -20,-100 v -120 l 20,-90 30,-50 20,-20 50,-30" />
      <path
         inkscape:connector-curvature="0"
         id="path2868"
         d="m 54870,74190 h 40 l 50,30 20,20 30,50 20,90 v 120 l -20,100 -30,40 -20,30 -50,20 h -40 l -50,-20 -30,-30 -20,-40 -20,-100 v -120 l 20,-90 20,-50 30,-20 50,-30" />
      <path
         inkscape:connector-curvature="0"
         id="path2870"
         d="m 55250,74360 v 500" />
      <path
         inkscape:connector-curvature="0"
         id="path2872"
         d="m 55480,74620 30,50 50,20" />
      <path
         inkscape:connector-curvature="0"
         id="path2874"
         d="m 55250,74620 20,50 50,20 h 90 l 50,-20 20,-50 v -260" />
    </g>
    <path
       style="fill:#ff6e41;fill-opacity:0;stroke:#ff6e41;stroke-width:0.61384827;stroke-linecap:round;stroke-linejoin:round;stroke-opacity:1"
       inkscape:connector-curvature="0"
       id="path5592"
       d="m -58.999722,133.7376 v 10.2308" />
    <path
       style="fill:#ff6e41;fill-opacity:0;stroke:#ff6e41;stroke-width:0.61384827;stroke-linecap:round;stroke-linejoin:round;stroke-opacity:1"
       inkscape:connector-curvature="0"
       id="path5594"
       d="M -38.538111,143.9684 V 133.7376" />
    <path
       style="fill:#ff6e41;fill-opacity:0;stroke:#ff6e41;stroke-width:0.61384827;stroke-linecap:round;stroke-linejoin:round;stroke-opacity:1"
       inkscape:connector-curvature="0"
       id="path5602"
       d="M -38.538111,133.7376 H 7.500529" />
    <path
       style="fill:#ff6e41;fill-opacity:0;stroke:#ff6e41;stroke-width:0.61384827;stroke-linecap:round;stroke-linejoin:round;stroke-opacity:1"
       inkscape:connector-curvature="0"
       id="path5604"
       d="m 7.500529,133.7376 v 46.03862" />
    <path
       style="fill:#ff6e41;fill-opacity:0;stroke:#ff6e41;stroke-width:0.61384827;stroke-linecap:round;stroke-linejoin:round;stroke-opacity:1"
       inkscape:connector-curvature="0"
       id="path5606"
       d="m -48.768916,225.81485 v -5.11541" />
    <path
       style="fill:#ff6e41;fill-opacity:0;stroke:#ff6e41;stroke-width:0.61384827;stroke-linecap:round;stroke-linejoin:round;stroke-opacity:1"
       inkscape:connector-curvature="0"
       id="path5608"
       d="m -48.768916,190.00703 v -5.11541" />
    <path
       style="fill:#ff6e41;fill-opacity:0;stroke:#ff6e41;stroke-width:0.61384827;stroke-linecap:round;stroke-linejoin:round;stroke-opacity:1"
       inkscape:connector-curvature="0"
       id="path5610"
       d="m -115.26915,210.46864 v 56.26943" />
    <path
       style="fill:#ff6e41;fill-opacity:0;stroke:#ff6e41;stroke-width:0.61384827;stroke-linecap:round;stroke-linejoin:round;stroke-opacity:1"
       inkscape:connector-curvature="0"
       id="path5612"
       d="m -115.26915,266.73807 h 66.500234" />
    <path
       style="fill:#ff6e41;fill-opacity:0;stroke:#ff6e41;stroke-width:0.61384827;stroke-linecap:round;stroke-linejoin:round;stroke-opacity:1"
       inkscape:connector-curvature="0"
       id="path5614"
       d="M -48.768916,266.73807 V 256.50726" />
    <path
       style="fill:#ff6e41;fill-opacity:0;stroke:#ff6e41;stroke-width:0.61384827;stroke-linecap:round;stroke-linejoin:round;stroke-opacity:1"
       inkscape:connector-curvature="0"
       id="path5616"
       d="M -48.768916,266.73807 H 7.500529" />
    <path
       style="fill:#ff6e41;fill-opacity:0;stroke:#ff6e41;stroke-width:0.61384827;stroke-linecap:round;stroke-linejoin:round;stroke-opacity:1"
       inkscape:connector-curvature="0"
       id="path5618"
       d="M 7.500529,266.73807 V 210.46864" />
    <path
       style="fill:#ff6e41;fill-opacity:0;stroke:#ff6e41;stroke-width:0.61384827;stroke-linecap:round;stroke-linejoin:round;stroke-opacity:1"
       inkscape:connector-curvature="0"
       id="path5900"
       d="m -115.26915,133.7376 h 15.346207" />
    <path
       style="fill:#ff6e41;fill-opacity:0;stroke:#ff6e41;stroke-width:0.61384827;stroke-linecap:round;stroke-linejoin:round;stroke-opacity:1"
       inkscape:connector-curvature="0"
       id="path5960"
       d="m -69.230527,133.7376 h 10.230805" />
    <path
       style="fill:#ff6e41;fill-opacity:0;stroke:#ff6e41;stroke-width:0.61384827;stroke-linecap:round;stroke-linejoin:round;stroke-opacity:1"
       inkscape:connector-curvature="0"
       id="path5962"
       d="M -115.26915,179.77622 V 133.7376" />
    <circle
       style="fill:#ff6e41;fill-opacity:1;stroke:#ff6e41;stroke-width:1.02308059;stroke-linecap:round;stroke-linejoin:round;stroke-opacity:1"
       id="circle6144"
       r="2.0461612"
       cy="266.7381"
       cx="-48.768909" />
  </g>
</svg>
