<?xml version="1.0" encoding="UTF-8" standalone="no"?>
<!-- Created with Inkscape (http://www.inkscape.org/) -->

<svg
   width="158.74998mm"
   height="133.94215mm"
   viewBox="0 0 158.74998 133.94216"
   version="1.1"
   id="svg20041"
   inkscape:version="1.1 (1:1.1+202105261517+ce6663b3b7)"
   sodipodi:docname="electron-25.svg"
   xmlns:inkscape="http://www.inkscape.org/namespaces/inkscape"
   xmlns:sodipodi="http://sodipodi.sourceforge.net/DTD/sodipodi-0.dtd"
   xmlns="http://www.w3.org/2000/svg"
   xmlns:svg="http://www.w3.org/2000/svg"
   xmlns:rdf="http://www.w3.org/1999/02/22-rdf-syntax-ns#"
   xmlns:cc="http://creativecommons.org/ns#"
   xmlns:dc="http://purl.org/dc/elements/1.1/">
  <defs
     id="defs20035" />
  <sodipodi:namedview
     id="base"
     pagecolor="#ffffff"
     bordercolor="#666666"
     borderopacity="1.0"
     inkscape:pageopacity="0.0"
     inkscape:pageshadow="2"
     inkscape:zoom="2.56"
     inkscape:cx="411.71875"
     inkscape:cy="397.65625"
     inkscape:document-units="mm"
     inkscape:current-layer="g2524"
     showgrid="false"
     inkscape:window-width="1920"
     inkscape:window-height="1030"
     inkscape:window-x="0"
     inkscape:window-y="1106"
     inkscape:window-maximized="1"
     inkscape:pagecheckerboard="0" />
  <metadata
     id="metadata20038">
    <rdf:RDF>
      <cc:Work
         rdf:about="">
        <dc:format>image/svg+xml</dc:format>
        <dc:type
           rdf:resource="http://purl.org/dc/dcmitype/StillImage" />
        <dc:title />
      </cc:Work>
    </rdf:RDF>
  </metadata>
  <g
     inkscape:label="Vrstva 1"
     inkscape:groupmode="layer"
     id="layer1"
     transform="translate(83.176218,-228.44813)">
    <g
       transform="matrix(0.01268289,0,0,0.01268289,-654.79407,-398.96905)"
       id="g2112"
       style="fill:#ff6e42;fill-opacity:1;stroke:#ff6e42;stroke-width:60;stroke-linecap:round;stroke-linejoin:round;stroke-opacity:1">
      <rect
         id="rect2108"
         rx="0"
         height="100"
         width="1800"
         y="53800"
         x="45100" />
      <rect
         id="rect2110"
         rx="0"
         height="200"
         width="1200"
         y="54030"
         x="45380" />
    </g>
    <g
       transform="matrix(0.01268289,0,0,0.01268289,-654.79407,-398.96905)"
       id="g2118"
       style="fill:#ff6e42;fill-opacity:0;stroke:#ff6e42;stroke-width:60;stroke-linecap:round;stroke-linejoin:round;stroke-opacity:1">
      <path
         inkscape:connector-curvature="0"
         id="path2114"
         d="m 46000,54200 v 300"
         style="fill:none;fill-opacity:0;stroke:#ff6e42;stroke-width:60;stroke-linecap:round;stroke-linejoin:round;stroke-opacity:1" />
      <path
         inkscape:connector-curvature="0"
         id="path2116"
         d="m 46000,53800 v -300"
         style="fill:none;fill-opacity:0;stroke:#ff6e42;stroke-width:60;stroke-linecap:round;stroke-linejoin:round;stroke-opacity:1" />
    </g>
    <g
       transform="matrix(0.01268289,0,0,0.01268289,-654.79407,-398.96905)"
       id="g2124"
       style="fill:#ff6e42;fill-opacity:0;stroke:#ff6e42;stroke-width:100;stroke-linecap:round;stroke-linejoin:round;stroke-opacity:1">
      <path
         inkscape:connector-curvature="0"
         id="path2120"
         d="m 46200,53150 h 400"
         style="fill:none;fill-opacity:0;stroke:#ff6e42;stroke-width:100;stroke-linecap:round;stroke-linejoin:round;stroke-opacity:1" />
      <path
         inkscape:connector-curvature="0"
         id="path2122"
         d="m 46400,52950 v 400"
         style="fill:none;fill-opacity:0;stroke:#ff6e42;stroke-width:100;stroke-linecap:round;stroke-linejoin:round;stroke-opacity:1" />
    </g>
    <g
       transform="matrix(0.01268289,0,0,0.01268289,-654.79407,-398.96905)"
       id="g2130"
       style="fill:#ff6e42;fill-opacity:0;stroke:#ff6e42;stroke-width:60;stroke-linecap:round;stroke-linejoin:round;stroke-opacity:1">
      <path
         inkscape:connector-curvature="0"
         id="path2126"
         d="M 46000,53500 V 52500" />
      <path
         inkscape:connector-curvature="0"
         id="path2128"
         d="m 46000,54500 v 1000" />
    </g>
    <g
       transform="matrix(0.01268289,0,0,0.01268289,-654.79407,-398.96905)"
       id="g2190"
       style="fill:#ff6e42;fill-opacity:0;stroke:#ff6e42;stroke-width:100;stroke-linecap:round;stroke-linejoin:round;stroke-opacity:1">
      <rect
         id="rect2188"
         rx="0"
         height="800"
         width="2000"
         y="51100"
         x="51500" />
    </g>
    <g
       transform="matrix(0.01268289,0,0,0.01268289,-654.79407,-398.96905)"
       id="g2194"
       style="fill:#ff6e42;fill-opacity:0;stroke:#ff6e42;stroke-width:60;stroke-linecap:round;stroke-linejoin:round;stroke-opacity:1">
      <path
         inkscape:connector-curvature="0"
         id="path2192"
         d="m 52500,50500 v 400"
         style="fill:none;fill-opacity:0;stroke:#ff6e42;stroke-width:60;stroke-linecap:round;stroke-linejoin:round;stroke-opacity:1" />
    </g>
    <g
       transform="matrix(0.01268289,0,0,0.01268289,-654.79407,-398.96905)"
       id="g2198"
       style="fill:#ff6e42;fill-opacity:1;stroke:#ff6e42;stroke-width:60;stroke-linecap:round;stroke-linejoin:round;stroke-opacity:1">
      <path
         inkscape:connector-curvature="0"
         id="path2196"
         d="m 52500,51050 -200,-450 h 400 z"
         style="fill:#ff6e42;fill-opacity:1;fill-rule:evenodd;stroke:#ff6e42;stroke-width:60;stroke-linecap:round;stroke-linejoin:round;stroke-opacity:1" />
    </g>
    <g
       transform="matrix(0.01268289,0,0,0.01268289,-654.79407,-398.96905)"
       id="g2222"
       style="fill:#ff6e42;fill-opacity:0;stroke:#ff6e42;stroke-width:60;stroke-linecap:round;stroke-linejoin:round;stroke-opacity:1">
      <path
         inkscape:connector-curvature="0"
         id="path2200"
         d="m 51500,51500 h -500" />
      <text
         style="font-size:660px;text-anchor:middle;opacity:0"
         id="text2202"
         lengthAdjust="spacingAndGlyphs"
         font-size="660"
         textLength="540"
         y="51400"
         x="51250">1</text>
      <path
         inkscape:connector-curvature="0"
         id="path2204"
         d="m 51390,51370 h -290" />
      <path
         inkscape:connector-curvature="0"
         id="path2206"
         d="m 51250,51370 v -500 l -50,70 -50,50 -50,20" />
      <path
         inkscape:connector-curvature="0"
         id="path2208"
         d="m 52500,50500 v -500" />
      <g
         id="g2212"
         transform="rotate(-90,52400,50250)">
        <text
           style="font-size:660px;text-anchor:middle;opacity:0"
           id="text2210"
           lengthAdjust="spacingAndGlyphs"
           font-size="660"
           textLength="540"
           y="50250"
           x="52400">2</text>
      </g>
      <path
         inkscape:connector-curvature="0"
         id="path2214"
         d="m 51920,50390 -20,-30 -30,-40 v -120 l 30,-50 20,-20 50,-30 h 40 l 80,30 280,280 v -310" />
      <path
         inkscape:connector-curvature="0"
         id="path2216"
         d="m 53500,51500 h 500" />
      <text
         style="font-size:660px;text-anchor:middle;opacity:0"
         id="text2218"
         lengthAdjust="spacingAndGlyphs"
         font-size="660"
         textLength="540"
         y="51400"
         x="53750">3</text>
      <path
         inkscape:connector-curvature="0"
         id="path2220"
         d="m 53580,50870 h 310 l -170,190 h 70 l 50,30 20,20 30,50 v 120 l -30,40 -20,30 -50,20 h -140 l -50,-20 -20,-30" />
    </g>
    <g
       transform="matrix(0.01268289,0,0,0.01268289,-654.79407,-398.96905)"
       id="g2266"
       style="fill:#ff6e42;fill-opacity:0;stroke:#ff6e42;stroke-width:100;stroke-linecap:round;stroke-linejoin:round;stroke-opacity:1">
      <path
         inkscape:connector-curvature="0"
         id="path2264"
         d="M 50500,54500 H 49500"
         style="fill:none;fill-opacity:0;stroke:#ff6e42;stroke-width:100;stroke-linecap:round;stroke-linejoin:round;stroke-opacity:1" />
    </g>
    <g
       transform="matrix(0.01268289,0,0,0.01268289,-654.79407,-398.96905)"
       id="g2270"
       style="fill:#ff6e42;fill-opacity:0;stroke:#ff6e42;stroke-width:60;stroke-linecap:round;stroke-linejoin:round;stroke-opacity:1">
      <path
         inkscape:connector-curvature="0"
         id="path2268"
         d="M 50000,54500 V 53500"
         style="fill:none;fill-opacity:0;stroke:#ff6e42;stroke-width:60;stroke-linecap:round;stroke-linejoin:round;stroke-opacity:1" />
    </g>
    <g
       transform="matrix(0.01268289,0,0,0.01268289,-654.79407,-398.96905)"
       id="g2274"
       style="fill:#ff6e42;fill-opacity:0;stroke:#ff6e42;stroke-width:100;stroke-linecap:round;stroke-linejoin:round;stroke-opacity:1">
      <path
         inkscape:connector-curvature="0"
         id="path2272"
         d="m 50500,53500 h -1000 l 500,1000 z"
         style="fill:none;fill-opacity:0;stroke:#ff6e42;stroke-width:100;stroke-linecap:round;stroke-linejoin:round;stroke-opacity:1" />
    </g>
    <g
       transform="matrix(0.01268289,0,0,0.01268289,-654.79407,-398.96905)"
       id="g2284"
       style="fill:#ff6e42;fill-opacity:0;stroke:#ff6e42;stroke-width:60;stroke-linecap:round;stroke-linejoin:round;stroke-opacity:1">
      <path
         inkscape:connector-curvature="0"
         id="path2276"
         d="m 50300,55200 600,600 v -300 300 h -300"
         style="fill:none;fill-opacity:0;stroke:#ff6e42;stroke-width:60;stroke-linecap:round;stroke-linejoin:round;stroke-opacity:1" />
      <path
         inkscape:connector-curvature="0"
         id="path2278"
         d="m 50300,54700 600,600 v -300 300 h -300"
         style="fill:none;fill-opacity:0;stroke:#ff6e42;stroke-width:60;stroke-linecap:round;stroke-linejoin:round;stroke-opacity:1" />
      <path
         inkscape:connector-curvature="0"
         id="path2280"
         d="m 50000,54500 v 1000" />
      <path
         inkscape:connector-curvature="0"
         id="path2282"
         d="M 50000,53500 V 52500" />
    </g>
    <text
       transform="matrix(0.01268289,0,0,0.01268289,-654.79407,-398.96905)"
       x="51890"
       y="54740"
       textLength="1420"
       font-size="660"
       lengthAdjust="spacingAndGlyphs"
       id="text2294"
       style="font-size:660px;text-anchor:middle;opacity:0;fill:#ffffff;fill-opacity:0;stroke:#ffffff;stroke-width:60;stroke-linecap:round;stroke-linejoin:round;stroke-opacity:1">LED</text>
    <path
       style="fill:#ffffff;fill-opacity:0;stroke:#ffffff;stroke-width:0.760973;stroke-linecap:round;stroke-linejoin:round;stroke-opacity:1"
       d="M -0.86420418,294.9119 H -3.781269 v -6.34145"
       id="path2296"
       inkscape:connector-curvature="0" />
    <path
       style="fill:#ffffff;fill-opacity:0;stroke:#ffffff;stroke-width:0.760973;stroke-linecap:round;stroke-linejoin:round;stroke-opacity:1"
       d="M 1.2918872,291.61435 H 3.4479787"
       id="path2298"
       inkscape:connector-curvature="0" />
    <path
       style="fill:#ffffff;fill-opacity:0;stroke:#ffffff;stroke-width:0.760973;stroke-linecap:round;stroke-linejoin:round;stroke-opacity:1"
       d="M 4.335781,294.9119 H 1.2918872 v -6.34145 H 4.335781"
       id="path2300"
       inkscape:connector-curvature="0" />
    <path
       style="fill:#ffffff;fill-opacity:0;stroke:#ffffff;stroke-width:0.760973;stroke-linecap:round;stroke-linejoin:round;stroke-opacity:1"
       d="m 6.9991881,294.9119 v -6.34145 H 8.521135 l 0.8878023,0.38049 0.6341447,0.50731 0.253658,0.63415 0.380486,1.26829 v 0.8878 l -0.380486,1.14146 -0.253658,0.63415 -0.6341447,0.63414 -0.8878023,0.25366 H 6.9991881"
       id="path2302"
       inkscape:connector-curvature="0" />
    <g
       transform="matrix(0.01268289,0,0,0.01268289,-654.79407,-398.96905)"
       id="g2314"
       style="fill:#ff6e42;fill-opacity:0;stroke:#ff6e42;stroke-width:100;stroke-linecap:round;stroke-linejoin:round;stroke-opacity:1">
      <path
         inkscape:connector-curvature="0"
         id="path2312"
         d="M 55500,54500 H 54500"
         style="fill:none;fill-opacity:0;stroke:#ff6e42;stroke-width:100;stroke-linecap:round;stroke-linejoin:round;stroke-opacity:1" />
    </g>
    <g
       transform="matrix(0.01268289,0,0,0.01268289,-654.79407,-398.96905)"
       id="g2318"
       style="fill:#ff6e42;fill-opacity:0;stroke:#ff6e42;stroke-width:60;stroke-linecap:round;stroke-linejoin:round;stroke-opacity:1">
      <path
         inkscape:connector-curvature="0"
         id="path2316"
         d="M 55000,54500 V 53500"
         style="fill:none;fill-opacity:0;stroke:#ff6e42;stroke-width:60;stroke-linecap:round;stroke-linejoin:round;stroke-opacity:1" />
    </g>
    <g
       transform="matrix(0.01268289,0,0,0.01268289,-654.79407,-398.96905)"
       id="g2322"
       style="fill:#ff6e42;fill-opacity:0;stroke:#ff6e42;stroke-width:100;stroke-linecap:round;stroke-linejoin:round;stroke-opacity:1">
      <path
         inkscape:connector-curvature="0"
         id="path2320"
         d="m 55500,53500 h -1000 l 500,1000 z"
         style="fill:none;fill-opacity:0;stroke:#ff6e42;stroke-width:100;stroke-linecap:round;stroke-linejoin:round;stroke-opacity:1" />
    </g>
    <g
       transform="matrix(0.01268289,0,0,0.01268289,-654.79407,-398.96905)"
       id="g2332"
       style="fill:#ff6e42;fill-opacity:0;stroke:#ff6e42;stroke-width:60;stroke-linecap:round;stroke-linejoin:round;stroke-opacity:1">
      <path
         inkscape:connector-curvature="0"
         id="path2324"
         d="m 55300,55200 600,600 v -300 300 h -300"
         style="fill:none;fill-opacity:0;stroke:#ff6e42;stroke-width:60;stroke-linecap:round;stroke-linejoin:round;stroke-opacity:1" />
      <path
         inkscape:connector-curvature="0"
         id="path2326"
         d="m 55300,54700 600,600 v -300 300 h -300"
         style="fill:none;fill-opacity:0;stroke:#ff6e42;stroke-width:60;stroke-linecap:round;stroke-linejoin:round;stroke-opacity:1" />
      <path
         inkscape:connector-curvature="0"
         id="path2328"
         d="m 55000,54500 v 1000" />
      <path
         inkscape:connector-curvature="0"
         id="path2330"
         d="M 55000,53500 V 52500" />
    </g>
    <text
       transform="matrix(0.01268289,0,0,0.01268289,-654.79407,-398.96905)"
       x="56890"
       y="54740"
       textLength="1420"
       font-size="660"
       lengthAdjust="spacingAndGlyphs"
       id="text2342"
       style="font-size:660px;text-anchor:middle;opacity:0;fill:#ffffff;fill-opacity:0;stroke:#ffffff;stroke-width:60;stroke-linecap:round;stroke-linejoin:round;stroke-opacity:1">LED</text>
    <path
       style="fill:#ffffff;fill-opacity:0;stroke:#ffffff;stroke-width:0.760973;stroke-linecap:round;stroke-linejoin:round;stroke-opacity:1"
       d="m 62.550249,294.9119 h -2.917064 v -6.34145"
       id="path2344"
       inkscape:connector-curvature="0" />
    <path
       style="fill:#ffffff;fill-opacity:0;stroke:#ffffff;stroke-width:0.760973;stroke-linecap:round;stroke-linejoin:round;stroke-opacity:1"
       d="m 64.706341,291.61435 h 2.156091"
       id="path2346"
       inkscape:connector-curvature="0" />
    <path
       style="fill:#ffffff;fill-opacity:0;stroke:#ffffff;stroke-width:0.760973;stroke-linecap:round;stroke-linejoin:round;stroke-opacity:1"
       d="m 67.750235,294.9119 h -3.043894 v -6.34145 h 3.043894"
       id="path2348"
       inkscape:connector-curvature="0" />
    <path
       style="fill:#ffffff;fill-opacity:0;stroke:#ffffff;stroke-width:0.760973;stroke-linecap:round;stroke-linejoin:round;stroke-opacity:1"
       d="m 70.413642,294.9119 v -6.34145 h 1.521947 l 0.887802,0.38049 0.634145,0.50731 0.253657,0.63415 0.380487,1.26829 v 0.8878 l -0.380487,1.14146 -0.253657,0.63415 -0.634145,0.63414 -0.887802,0.25366 h -1.521947"
       id="path2350"
       inkscape:connector-curvature="0" />
    <g
       transform="matrix(0.01268289,0,0,0.01268289,-654.79407,-398.96905)"
       id="g2494"
       style="fill:#ff6e42;fill-opacity:0;stroke:#ff6e42;stroke-width:100;stroke-linecap:round;stroke-linejoin:round;stroke-opacity:1">
      <rect
         id="rect2492"
         rx="0"
         height="2000"
         width="800"
         y="57000"
         x="52100" />
    </g>
    <g
       transform="matrix(0.01268289,0,0,0.01268289,-654.79407,-398.96905)"
       id="g2500"
       style="fill:#ff6e42;fill-opacity:0;stroke:#ff6e42;stroke-width:60;stroke-linecap:round;stroke-linejoin:round;stroke-opacity:1">
      <path
         inkscape:connector-curvature="0"
         id="path2496"
         d="m 52500,59000 v 500" />
      <path
         inkscape:connector-curvature="0"
         id="path2498"
         d="m 52500,57000 v -500" />
    </g>
    <g
       transform="matrix(0.01268289,0,0,0.01268289,-654.79407,-398.96905)"
       id="g2524"
       style="fill:#ffffff;fill-opacity:0;stroke:#ffffff;stroke-width:60;stroke-linecap:round;stroke-linejoin:round;stroke-opacity:1">
      <text
         style="font-size:660px;text-anchor:middle;opacity:0;stroke:#000000"
         id="text2502"
         lengthAdjust="spacingAndGlyphs"
         font-size="660"
         textLength="990"
         y="57720"
         x="53990" />
      <path
         inkscape:connector-curvature="0"
         id="path2504"
         d="m 53930,57690 -170,-240"
         style="stroke:#ffffff" />
      <path
         inkscape:connector-curvature="0"
         id="path2506"
         d="m 53640,57690 v -500 h 190 l 50,30 20,20 30,50 v 70 l -30,50 -20,20 -50,20 h -190"
         style="stroke:#ffffff" />
      <text
         style="font-size:660px;text-anchor:middle;opacity:0;stroke:#ffffff"
         id="text2512"
         lengthAdjust="spacingAndGlyphs"
         font-size="660"
         textLength="2060"
         y="58720"
         x="54500">180Ω</text>
      <path
         inkscape:connector-curvature="0"
         id="path2514"
         d="m 53880,58690 h -290"
         style="stroke:#ffffff" />
      <path
         inkscape:connector-curvature="0"
         id="path2516"
         d="m 53730,58690 v -500 l -40,70 -50,50 -50,20"
         style="stroke:#ffffff" />
      <path
         inkscape:connector-curvature="0"
         id="path2518"
         d="m 54160,58410 -50,-30 -20,-20 -20,-50 v -20 l 20,-50 20,-20 50,-30 h 100 l 40,30 30,20 20,50 v 20 l -20,50 -30,20 -40,30 h -100 l -50,20 -20,20 -20,50 v 100 l 20,40 20,30 50,20 h 100 l 40,-20 30,-30 20,-40 v -100 l -20,-50 -30,-20 -40,-20"
         style="stroke:#ffffff" />
      <path
         inkscape:connector-curvature="0"
         id="path2520"
         d="m 54660,58190 h 50 l 50,30 20,20 20,50 30,90 v 120 l -30,100 -20,40 -20,30 -50,20 h -50 l -50,-20 -20,-30 -20,-40 -30,-100 v -120 l 30,-90 20,-50 20,-20 50,-30"
         style="stroke:#ffffff" />
      <path
         inkscape:connector-curvature="0"
         id="path2522"
         d="m 55020,58690 h 120 v -90 l -50,-30 -50,-50 -20,-70 v -120 l 20,-70 50,-40 70,-30 h 100 l 70,30 50,40 20,70 v 120 l -20,70 -50,50 -50,30 v 90 h 120"
         style="stroke:#ffffff" />
    </g>
    <path
       style="fill:#ff6e41;fill-opacity:0;stroke:#ff6e41;stroke-width:0.760973;stroke-linecap:round;stroke-linejoin:round;stroke-opacity:1"
       inkscape:connector-curvature="0"
       id="path5958"
       d="m -20.649514,304.93138 v 6.34145" />
    <path
       style="fill:#ff6e41;fill-opacity:0;stroke:#ff6e41;stroke-width:0.760973;stroke-linecap:round;stroke-linejoin:round;stroke-opacity:1"
       inkscape:connector-curvature="0"
       id="path5964"
       d="M -71.381077,362.00439 V 304.93138" />
    <path
       style="fill:#ff6e41;fill-opacity:0;stroke:#ff6e41;stroke-width:0.760973;stroke-linecap:round;stroke-linejoin:round;stroke-opacity:1"
       inkscape:connector-curvature="0"
       id="path5966"
       d="m 11.057713,362.00439 h -82.43879" />
    <path
       style="fill:#ff6e41;fill-opacity:0;stroke:#ff6e41;stroke-width:0.760973;stroke-linecap:round;stroke-linejoin:round;stroke-opacity:1"
       inkscape:connector-curvature="0"
       id="path5968"
       d="m 11.057713,355.66294 v 6.34145" />
    <path
       style="fill:#ff6e41;fill-opacity:0;stroke:#ff6e41;stroke-width:0.760973;stroke-linecap:round;stroke-linejoin:round;stroke-opacity:1"
       inkscape:connector-curvature="0"
       id="path5970"
       d="M 11.057713,311.27283 H 42.76494" />
    <path
       style="fill:#ff6e41;fill-opacity:0;stroke:#ff6e41;stroke-width:0.760973;stroke-linecap:round;stroke-linejoin:round;stroke-opacity:1"
       inkscape:connector-curvature="0"
       id="path5972"
       d="m 11.057713,317.61427 v -6.34144" />
    <path
       style="fill:#ff6e41;fill-opacity:0;stroke:#ff6e41;stroke-width:0.760973;stroke-linecap:round;stroke-linejoin:round;stroke-opacity:1"
       inkscape:connector-curvature="0"
       id="path5974"
       d="m 42.76494,311.27283 v -6.34145" />
    <path
       style="fill:#ff6e41;fill-opacity:0;stroke:#ff6e41;stroke-width:0.760973;stroke-linecap:round;stroke-linejoin:round;stroke-opacity:1"
       inkscape:connector-curvature="0"
       id="path5976"
       d="M -20.649514,311.27283 H 11.057713" />
    <path
       style="fill:#ff6e41;fill-opacity:0;stroke:#ff6e41;stroke-width:0.760973;stroke-linecap:round;stroke-linejoin:round;stroke-opacity:1"
       inkscape:connector-curvature="0"
       id="path5980"
       d="m -71.381077,228.83404 v 38.04867" />
    <path
       style="fill:#ff6e41;fill-opacity:0;stroke:#ff6e41;stroke-width:0.760973;stroke-linecap:round;stroke-linejoin:round;stroke-opacity:1"
       inkscape:connector-curvature="0"
       id="path5982"
       d="m 11.057713,228.83404 h -82.43879" />
    <path
       style="fill:#ff6e41;fill-opacity:0;stroke:#ff6e41;stroke-width:0.760973;stroke-linecap:round;stroke-linejoin:round;stroke-opacity:1"
       inkscape:connector-curvature="0"
       id="path5984"
       d="m 11.057713,235.17548 v -6.34144" />
    <path
       style="fill:#ff6e41;fill-opacity:0;stroke:#ff6e41;stroke-width:0.760973;stroke-linecap:round;stroke-linejoin:round;stroke-opacity:1"
       inkscape:connector-curvature="0"
       id="path5986"
       d="M -20.649514,254.19982 H -7.966623" />
    <path
       style="fill:#ff6e41;fill-opacity:0;stroke:#ff6e41;stroke-width:0.760973;stroke-linecap:round;stroke-linejoin:round;stroke-opacity:1"
       inkscape:connector-curvature="0"
       id="path5988"
       d="M -20.649514,266.88271 V 254.19982" />
    <path
       style="fill:#ff6e41;fill-opacity:0;stroke:#ff6e41;stroke-width:0.760973;stroke-linecap:round;stroke-linejoin:round;stroke-opacity:1"
       inkscape:connector-curvature="0"
       id="path5990"
       d="m 42.76494,254.19982 v 12.68289" />
    <path
       style="fill:#ff6e41;fill-opacity:0;stroke:#ff6e41;stroke-width:0.760973;stroke-linecap:round;stroke-linejoin:round;stroke-opacity:1"
       inkscape:connector-curvature="0"
       id="path5992"
       d="M 30.082049,254.19982 H 42.76494" />
    <circle
       style="fill:#ff6e41;fill-opacity:1;stroke:#ff6e41;stroke-width:1.26829;stroke-linecap:round;stroke-linejoin:round;stroke-opacity:1"
       id="circle6108"
       r="2.5365782"
       cy="311.27286"
       cx="11.057709" />
  </g>
</svg>
