<?xml version="1.0" encoding="UTF-8" standalone="no"?>
<!-- Created with Inkscape (http://www.inkscape.org/) -->

<svg
   xmlns:dc="http://purl.org/dc/elements/1.1/"
   xmlns:cc="http://creativecommons.org/ns#"
   xmlns:rdf="http://www.w3.org/1999/02/22-rdf-syntax-ns#"
   xmlns:svg="http://www.w3.org/2000/svg"
   xmlns="http://www.w3.org/2000/svg"
   xmlns:sodipodi="http://sodipodi.sourceforge.net/DTD/sodipodi-0.dtd"
   xmlns:inkscape="http://www.inkscape.org/namespaces/inkscape"
   width="158.75005mm"
   height="64.379547mm"
   viewBox="0 0 158.75005 64.379546"
   version="1.1"
   id="svg14112"
   inkscape:version="0.92.4 (5da689c313, 2019-01-14)"
   sodipodi:docname="13.svg">
  <defs
     id="defs14106" />
  <sodipodi:namedview
     id="base"
     pagecolor="#ffffff"
     bordercolor="#666666"
     borderopacity="1.0"
     inkscape:pageopacity="0.0"
     inkscape:pageshadow="2"
     inkscape:zoom="3.959798"
     inkscape:cx="-17.443066"
     inkscape:cy="88.120805"
     inkscape:document-units="mm"
     inkscape:current-layer="layer1"
     showgrid="false"
     inkscape:window-width="1920"
     inkscape:window-height="1027"
     inkscape:window-x="-8"
     inkscape:window-y="1072"
     inkscape:window-maximized="1" />
  <metadata
     id="metadata14109">
    <rdf:RDF>
      <cc:Work
         rdf:about="">
        <dc:format>image/svg+xml</dc:format>
        <dc:type
           rdf:resource="http://purl.org/dc/dcmitype/StillImage" />
        <dc:title />
      </cc:Work>
    </rdf:RDF>
  </metadata>
  <g
     inkscape:label="Vrstva 1"
     inkscape:groupmode="layer"
     id="layer1"
     transform="translate(-101.69955,-239.40763)">
    <g
       transform="matrix(0.00773754,0,0,0.00773754,54.732682,-9.8185288)"
       id="g4040"
       style="fill:#ff6e42;fill-opacity:1;stroke:#ff6e42;stroke-width:60;stroke-linecap:round;stroke-linejoin:round;stroke-opacity:1">
      <rect
         id="rect4036"
         rx="0"
         height="100"
         width="1800"
         y="37800"
         x="6100" />
      <rect
         id="rect4038"
         rx="0"
         height="200"
         width="1200"
         y="38030"
         x="6380" />
    </g>
    <g
       transform="matrix(0.00773754,0,0,0.00773754,54.732682,-9.8185288)"
       id="g4046"
       style="fill:#ff6e42;fill-opacity:0;stroke:#ff6e42;stroke-width:60;stroke-linecap:round;stroke-linejoin:round;stroke-opacity:1">
      <path
         inkscape:connector-curvature="0"
         id="path4042"
         d="m 7000,38200 v 300"
         style="fill:none;fill-opacity:0;stroke:#ff6e42;stroke-width:60;stroke-linecap:round;stroke-linejoin:round;stroke-opacity:1" />
      <path
         inkscape:connector-curvature="0"
         id="path4044"
         d="m 7000,37800 v -300"
         style="fill:none;fill-opacity:0;stroke:#ff6e42;stroke-width:60;stroke-linecap:round;stroke-linejoin:round;stroke-opacity:1" />
    </g>
    <g
       transform="matrix(0.00773754,0,0,0.00773754,54.732682,-9.8185288)"
       id="g4052"
       style="fill:#ff6e42;fill-opacity:0;stroke:#ff6e42;stroke-width:100;stroke-linecap:round;stroke-linejoin:round;stroke-opacity:1">
      <path
         inkscape:connector-curvature="0"
         id="path4048"
         d="m 7200,37150 h 400"
         style="fill:none;fill-opacity:0;stroke:#ff6e42;stroke-width:100;stroke-linecap:round;stroke-linejoin:round;stroke-opacity:1" />
      <path
         inkscape:connector-curvature="0"
         id="path4050"
         d="m 7400,36950 v 400"
         style="fill:none;fill-opacity:0;stroke:#ff6e42;stroke-width:100;stroke-linecap:round;stroke-linejoin:round;stroke-opacity:1" />
    </g>
    <g
       transform="matrix(0.00773754,0,0,0.00773754,54.732682,-9.8185288)"
       id="g4058"
       style="fill:#ff6e42;fill-opacity:0;stroke:#ff6e42;stroke-width:60;stroke-linecap:round;stroke-linejoin:round;stroke-opacity:1">
      <path
         inkscape:connector-curvature="0"
         id="path4054"
         d="M 7000,37500 V 36500" />
      <path
         inkscape:connector-curvature="0"
         id="path4056"
         d="m 7000,38500 v 1000" />
    </g>
    <g
       transform="matrix(0.00773754,0,0,0.00773754,54.732682,-9.8185288)"
       id="g4518"
       style="fill:#ff6e42;fill-opacity:0;stroke:#ff6e42;stroke-width:60;stroke-linecap:round;stroke-linejoin:round;stroke-opacity:1">
      <circle
         id="circle4488"
         r="200"
         cy="35500"
         cx="11200" />
      <circle
         id="circle4490"
         r="200"
         cy="36500"
         cx="12800" />
      <circle
         id="circle4492"
         r="200"
         cy="34500"
         cx="12800" />
      <path
         inkscape:connector-curvature="0"
         id="path4494"
         d="m 12000,35100 v -800"
         style="fill:none;fill-opacity:0;stroke:#ff6e42;stroke-width:60;stroke-linecap:round;stroke-linejoin:round;stroke-opacity:1" />
      <path
         inkscape:connector-curvature="0"
         id="path4496"
         d="m 11400,35400 1600,-700"
         style="fill:none;fill-opacity:0;stroke:#ff6e42;stroke-width:60;stroke-linecap:round;stroke-linejoin:round;stroke-opacity:1" />
      <path
         inkscape:connector-curvature="0"
         id="path4498"
         d="m 13000,34500 h 1000" />
      <text
         style="font-size:660px;text-anchor:middle;opacity:0"
         id="text4500"
         lengthAdjust="spacingAndGlyphs"
         font-size="660"
         textLength="540"
         y="35100"
         x="13500">1</text>
      <path
         inkscape:connector-curvature="0"
         id="path4502"
         d="m 13640,35070 h -290" />
      <path
         inkscape:connector-curvature="0"
         id="path4504"
         d="m 13500,35070 v -500 l -50,70 -50,50 -50,20" />
      <path
         inkscape:connector-curvature="0"
         id="path4506"
         d="M 11000,35500 H 10000" />
      <text
         style="font-size:660px;text-anchor:middle;opacity:0"
         id="text4508"
         lengthAdjust="spacingAndGlyphs"
         font-size="660"
         textLength="540"
         y="36100"
         x="10500">2</text>
      <path
         inkscape:connector-curvature="0"
         id="path4510"
         d="m 10350,35620 30,-20 40,-30 h 120 l 50,30 20,20 30,50 v 40 l -30,80 -280,280 h 310" />
      <path
         inkscape:connector-curvature="0"
         id="path4512"
         d="m 13000,36500 h 1000" />
      <text
         style="font-size:660px;text-anchor:middle;opacity:0"
         id="text4514"
         lengthAdjust="spacingAndGlyphs"
         font-size="660"
         textLength="540"
         y="37100"
         x="13500">3</text>
      <path
         inkscape:connector-curvature="0"
         id="path4516"
         d="m 13330,36570 h 310 l -170,190 h 70 l 50,30 20,20 30,50 v 120 l -30,40 -20,30 -50,20 h -140 l -50,-20 -20,-30" />
    </g>
    <g
       transform="matrix(0.00773754,0,0,0.00773754,54.732682,-9.8185288)"
       id="g4572"
       style="fill:#ff6e42;fill-opacity:0;stroke:#ff6e42;stroke-width:100;stroke-linecap:round;stroke-linejoin:round;stroke-opacity:1">
      <rect
         id="rect4570"
         rx="0"
         height="800"
         width="2000"
         y="34100"
         x="20500" />
    </g>
    <g
       transform="matrix(0.00773754,0,0,0.00773754,54.732682,-9.8185288)"
       id="g4578"
       style="fill:#ff6e42;fill-opacity:0;stroke:#ff6e42;stroke-width:60;stroke-linecap:round;stroke-linejoin:round;stroke-opacity:1">
      <path
         inkscape:connector-curvature="0"
         id="path4574"
         d="m 22500,34500 h 500" />
      <path
         inkscape:connector-curvature="0"
         id="path4576"
         d="m 20500,34500 h -500" />
    </g>
    <g
       transform="matrix(0.00773754,0,0,0.00773754,54.732682,-9.8185288)"
       id="g4598"
       style="fill:#ffffff;fill-opacity:0;stroke:#ffffff;stroke-width:60;stroke-linecap:round;stroke-linejoin:round;stroke-opacity:1">
      <text
         style="font-size:660px;text-anchor:middle;opacity:0"
         id="text4580"
         lengthAdjust="spacingAndGlyphs"
         font-size="660"
         textLength="560"
         y="32770"
         x="21500">R</text>
      <path
         inkscape:connector-curvature="0"
         id="path4582"
         d="m 21650,32740 -170,-240" />
      <path
         inkscape:connector-curvature="0"
         id="path4584"
         d="m 21360,32740 v -500 h 190 l 50,30 30,20 20,50 v 70 l -20,50 -30,20 -50,20 h -190" />
      <text
         style="font-size:660px;text-anchor:middle;opacity:0"
         id="text4586"
         lengthAdjust="spacingAndGlyphs"
         font-size="660"
         textLength="2060"
         y="33610"
         x="21500">180Ω</text>
      <path
         inkscape:connector-curvature="0"
         id="path4588"
         d="m 20880,33580 h -290" />
      <path
         inkscape:connector-curvature="0"
         id="path4590"
         d="m 20730,33580 v -500 l -40,70 -50,50 -50,20" />
      <path
         inkscape:connector-curvature="0"
         id="path4592"
         d="m 21160,33300 -50,-30 -20,-20 -20,-50 v -20 l 20,-50 20,-20 50,-30 h 100 l 40,30 30,20 20,50 v 20 l -20,50 -30,20 -40,30 h -100 l -50,20 -20,20 -20,50 v 100 l 20,40 20,30 50,20 h 100 l 40,-20 30,-30 20,-40 v -100 l -20,-50 -30,-20 -40,-20" />
      <path
         inkscape:connector-curvature="0"
         id="path4594"
         d="m 21660,33080 h 50 l 50,30 20,20 20,50 30,90 v 120 l -30,100 -20,40 -20,30 -50,20 h -50 l -50,-20 -20,-30 -20,-40 -30,-100 v -120 l 30,-90 20,-50 20,-20 50,-30" />
      <path
         inkscape:connector-curvature="0"
         id="path4596"
         d="m 22020,33580 h 120 v -90 l -50,-30 -50,-50 -20,-70 v -120 l 20,-70 50,-40 70,-30 h 100 l 70,30 50,40 20,70 v 120 l -20,70 -50,50 -50,30 v 90 h 120" />
    </g>
    <g
       transform="matrix(0.00773754,0,0,0.00773754,54.732682,-9.8185288)"
       id="g4608"
       style="fill:#ff6e42;fill-opacity:0;stroke:#ff6e42;stroke-width:100;stroke-linecap:round;stroke-linejoin:round;stroke-opacity:1">
      <rect
         id="rect4606"
         rx="0"
         height="800"
         width="2000"
         y="34100"
         x="15500" />
    </g>
    <g
       transform="matrix(0.00773754,0,0,0.00773754,54.732682,-9.8185288)"
       id="g4614"
       style="fill:#ff6e42;fill-opacity:0;stroke:#ff6e42;stroke-width:60;stroke-linecap:round;stroke-linejoin:round;stroke-opacity:1">
      <path
         inkscape:connector-curvature="0"
         id="path4610"
         d="m 17500,34500 h 500" />
      <path
         inkscape:connector-curvature="0"
         id="path4612"
         d="m 15500,34500 h -500" />
    </g>
    <g
       transform="matrix(0.00773754,0,0,0.00773754,54.732682,-9.8185288)"
       id="g4632"
       style="fill:#ffffff;fill-opacity:0;stroke:#ffffff;stroke-width:60;stroke-linecap:round;stroke-linejoin:round;stroke-opacity:1">
      <text
         style="font-size:660px;text-anchor:middle;opacity:0"
         id="text4616"
         lengthAdjust="spacingAndGlyphs"
         font-size="660"
         textLength="560"
         y="32770"
         x="16500">R</text>
      <path
         inkscape:connector-curvature="0"
         id="path4618"
         d="m 16650,32740 -170,-240" />
      <path
         inkscape:connector-curvature="0"
         id="path4620"
         d="m 16360,32740 v -500 h 190 l 50,30 30,20 20,50 v 70 l -20,50 -30,20 -50,20 h -190" />
      <text
         style="font-size:660px;text-anchor:middle;opacity:0"
         id="text4622"
         lengthAdjust="spacingAndGlyphs"
         font-size="660"
         textLength="2060"
         y="33610"
         x="16500">560Ω</text>
      <path
         inkscape:connector-curvature="0"
         id="path4624"
         d="m 15850,33080 h -240 l -20,240 20,-20 50,-30 h 120 l 50,30 20,20 30,50 v 120 l -30,40 -20,30 -50,20 h -120 l -50,-20 -20,-30" />
      <path
         inkscape:connector-curvature="0"
         id="path4626"
         d="m 16300,33080 h -90 l -50,30 -20,20 -50,70 -20,100 v 190 l 20,40 20,30 50,20 h 100 l 40,-20 30,-30 20,-40 v -120 l -20,-50 -30,-20 -40,-30 h -100 l -50,30 -20,20 -20,50" />
      <path
         inkscape:connector-curvature="0"
         id="path4628"
         d="m 16660,33080 h 50 l 50,30 20,20 20,50 30,90 v 120 l -30,100 -20,40 -20,30 -50,20 h -50 l -50,-20 -20,-30 -20,-40 -30,-100 v -120 l 30,-90 20,-50 20,-20 50,-30" />
      <path
         inkscape:connector-curvature="0"
         id="path4630"
         d="m 17020,33580 h 120 v -90 l -50,-30 -50,-50 -20,-70 v -120 l 20,-70 50,-40 70,-30 h 100 l 70,30 50,40 20,70 v 120 l -20,70 -50,50 -50,30 v 90 h 120" />
    </g>
    <g
       transform="matrix(0.00773754,0,0,0.00773754,54.732682,-9.8185288)"
       id="g4690"
       style="fill:#ff6e42;fill-opacity:0;stroke:#ff6e42;stroke-width:100;stroke-linecap:round;stroke-linejoin:round;stroke-opacity:1">
      <path
         inkscape:connector-curvature="0"
         id="path4688"
         d="M 24500,37500 H 23500"
         style="fill:none;fill-opacity:0;stroke:#ff6e42;stroke-width:100;stroke-linecap:round;stroke-linejoin:round;stroke-opacity:1" />
    </g>
    <g
       transform="matrix(0.00773754,0,0,0.00773754,54.732682,-9.8185288)"
       id="g4694"
       style="fill:#ff6e42;fill-opacity:0;stroke:#ff6e42;stroke-width:60;stroke-linecap:round;stroke-linejoin:round;stroke-opacity:1">
      <path
         inkscape:connector-curvature="0"
         id="path4692"
         d="M 24000,37500 V 36500"
         style="fill:none;fill-opacity:0;stroke:#ff6e42;stroke-width:60;stroke-linecap:round;stroke-linejoin:round;stroke-opacity:1" />
    </g>
    <g
       transform="matrix(0.00773754,0,0,0.00773754,54.732682,-9.8185288)"
       id="g4698"
       style="fill:#ff6e42;fill-opacity:0;stroke:#ff6e42;stroke-width:100;stroke-linecap:round;stroke-linejoin:round;stroke-opacity:1">
      <path
         inkscape:connector-curvature="0"
         id="path4696"
         d="m 24500,36500 h -1000 l 500,1000 z"
         style="fill:none;fill-opacity:0;stroke:#ff6e42;stroke-width:100;stroke-linecap:round;stroke-linejoin:round;stroke-opacity:1" />
    </g>
    <g
       transform="matrix(0.00773754,0,0,0.00773754,54.732682,-9.8185288)"
       id="g4708"
       style="fill:#ff6e42;fill-opacity:0;stroke:#ff6e42;stroke-width:60;stroke-linecap:round;stroke-linejoin:round;stroke-opacity:1">
      <path
         inkscape:connector-curvature="0"
         id="path4700"
         d="m 24300,38200 600,600 v -300 300 h -300"
         style="fill:none;fill-opacity:0;stroke:#ff6e42;stroke-width:60;stroke-linecap:round;stroke-linejoin:round;stroke-opacity:1" />
      <path
         inkscape:connector-curvature="0"
         id="path4702"
         d="m 24300,37700 600,600 v -300 300 h -300"
         style="fill:none;fill-opacity:0;stroke:#ff6e42;stroke-width:60;stroke-linecap:round;stroke-linejoin:round;stroke-opacity:1" />
      <path
         inkscape:connector-curvature="0"
         id="path4704"
         d="m 24000,37500 v 1000" />
      <path
         inkscape:connector-curvature="0"
         id="path4706"
         d="M 24000,36500 V 35500" />
    </g>
    <text
       transform="matrix(0.00773754,0,0,0.00773754,54.732682,-9.8185288)"
       x="25890"
       y="37740"
       textLength="1420"
       font-size="660"
       lengthAdjust="spacingAndGlyphs"
       id="text4718"
       style="font-size:660px;text-anchor:middle;opacity:0;fill:#ffffff;fill-opacity:0;stroke:#ffffff;stroke-width:60;stroke-linecap:round;stroke-linejoin:round;stroke-opacity:1">LED</text>
    <path
       style="fill:#ffffff;fill-opacity:0;stroke:#ffffff;stroke-width:0.46425223;stroke-linecap:round;stroke-linejoin:round;stroke-opacity:1"
       d="m 252.50416,281.96402 h -1.77964 v -3.86877"
       id="path4720"
       inkscape:connector-curvature="0" />
    <path
       style="fill:#ffffff;fill-opacity:0;stroke:#ffffff;stroke-width:0.46425223;stroke-linecap:round;stroke-linejoin:round;stroke-opacity:1"
       d="m 253.81954,279.95226 h 1.31538"
       id="path4722"
       inkscape:connector-curvature="0" />
    <path
       style="fill:#ffffff;fill-opacity:0;stroke:#ffffff;stroke-width:0.46425223;stroke-linecap:round;stroke-linejoin:round;stroke-opacity:1"
       d="m 255.67655,281.96402 h -1.85701 v -3.86877 h 1.85701"
       id="path4724"
       inkscape:connector-curvature="0" />
    <path
       style="fill:#ffffff;fill-opacity:0;stroke:#ffffff;stroke-width:0.46425223;stroke-linecap:round;stroke-linejoin:round;stroke-opacity:1"
       d="m 257.30143,281.96402 v -3.86877 h 0.92851 l 0.54162,0.23213 0.38688,0.3095 0.15475,0.38688 0.23213,0.77375 v 0.54163 l -0.23213,0.69638 -0.15475,0.38687 -0.38688,0.38688 -0.54162,0.15475 h -0.92851"
       id="path4726"
       inkscape:connector-curvature="0" />
    <path
       style="fill:#ff6e41;fill-opacity:0;stroke:#ff6e41;stroke-width:0.46425223;stroke-linecap:round;stroke-linejoin:round;stroke-opacity:1"
       inkscape:connector-curvature="0"
       id="path5882"
       d="m 163.05822,272.6016 h 38.68769" />
    <path
       style="fill:#ff6e41;fill-opacity:0;stroke:#ff6e41;stroke-width:0.46425223;stroke-linecap:round;stroke-linejoin:round;stroke-opacity:1"
       inkscape:connector-curvature="0"
       id="path5884"
       d="M 240.4336,303.55175 V 288.07668" />
    <path
       style="fill:#ff6e41;fill-opacity:0;stroke:#ff6e41;stroke-width:0.46425223;stroke-linecap:round;stroke-linejoin:round;stroke-opacity:1"
       inkscape:connector-curvature="0"
       id="path5886"
       d="M 108.89546,303.55175 H 240.4336" />
    <path
       style="fill:#ff6e41;fill-opacity:0;stroke:#ff6e41;stroke-width:0.46425223;stroke-linecap:round;stroke-linejoin:round;stroke-opacity:1"
       inkscape:connector-curvature="0"
       id="path5888"
       d="m 108.89546,295.81422 v 7.73753" />
    <path
       style="fill:#ff6e41;fill-opacity:0;stroke:#ff6e41;stroke-width:0.46425223;stroke-linecap:round;stroke-linejoin:round;stroke-opacity:1"
       inkscape:connector-curvature="0"
       id="path5890"
       d="m 240.4336,257.12653 v 7.73753" />
    <path
       style="fill:#ff6e41;fill-opacity:0;stroke:#ff6e41;stroke-width:0.46425223;stroke-linecap:round;stroke-linejoin:round;stroke-opacity:1"
       inkscape:connector-curvature="0"
       id="path5892"
       d="m 232.69606,257.12653 h 7.73754" />
    <path
       style="fill:#ff6e41;fill-opacity:0;stroke:#ff6e41;stroke-width:0.46425223;stroke-linecap:round;stroke-linejoin:round;stroke-opacity:1"
       inkscape:connector-curvature="0"
       id="path5894"
       d="m 201.74591,257.12653 h 7.73754" />
    <path
       style="fill:#ff6e41;fill-opacity:0;stroke:#ff6e41;stroke-width:0.46425223;stroke-linecap:round;stroke-linejoin:round;stroke-opacity:1"
       inkscape:connector-curvature="0"
       id="path5896"
       d="m 201.74591,257.12653 h -7.73754" />
    <path
       style="fill:#ff6e41;fill-opacity:0;stroke:#ff6e41;stroke-width:0.46425223;stroke-linecap:round;stroke-linejoin:round;stroke-opacity:1"
       inkscape:connector-curvature="0"
       id="path5898"
       d="M 201.74591,272.6016 V 257.12653" />
    <path
       style="fill:#ff6e41;fill-opacity:0;stroke:#ff6e41;stroke-width:0.46425223;stroke-linecap:round;stroke-linejoin:round;stroke-opacity:1"
       inkscape:connector-curvature="0"
       id="path5902"
       d="m 163.05822,257.12653 h 7.73754" />
    <path
       style="fill:#ff6e41;fill-opacity:0;stroke:#ff6e41;stroke-width:0.46425223;stroke-linecap:round;stroke-linejoin:round;stroke-opacity:1"
       inkscape:connector-curvature="0"
       id="path5904"
       d="m 108.89546,264.86406 h 23.21261" />
    <path
       style="fill:#ff6e41;fill-opacity:0;stroke:#ff6e41;stroke-width:0.46425223;stroke-linecap:round;stroke-linejoin:round;stroke-opacity:1"
       inkscape:connector-curvature="0"
       id="path5906"
       d="m 108.89546,272.6016 v -7.73754" />
    <circle
       style="fill:#ff6e41;fill-opacity:1;stroke:#ff6e41;stroke-width:0.77375382;stroke-linecap:round;stroke-linejoin:round;stroke-opacity:1"
       id="circle6054"
       r="1.5475076"
       cy="257.12656"
       cx="201.7459" />
  </g>
</svg>
