<?xml version="1.0" encoding="UTF-8" standalone="no"?>
<!-- Created with Inkscape (http://www.inkscape.org/) -->

<svg
   xmlns:dc="http://purl.org/dc/elements/1.1/"
   xmlns:cc="http://creativecommons.org/ns#"
   xmlns:rdf="http://www.w3.org/1999/02/22-rdf-syntax-ns#"
   xmlns:svg="http://www.w3.org/2000/svg"
   xmlns="http://www.w3.org/2000/svg"
   xmlns:sodipodi="http://sodipodi.sourceforge.net/DTD/sodipodi-0.dtd"
   xmlns:inkscape="http://www.inkscape.org/namespaces/inkscape"
   width="158.75005mm"
   height="103.37485mm"
   viewBox="0 0 158.75005 103.37485"
   version="1.1"
   id="svg19194"
   inkscape:version="0.92.4 (5da689c313, 2019-01-14)"
   sodipodi:docname="24.svg">
  <defs
     id="defs19188" />
  <sodipodi:namedview
     id="base"
     pagecolor="#ffffff"
     bordercolor="#666666"
     borderopacity="1.0"
     inkscape:pageopacity="0.0"
     inkscape:pageshadow="2"
     inkscape:zoom="0.35"
     inkscape:cx="-382.98243"
     inkscape:cy="214.00641"
     inkscape:document-units="mm"
     inkscape:current-layer="layer1"
     showgrid="false"
     inkscape:window-width="1920"
     inkscape:window-height="1027"
     inkscape:window-x="-8"
     inkscape:window-y="1072"
     inkscape:window-maximized="1" />
  <metadata
     id="metadata19191">
    <rdf:RDF>
      <cc:Work
         rdf:about="">
        <dc:format>image/svg+xml</dc:format>
        <dc:type
           rdf:resource="http://purl.org/dc/dcmitype/StillImage" />
        <dc:title />
      </cc:Work>
    </rdf:RDF>
  </metadata>
  <g
     inkscape:label="Vrstva 1"
     inkscape:groupmode="layer"
     id="layer1"
     transform="translate(121.67518,-102.08101)">
    <g
       transform="matrix(0.01027496,0,0,0.01027496,-584.76763,-288.05472)"
       id="g2938"
       style="fill:#ff6e42;fill-opacity:0;stroke:#ff6e42;stroke-width:100;stroke-linecap:round;stroke-linejoin:round;stroke-opacity:1">
      <path
         inkscape:connector-curvature="0"
         id="path2936"
         d="M 58000,46500 H 57000"
         style="fill:none;fill-opacity:0;stroke:#ff6e42;stroke-width:100;stroke-linecap:round;stroke-linejoin:round;stroke-opacity:1" />
    </g>
    <g
       transform="matrix(0.01027496,0,0,0.01027496,-584.76763,-288.05472)"
       id="g2942"
       style="fill:#ff6e42;fill-opacity:0;stroke:#ff6e42;stroke-width:60;stroke-linecap:round;stroke-linejoin:round;stroke-opacity:1">
      <path
         inkscape:connector-curvature="0"
         id="path2940"
         d="M 57500,46500 V 45500"
         style="fill:none;fill-opacity:0;stroke:#ff6e42;stroke-width:60;stroke-linecap:round;stroke-linejoin:round;stroke-opacity:1" />
    </g>
    <g
       transform="matrix(0.01027496,0,0,0.01027496,-584.76763,-288.05472)"
       id="g2946"
       style="fill:#ff6e42;fill-opacity:0;stroke:#ff6e42;stroke-width:100;stroke-linecap:round;stroke-linejoin:round;stroke-opacity:1">
      <path
         inkscape:connector-curvature="0"
         id="path2944"
         d="m 58000,45500 h -1000 l 500,1000 z"
         style="fill:none;fill-opacity:0;stroke:#ff6e42;stroke-width:100;stroke-linecap:round;stroke-linejoin:round;stroke-opacity:1" />
    </g>
    <g
       transform="matrix(0.01027496,0,0,0.01027496,-584.76763,-288.05472)"
       id="g2956"
       style="fill:#ff6e42;fill-opacity:0;stroke:#ff6e42;stroke-width:60;stroke-linecap:round;stroke-linejoin:round;stroke-opacity:1">
      <path
         inkscape:connector-curvature="0"
         id="path2948"
         d="m 57800,47200 600,600 v -300 300 h -300"
         style="fill:none;fill-opacity:0;stroke:#ff6e42;stroke-width:60;stroke-linecap:round;stroke-linejoin:round;stroke-opacity:1" />
      <path
         inkscape:connector-curvature="0"
         id="path2950"
         d="m 57800,46700 600,600 v -300 300 h -300"
         style="fill:none;fill-opacity:0;stroke:#ff6e42;stroke-width:60;stroke-linecap:round;stroke-linejoin:round;stroke-opacity:1" />
      <path
         inkscape:connector-curvature="0"
         id="path2952"
         d="m 57500,46500 v 1000" />
      <path
         inkscape:connector-curvature="0"
         id="path2954"
         d="M 57500,45500 V 44500" />
    </g>
    <text
       transform="matrix(0.01027496,0,0,0.01027496,-584.76763,-288.05472)"
       x="59390"
       y="46740"
       textLength="1420"
       font-size="660"
       lengthAdjust="spacingAndGlyphs"
       id="text2966"
       style="font-size:660px;text-anchor:middle;opacity:0;fill:#ffffff;fill-opacity:0;stroke:#ffffff;stroke-width:60;stroke-linecap:round;stroke-linejoin:round;stroke-opacity:1">LED</text>
    <path
       style="fill:#ffffff;fill-opacity:0;stroke:#ffffff;stroke-width:0.6164974;stroke-linecap:round;stroke-linejoin:round;stroke-opacity:1"
       d="m 22.071348,191.88852 h -2.36324 v -5.13748"
       id="path2968"
       inkscape:connector-curvature="0" />
    <path
       style="fill:#ffffff;fill-opacity:0;stroke:#ffffff;stroke-width:0.6164974;stroke-linecap:round;stroke-linejoin:round;stroke-opacity:1"
       d="m 23.818091,189.21703 h 1.746743"
       id="path2970"
       inkscape:connector-curvature="0" />
    <path
       style="fill:#ffffff;fill-opacity:0;stroke:#ffffff;stroke-width:0.6164974;stroke-linecap:round;stroke-linejoin:round;stroke-opacity:1"
       d="m 26.284081,191.88852 h -2.46599 v -5.13748 h 2.46599"
       id="path2972"
       inkscape:connector-curvature="0" />
    <path
       style="fill:#ffffff;fill-opacity:0;stroke:#ffffff;stroke-width:0.6164974;stroke-linecap:round;stroke-linejoin:round;stroke-opacity:1"
       d="m 28.441822,191.88852 v -5.13748 h 1.232995 l 0.719247,0.30825 0.513748,0.411 0.205499,0.51375 0.308248,1.02749 v 0.71925 l -0.308248,0.92475 -0.205499,0.51374 -0.513748,0.51375 -0.719247,0.2055 h -1.232995"
       id="path2974"
       inkscape:connector-curvature="0" />
    <g
       transform="matrix(0.01027496,0,0,0.01027496,-584.76763,-288.05472)"
       id="g2986"
       style="fill:#ff6e42;fill-opacity:0;stroke:#ff6e42;stroke-width:100;stroke-linecap:round;stroke-linejoin:round;stroke-opacity:1">
      <rect
         id="rect2984"
         rx="0"
         height="2000"
         width="800"
         y="41500"
         x="57100" />
    </g>
    <g
       transform="matrix(0.01027496,0,0,0.01027496,-584.76763,-288.05472)"
       id="g2992"
       style="fill:#ff6e42;fill-opacity:0;stroke:#ff6e42;stroke-width:60;stroke-linecap:round;stroke-linejoin:round;stroke-opacity:1">
      <path
         inkscape:connector-curvature="0"
         id="path2988"
         d="m 57500,43500 v 500" />
      <path
         inkscape:connector-curvature="0"
         id="path2990"
         d="m 57500,41500 v -500" />
    </g>
    <g
       transform="matrix(0.01027496,0,0,0.01027496,-584.76763,-288.05472)"
       id="g3012"
       style="fill:#ffffff;fill-opacity:0;stroke:#ffffff;stroke-width:60;stroke-linecap:round;stroke-linejoin:round;stroke-opacity:1">
      <text
         style="font-size:660px;text-anchor:middle;opacity:0"
         id="text2994"
         lengthAdjust="spacingAndGlyphs"
         font-size="660"
         textLength="560"
         y="42220"
         x="59000">R</text>
      <path
         inkscape:connector-curvature="0"
         id="path2996"
         d="m 59150,42190 -170,-240" />
      <path
         inkscape:connector-curvature="0"
         id="path2998"
         d="m 58860,42190 v -500 h 190 l 50,30 30,20 20,50 v 70 l -20,50 -30,20 -50,20 h -190" />
      <text
         style="font-size:660px;text-anchor:middle;opacity:0"
         id="text3000"
         lengthAdjust="spacingAndGlyphs"
         font-size="660"
         textLength="2060"
         y="43220"
         x="59500">180Ω</text>
      <path
         inkscape:connector-curvature="0"
         id="path3002"
         d="m 58880,43190 h -290" />
      <path
         inkscape:connector-curvature="0"
         id="path3004"
         d="m 58730,43190 v -500 l -40,70 -50,50 -50,20" />
      <path
         inkscape:connector-curvature="0"
         id="path3006"
         d="m 59160,42910 -50,-30 -20,-20 -20,-50 v -20 l 20,-50 20,-20 50,-30 h 100 l 40,30 30,20 20,50 v 20 l -20,50 -30,20 -40,30 h -100 l -50,20 -20,20 -20,50 v 100 l 20,40 20,30 50,20 h 100 l 40,-20 30,-30 20,-40 v -100 l -20,-50 -30,-20 -40,-20" />
      <path
         inkscape:connector-curvature="0"
         id="path3008"
         d="m 59660,42690 h 50 l 50,30 20,20 20,50 30,90 v 120 l -30,100 -20,40 -20,30 -50,20 h -50 l -50,-20 -20,-30 -20,-40 -30,-100 v -120 l 30,-90 20,-50 20,-20 50,-30" />
      <path
         inkscape:connector-curvature="0"
         id="path3010"
         d="m 60020,43190 h 120 v -90 l -50,-30 -50,-50 -20,-70 v -120 l 20,-70 50,-40 70,-30 h 100 l 70,30 50,40 20,70 v 120 l -20,70 -50,50 -50,30 v 90 h 120" />
    </g>
    <g
       transform="matrix(0.01027496,0,0,0.01027496,-584.76763,-288.05472)"
       id="g3022"
       style="fill:#ff6e42;fill-opacity:0;stroke:#ff6e42;stroke-width:100;stroke-linecap:round;stroke-linejoin:round;stroke-opacity:1">
      <rect
         id="rect3020"
         rx="0"
         height="2000"
         width="800"
         y="39000"
         x="54600" />
    </g>
    <g
       transform="matrix(0.01027496,0,0,0.01027496,-584.76763,-288.05472)"
       id="g3026"
       style="fill:#ff6e42;fill-opacity:0;stroke:#ff6e42;stroke-width:60;stroke-linecap:round;stroke-linejoin:round;stroke-opacity:1">
      <path
         inkscape:connector-curvature="0"
         id="path3024"
         d="m 56000,40000 h -400"
         style="fill:none;fill-opacity:0;stroke:#ff6e42;stroke-width:60;stroke-linecap:round;stroke-linejoin:round;stroke-opacity:1" />
    </g>
    <g
       transform="matrix(0.01027496,0,0,0.01027496,-584.76763,-288.05472)"
       id="g3030"
       style="fill:#ff6e42;fill-opacity:1;stroke:#ff6e42;stroke-width:60;stroke-linecap:round;stroke-linejoin:round;stroke-opacity:1">
      <path
         inkscape:connector-curvature="0"
         id="path3028"
         d="m 55450,40000 450,-200 v 400 z"
         style="fill:#ff6e42;fill-opacity:1;fill-rule:evenodd;stroke:#ff6e42;stroke-width:60;stroke-linecap:round;stroke-linejoin:round;stroke-opacity:1" />
    </g>
    <g
       transform="matrix(0.01027496,0,0,0.01027496,-584.76763,-288.05472)"
       id="g3056"
       style="fill:#ff6e42;fill-opacity:0;stroke:#ff6e42;stroke-width:60;stroke-linecap:round;stroke-linejoin:round;stroke-opacity:1">
      <path
         inkscape:connector-curvature="0"
         id="path3032"
         d="m 55000,39000 v -500" />
      <g
         id="g3036"
         transform="rotate(-90,54900,38750)">
        <text
           style="font-size:660px;text-anchor:middle;opacity:0"
           id="text3034"
           lengthAdjust="spacingAndGlyphs"
           font-size="660"
           textLength="540"
           y="38750"
           x="54900">1</text>
      </g>
      <path
         inkscape:connector-curvature="0"
         id="path3038"
         d="m 54870,38600 v 290" />
      <path
         inkscape:connector-curvature="0"
         id="path3040"
         d="m 54870,38750 h -500 l 70,40 50,50 20,50" />
      <path
         inkscape:connector-curvature="0"
         id="path3042"
         d="m 56000,40000 h 500" />
      <text
         style="font-size:660px;text-anchor:middle;opacity:0"
         id="text3044"
         lengthAdjust="spacingAndGlyphs"
         font-size="660"
         textLength="540"
         y="39900"
         x="56250">2</text>
      <path
         inkscape:connector-curvature="0"
         id="path3046"
         d="m 56100,39420 30,-20 40,-30 h 120 l 50,30 20,20 30,50 v 40 l -30,80 -280,280 h 310" />
      <path
         inkscape:connector-curvature="0"
         id="path3048"
         d="m 55000,41000 v 500" />
      <g
         id="g3052"
         transform="rotate(-90,54900,41250)">
        <text
           style="font-size:660px;text-anchor:middle;opacity:0"
           id="text3050"
           lengthAdjust="spacingAndGlyphs"
           font-size="660"
           textLength="540"
           y="41250"
           x="54900">3</text>
      </g>
      <path
         inkscape:connector-curvature="0"
         id="path3054"
         d="m 54370,41410 v -310 l 190,170 v -70 l 30,-50 20,-20 50,-30 h 120 l 40,30 30,20 20,50 v 140 l -20,50 -30,20" />
    </g>
    <g
       transform="matrix(0.01027496,0,0,0.01027496,-584.76763,-288.05472)"
       id="g3098"
       style="fill:#ff6e42;fill-opacity:1;stroke:#ff6e42;stroke-width:60;stroke-linecap:round;stroke-linejoin:round;stroke-opacity:1">
      <rect
         id="rect3094"
         rx="0"
         height="100"
         width="1800"
         y="43800"
         x="45100" />
      <rect
         id="rect3096"
         rx="0"
         height="200"
         width="1200"
         y="44030"
         x="45380" />
    </g>
    <g
       transform="matrix(0.01027496,0,0,0.01027496,-584.76763,-288.05472)"
       id="g3104"
       style="fill:#ff6e42;fill-opacity:0;stroke:#ff6e42;stroke-width:60;stroke-linecap:round;stroke-linejoin:round;stroke-opacity:1">
      <path
         inkscape:connector-curvature="0"
         id="path3100"
         d="m 46000,44200 v 300"
         style="fill:none;fill-opacity:0;stroke:#ff6e42;stroke-width:60;stroke-linecap:round;stroke-linejoin:round;stroke-opacity:1" />
      <path
         inkscape:connector-curvature="0"
         id="path3102"
         d="m 46000,43800 v -300"
         style="fill:none;fill-opacity:0;stroke:#ff6e42;stroke-width:60;stroke-linecap:round;stroke-linejoin:round;stroke-opacity:1" />
    </g>
    <g
       transform="matrix(0.01027496,0,0,0.01027496,-584.76763,-288.05472)"
       id="g3110"
       style="fill:#ff6e42;fill-opacity:0;stroke:#ff6e42;stroke-width:100;stroke-linecap:round;stroke-linejoin:round;stroke-opacity:1">
      <path
         inkscape:connector-curvature="0"
         id="path3106"
         d="m 46200,43150 h 400"
         style="fill:none;fill-opacity:0;stroke:#ff6e42;stroke-width:100;stroke-linecap:round;stroke-linejoin:round;stroke-opacity:1" />
      <path
         inkscape:connector-curvature="0"
         id="path3108"
         d="m 46400,42950 v 400"
         style="fill:none;fill-opacity:0;stroke:#ff6e42;stroke-width:100;stroke-linecap:round;stroke-linejoin:round;stroke-opacity:1" />
    </g>
    <g
       transform="matrix(0.01027496,0,0,0.01027496,-584.76763,-288.05472)"
       id="g3116"
       style="fill:#ff6e42;fill-opacity:0;stroke:#ff6e42;stroke-width:60;stroke-linecap:round;stroke-linejoin:round;stroke-opacity:1">
      <path
         inkscape:connector-curvature="0"
         id="path3112"
         d="M 46000,43500 V 42500" />
      <path
         inkscape:connector-curvature="0"
         id="path3114"
         d="m 46000,44500 v 1000" />
    </g>
    <g
       transform="matrix(0.01027496,0,0,0.01027496,-584.76763,-288.05472)"
       id="g3204"
       style="fill:#ff6e42;fill-opacity:0;stroke:#ff6e42;stroke-width:60;stroke-linecap:round;stroke-linejoin:round;stroke-opacity:1">
      <circle
         id="circle3174"
         r="200"
         cy="40000"
         cx="48700" />
      <circle
         id="circle3176"
         r="200"
         cy="41000"
         cx="50300" />
      <circle
         id="circle3178"
         r="200"
         cy="39000"
         cx="50300" />
      <path
         inkscape:connector-curvature="0"
         id="path3180"
         d="m 49500,39600 v -800"
         style="fill:none;fill-opacity:0;stroke:#ff6e42;stroke-width:60;stroke-linecap:round;stroke-linejoin:round;stroke-opacity:1" />
      <path
         inkscape:connector-curvature="0"
         id="path3182"
         d="m 48900,39900 1600,-700"
         style="fill:none;fill-opacity:0;stroke:#ff6e42;stroke-width:60;stroke-linecap:round;stroke-linejoin:round;stroke-opacity:1" />
      <path
         inkscape:connector-curvature="0"
         id="path3184"
         d="m 50500,39000 h 1000" />
      <text
         style="font-size:660px;text-anchor:middle;opacity:0"
         id="text3186"
         lengthAdjust="spacingAndGlyphs"
         font-size="660"
         textLength="540"
         y="39600"
         x="51000">1</text>
      <path
         inkscape:connector-curvature="0"
         id="path3188"
         d="m 51140,39570 h -290" />
      <path
         inkscape:connector-curvature="0"
         id="path3190"
         d="m 51000,39570 v -500 l -50,70 -50,50 -50,20" />
      <path
         inkscape:connector-curvature="0"
         id="path3192"
         d="M 48500,40000 H 47500" />
      <text
         style="font-size:660px;text-anchor:middle;opacity:0"
         id="text3194"
         lengthAdjust="spacingAndGlyphs"
         font-size="660"
         textLength="540"
         y="40600"
         x="48000">2</text>
      <path
         inkscape:connector-curvature="0"
         id="path3196"
         d="m 47850,40120 30,-20 40,-30 h 120 l 50,30 20,20 30,50 v 40 l -30,80 -280,280 h 310" />
      <path
         inkscape:connector-curvature="0"
         id="path3198"
         d="m 50500,41000 h 1000" />
      <text
         style="font-size:660px;text-anchor:middle;opacity:0"
         id="text3200"
         lengthAdjust="spacingAndGlyphs"
         font-size="660"
         textLength="540"
         y="41600"
         x="51000">3</text>
      <path
         inkscape:connector-curvature="0"
         id="path3202"
         d="m 50830,41070 h 310 l -170,190 h 70 l 50,30 20,20 30,50 v 120 l -30,40 -20,30 -50,20 h -140 l -50,-20 -20,-30" />
    </g>
    <path
       style="fill:#ff6e41;fill-opacity:0;stroke:#ff6e41;stroke-width:0.6164974;stroke-linecap:round;stroke-linejoin:round;stroke-opacity:1"
       inkscape:connector-curvature="0"
       id="path5918"
       d="M -50.469857,112.6686 V 102.39365" />
    <path
       style="fill:#ff6e41;fill-opacity:0;stroke:#ff6e41;stroke-width:0.6164974;stroke-linecap:round;stroke-linejoin:round;stroke-opacity:1"
       inkscape:connector-curvature="0"
       id="path5920"
       d="m 6.0424153,205.14322 v -5.13748" />
    <path
       style="fill:#ff6e41;fill-opacity:0;stroke:#ff6e41;stroke-width:0.6164974;stroke-linecap:round;stroke-linejoin:round;stroke-opacity:1"
       inkscape:connector-curvature="0"
       id="path5922"
       d="M -112.1196,205.14322 H 6.0424153" />
    <path
       style="fill:#ff6e41;fill-opacity:0;stroke:#ff6e41;stroke-width:0.6164974;stroke-linecap:round;stroke-linejoin:round;stroke-opacity:1"
       inkscape:connector-curvature="0"
       id="path5924"
       d="m -112.1196,179.45582 v 25.6874" />
    <path
       style="fill:#ff6e41;fill-opacity:0;stroke:#ff6e41;stroke-width:0.6164974;stroke-linecap:round;stroke-linejoin:round;stroke-opacity:1"
       inkscape:connector-curvature="0"
       id="path5926"
       d="m -19.644978,143.49347 v -5.13748" />
    <path
       style="fill:#ff6e41;fill-opacity:0;stroke:#ff6e41;stroke-width:0.6164974;stroke-linecap:round;stroke-linejoin:round;stroke-opacity:1"
       inkscape:connector-curvature="0"
       id="path5928"
       d="m -50.469857,143.49347 h 30.824879" />
    <path
       style="fill:#ff6e41;fill-opacity:0;stroke:#ff6e41;stroke-width:0.6164974;stroke-linecap:round;stroke-linejoin:round;stroke-opacity:1"
       inkscape:connector-curvature="0"
       id="path5930"
       d="m -50.469857,133.21852 v 10.27495" />
    <path
       style="fill:#ff6e41;fill-opacity:0;stroke:#ff6e41;stroke-width:0.6164974;stroke-linecap:round;stroke-linejoin:round;stroke-opacity:1"
       inkscape:connector-curvature="0"
       id="path5932"
       d="m -55.607336,133.21852 h 5.137479" />
    <path
       style="fill:#ff6e41;fill-opacity:0;stroke:#ff6e41;stroke-width:0.6164974;stroke-linecap:round;stroke-linejoin:round;stroke-opacity:1"
       inkscape:connector-curvature="0"
       id="path5934"
       d="m -19.644978,102.39365 v 5.13747" />
    <path
       style="fill:#ff6e41;fill-opacity:0;stroke:#ff6e41;stroke-width:0.6164974;stroke-linecap:round;stroke-linejoin:round;stroke-opacity:1"
       inkscape:connector-curvature="0"
       id="path5936"
       d="m -50.469857,102.39365 h 30.824879" />
    <path
       style="fill:#ff6e41;fill-opacity:0;stroke:#ff6e41;stroke-width:0.6164974;stroke-linecap:round;stroke-linejoin:round;stroke-opacity:1"
       inkscape:connector-curvature="0"
       id="path5938"
       d="m 6.0424153,169.18087 v -5.13748" />
    <path
       style="fill:#ff6e41;fill-opacity:0;stroke:#ff6e41;stroke-width:0.6164974;stroke-linecap:round;stroke-linejoin:round;stroke-opacity:1"
       inkscape:connector-curvature="0"
       id="path5940"
       d="m -55.607336,112.6686 h 5.137479" />
    <path
       style="fill:#ff6e41;fill-opacity:0;stroke:#ff6e41;stroke-width:0.6164974;stroke-linecap:round;stroke-linejoin:round;stroke-opacity:1"
       inkscape:connector-curvature="0"
       id="path5942"
       d="m -112.1196,122.94356 h 15.412436" />
    <path
       style="fill:#ff6e41;fill-opacity:0;stroke:#ff6e41;stroke-width:0.6164974;stroke-linecap:round;stroke-linejoin:round;stroke-opacity:1"
       inkscape:connector-curvature="0"
       id="path5944"
       d="M -112.1196,148.63095 V 122.94356" />
    <path
       style="fill:#ff6e41;fill-opacity:0;stroke:#ff6e41;stroke-width:0.6164974;stroke-linecap:round;stroke-linejoin:round;stroke-opacity:1"
       inkscape:connector-curvature="0"
       id="path5994"
       d="m 6.0424153,122.94356 v 10.27496" />
    <path
       style="fill:#ff6e41;fill-opacity:0;stroke:#ff6e41;stroke-width:0.6164974;stroke-linecap:round;stroke-linejoin:round;stroke-opacity:1"
       inkscape:connector-curvature="0"
       id="path5996"
       d="M -4.2325419,122.94356 H 6.0424153" />
  </g>
</svg>
